<?xml version="1.0" standalone="no"?>
<!DOCTYPE svg PUBLIC "-//W3C//DTD SVG 20010904//EN"
 "http://www.w3.org/TR/2001/REC-SVG-20010904/DTD/svg10.dtd">
<svg version="1.0" xmlns="http://www.w3.org/2000/svg"
 width="512.000000pt" height="512.000000pt" viewBox="0 0 512.000000 512.000000"
 preserveAspectRatio="xMidYMid meet">

<g transform="translate(0.000000,512.000000) scale(0.100000,-0.100000)"
fill="#000000" stroke="none">
<path d="M2503 5089 c-112 -15 -213 -90 -265 -197 -29 -60 -33 -76 -33 -157 0
-82 3 -96 33 -157 41 -84 112 -150 193 -179 l59 -22 0 -1817 0 -1817 -59 -22
c-81 -29 -152 -95 -193 -179 -30 -60 -33 -75 -33 -157 0 -82 3 -97 33 -157 63
-129 177 -200 322 -200 142 0 266 77 327 200 25 51 28 68 28 157 0 82 -4 109
-22 147 -42 91 -146 180 -237 202 -29 7 -29 7 -22 68 3 34 6 852 6 1820 0
1666 1 1759 18 1764 101 32 185 102 230 194 24 49 27 66 27 155 0 89 -3 106
-28 157 -69 140 -221 219 -384 197z"/>
<path d="M855 4537 c-71 -19 -111 -42 -164 -96 -69 -68 -94 -127 -99 -236 -5
-115 17 -181 89 -260 71 -77 139 -108 249 -113 76 -4 94 -1 151 22 l64 26 202
-202 203 -203 -39 -40 c-55 -58 -77 -93 -100 -163 -36 -106 -28 -238 23 -353
5 -13 -6 -24 -47 -47 -62 -35 -140 -118 -170 -179 l-21 -43 -242 0 -242 0 -12
38 c-61 190 -283 293 -477 220 -81 -30 -171 -121 -202 -203 -32 -85 -27 -217
12 -291 53 -104 127 -163 242 -191 161 -40 329 39 405 190 16 33 30 66 30 74
0 10 44 13 230 13 l230 0 0 -33 c0 -87 55 -218 115 -277 l33 -32 -14 -45 c-21
-70 -18 -198 6 -269 27 -77 77 -152 135 -199 l46 -38 -172 -173 -172 -172 -56
26 c-47 22 -70 26 -141 26 -113 -1 -182 -27 -253 -97 -150 -148 -148 -380 4
-521 81 -75 146 -99 259 -94 148 6 251 74 313 206 42 90 44 196 6 289 l-26 61
196 195 196 195 60 -5 60 -4 48 68 c78 109 130 226 134 298 1 33 2 63 3 66 0
14 33 19 46 8 22 -18 16 -106 -10 -182 -25 -71 -81 -169 -140 -246 -34 -44
-34 -45 -19 -88 31 -91 120 -183 223 -231 48 -23 68 -26 165 -27 93 0 117 3
158 22 l47 22 0 382 0 381 -22 -7 c-74 -23 -117 -28 -132 -16 -33 28 -6 61 49
61 15 0 45 10 66 22 l39 22 0 478 0 478 -26 16 c-14 10 -48 22 -76 29 -59 13
-83 39 -55 59 18 14 89 6 126 -14 11 -5 22 -10 25 -10 3 0 6 172 6 383 l0 383
-35 17 c-20 9 -66 22 -104 28 -176 29 -352 -59 -433 -218 l-33 -65 40 -31 c77
-61 206 -191 237 -240 39 -61 47 -142 14 -142 -21 0 -27 9 -51 79 -19 53 -115
162 -194 221 l-47 34 -61 -13 -62 -12 -220 220 c-205 206 -219 222 -206 241
28 40 47 145 40 212 -23 215 -239 364 -450 310z m1063 -1913 l46 -46 19 26
c10 14 34 35 53 46 28 18 37 20 49 10 23 -19 18 -35 -20 -64 -48 -37 -68 -80
-70 -153 -3 -73 -30 -137 -61 -141 -30 -4 -36 20 -19 69 30 85 7 172 -59 225
-34 27 -45 52 -29 67 17 17 49 3 91 -39z"/>
<path d="M4073 4536 c-161 -53 -255 -182 -256 -351 -1 -67 4 -90 26 -140 l28
-59 -218 -217 -218 -217 -65 13 -64 14 -52 -40 c-58 -44 -140 -129 -169 -172
-10 -16 -24 -50 -30 -75 -10 -40 -16 -47 -36 -47 -20 0 -25 6 -27 32 -7 70 96
205 246 325 34 27 62 54 62 59 0 25 -48 107 -92 155 -113 123 -306 165 -461
100 l-37 -15 0 -385 0 -385 35 15 c46 19 114 19 121 -1 9 -24 -12 -42 -58 -49
-23 -4 -54 -14 -70 -24 l-28 -16 0 -483 0 -483 24 -15 c13 -9 41 -19 62 -22
71 -11 93 -35 58 -64 -15 -13 -79 -5 -126 16 -17 7 -18 -15 -18 -378 l0 -385
48 -19 c35 -13 74 -18 152 -18 99 0 109 2 173 33 85 42 156 113 198 197 28 57
30 67 18 84 -94 127 -143 215 -173 308 -21 64 -18 142 6 157 27 16 38 -3 42
-70 4 -78 38 -160 117 -279 l64 -97 61 5 62 5 197 -198 197 -197 -23 -44 c-17
-33 -24 -66 -27 -134 -5 -124 18 -187 102 -271 78 -77 143 -104 254 -104 173
1 307 106 349 274 64 262 -176 499 -437 432 -36 -9 -76 -24 -89 -32 -23 -16
-26 -14 -197 157 l-172 172 64 62 c108 105 157 248 134 392 -6 36 -15 73 -20
82 -6 11 2 27 30 57 64 70 110 180 110 267 l0 37 230 0 c186 0 230 -3 230 -13
0 -32 64 -138 106 -177 25 -23 71 -54 102 -68 48 -23 71 -27 147 -27 76 0 98
4 145 26 78 37 131 87 171 161 33 60 34 67 34 168 0 124 -17 171 -89 248 -64
68 -139 104 -231 110 -95 6 -162 -11 -233 -59 -66 -44 -112 -102 -138 -176
l-19 -53 -240 0 -240 0 -19 46 c-25 60 -107 149 -173 186 -29 16 -53 31 -53
33 0 1 9 22 19 46 69 156 35 354 -83 482 l-42 46 202 202 201 201 40 -21 c55
-27 145 -40 216 -31 304 43 412 428 179 636 -15 13 -51 36 -79 50 -65 32 -193
42 -260 20z m-940 -1926 l26 -30 46 45 c32 32 52 45 68 43 37 -5 31 -34 -16
-80 -65 -62 -83 -138 -51 -218 19 -46 13 -70 -15 -70 -31 0 -61 67 -61 136 0
66 -20 114 -64 150 -43 36 -49 50 -30 68 13 14 18 14 43 1 16 -8 40 -28 54
-45z"/>
</g>
</svg>
