<?xml version="1.0" standalone="no"?>
<!DOCTYPE svg PUBLIC "-//W3C//DTD SVG 20010904//EN" "http://www.w3.org/TR/2001/REC-SVG-20010904/DTD/svg10.dtd">
<svg version="1.0" xmlns="http://www.w3.org/2000/svg" width="512.000000pt" height="512.000000pt"
  viewBox="0 0 512.000000 512.000000" preserveAspectRatio="xMidYMid meet">

  <g transform="translate(0.000000,512.000000) scale(0.100000,-0.100000)" fill="#464646" stroke="none">
    <path d="M2255 5108 c-449 -50 -923 -248 -1289 -536 -102 -80 -316 -292 -401
-398 -234 -289 -407 -638 -495 -996 -57 -232 -65 -309 -65 -613 0 -294 6 -357
52 -565 179 -813 771 -1513 1540 -1819 322 -128 605 -181 963 -181 422 0 785
84 1144 264 272 137 480 290 696 512 393 405 636 910 705 1464 20 163 20 477
0 640 -57 457 -245 907 -532 1273 -84 107 -355 372 -464 454 -362 271 -787
443 -1229 498 -137 17 -489 19 -625 3z m461 -602 c259 -13 578 -113 829 -261
395 -232 705 -606 855 -1032 78 -219 110 -411 110 -653 0 -242 -32 -434 -110
-653 -195 -551 -645 -998 -1199 -1191 -219 -76 -403 -107 -642 -107 -525 0
-1003 199 -1377 571 -311 311 -503 702 -562 1146 -20 150 -8 472 23 614 87
397 262 723 538 999 279 279 623 462 1019 542 99 19 318 38 385 32 17 -1 76
-4 131 -7z" />
    <path d="M2355 3944 c-268 -48 -524 -178 -722 -367 -122 -117 -208 -233 -283
-379 -106 -210 -150 -395 -150 -638 0 -243 44 -428 150 -638 202 -396 575
-670 1019 -747 111 -20 344 -19 457 0 262 46 465 152 647 339 106 109 141 205
117 320 -21 102 -111 202 -203 227 -23 6 -70 11 -104 11 -87 -1 -153 -33 -234
-114 -139 -140 -255 -189 -449 -189 -129 0 -224 22 -345 81 -172 84 -281 193
-365 365 -59 122 -80 212 -80 345 0 133 21 223 80 345 84 172 193 281 365 365
55 27 133 56 174 65 82 18 239 21 316 6 97 -18 144 -38 310 -126 89 -47 90
-47 170 -43 95 5 163 35 215 94 124 142 99 349 -56 461 -129 92 -368 188 -543
217 -118 20 -375 20 -486 0z" />
  </g>
</svg>