<?xml version="1.0" standalone="no"?>
<!DOCTYPE svg PUBLIC "-//W3C//DTD SVG 20010904//EN" "http://www.w3.org/TR/2001/REC-SVG-20010904/DTD/svg10.dtd">
<svg version="1.0" xmlns="http://www.w3.org/2000/svg" width="512.000000pt" height="512.000000pt"
  viewBox="0 0 512.000000 512.000000" preserveAspectRatio="xMidYMid meet">

  <g transform="translate(0.000000,512.000000) scale(0.100000,-0.100000)" fill="#464646" stroke="none">
    <path d="M2347 5110 c-788 -71 -1482 -482 -1917 -1137 -225 -339 -352 -681
-411 -1113 -22 -154 -16 -496 10 -669 111 -730 508 -1355 1118 -1761 339 -225
681 -352 1113 -411 154 -22 496 -16 669 10 730 111 1355 508 1761 1118 225
339 352 681 411 1113 22 154 16 496 -10 669 -111 730 -508 1355 -1118 1761
-330 219 -669 347 -1073 405 -131 19 -423 27 -553 15z m593 -320 c458 -81 856
-283 1188 -604 354 -343 576 -761 663 -1251 20 -113 24 -163 24 -375 0 -212
-4 -262 -24 -375 -83 -466 -283 -860 -605 -1193 -343 -354 -761 -576 -1251
-663 -113 -20 -163 -24 -375 -24 -212 0 -262 4 -375 24 -466 83 -860 283
-1193 605 -354 343 -576 761 -663 1251 -20 113 -24 163 -24 375 0 212 4 262
24 375 82 460 281 856 596 1184 374 390 845 624 1385 690 134 17 489 6 630
-19z" />
    <path d="M3453 3680 c-39 -10 -86 -26 -105 -36 -42 -22 -111 -66 -119 -77 -3
-4 -26 1 -50 11 -116 50 -311 99 -408 104 l-64 3 -73 -164 c-40 -90 -71 -167
-69 -171 2 -4 60 -44 129 -90 75 -49 123 -87 119 -94 -3 -6 -81 -123 -172
-261 l-166 -250 -5 174 -5 173 -170 87 c-121 61 -169 90 -166 101 8 34 82 281
110 370 17 52 31 100 31 106 0 22 -209 -33 -327 -87 -24 -10 -46 -19 -49 -19
-36 0 -384 -243 -384 -268 0 -4 -17 -25 -38 -47 -21 -22 -53 -62 -72 -90 -18
-27 -38 -53 -44 -57 -40 -28 -116 23 -116 77 0 34 40 85 66 85 11 0 14 21 14
91 l0 92 -41 -7 c-77 -12 -154 -69 -192 -140 -31 -59 -31 -184 0 -242 28 -53
91 -107 143 -124 23 -8 43 -16 45 -19 1 -3 -5 -40 -16 -81 -26 -106 -26 -270
2 -381 41 -165 128 -316 261 -452 l78 -80 0 -249 0 -248 249 0 249 0 33 98
c33 101 45 125 60 116 5 -2 50 -12 101 -20 81 -14 339 -20 462 -11 29 2 30 -1
60 -90 l31 -93 253 0 252 0 0 193 0 193 33 18 c37 22 146 108 197 157 81 78
195 234 214 297 7 21 12 22 137 22 l129 0 0 350 0 350 -130 0 -129 0 -20 43
c-11 23 -28 54 -37 68 -17 26 -16 31 74 303 51 153 92 279 92 282 0 2 -87 4
-192 3 -156 0 -207 -4 -265 -19z" />
  </g>
</svg>