<?xml version="1.0" standalone="no"?>
<!DOCTYPE svg PUBLIC "-//W3C//DTD SVG 20010904//EN" "http://www.w3.org/TR/2001/REC-SVG-20010904/DTD/svg10.dtd">
<svg version="1.0" xmlns="http://www.w3.org/2000/svg" width="512.000000pt" height="512.000000pt"
  viewBox="0 0 512.000000 512.000000" preserveAspectRatio="xMidYMid meet">

  <g transform="translate(0.000000,512.000000) scale(0.100000,-0.100000)" fill="#464646" stroke="none">
    <path d="M1290 4625 c-350 -71 -644 -328 -760 -665 -50 -148 -50 -127 -50
-1397 0 -810 3 -1207 10 -1248 18 -98 67 -236 115 -319 138 -242 334 -397 610
-483 l90 -28 1255 0 1255 0 90 28 c183 57 316 135 441 261 126 125 204 258
261 441 l28 90 0 1250 c0 1196 -1 1253 -19 1320 -49 183 -132 329 -261 461
-131 134 -281 224 -460 276 l-80 23 -1230 2 c-985 1 -1243 -1 -1295 -12z
m2498 -328 c248 -67 433 -250 506 -502 20 -68 20 -97 24 -1160 2 -692 -1
-1127 -7 -1191 -35 -347 -283 -598 -624 -634 -122 -13 -2132 -13 -2254 0 -211
22 -396 131 -507 299 -75 113 -108 213 -120 366 l-6 70 320 410 c176 226 324
409 330 407 6 -1 131 -82 278 -181 147 -98 282 -185 299 -195 37 -18 114 -21
146 -5 41 21 70 55 405 478 l337 425 5 -160 c4 -124 9 -166 23 -191 49 -91
170 -116 251 -52 56 44 56 45 56 467 0 387 0 389 -23 422 -12 19 -38 43 -57
54 -34 20 -50 21 -421 21 l-385 0 -41 -27 c-51 -33 -78 -97 -70 -160 6 -48 30
-84 77 -115 31 -21 44 -23 186 -23 85 0 154 -2 154 -5 0 -13 -594 -750 -604
-749 -7 1 -135 83 -286 184 -150 100 -288 189 -306 196 -19 8 -49 14 -68 14
-77 0 -97 -19 -334 -325 -124 -159 -236 -303 -249 -319 l-24 -29 4 819 c4 910
1 872 73 1019 104 214 305 356 544 385 36 4 569 7 1185 6 1020 -2 1126 -4
1183 -19z" />
  </g>
</svg>