<?xml version="1.0" standalone="no"?>
<!DOCTYPE svg PUBLIC "-//W3C//DTD SVG 20010904//EN" "http://www.w3.org/TR/2001/REC-SVG-20010904/DTD/svg10.dtd">
<svg version="1.0" xmlns="http://www.w3.org/2000/svg" width="512.000000pt" height="512.000000pt"
  viewBox="0 0 512.000000 512.000000" preserveAspectRatio="xMidYMid meet">

  <g transform="translate(0.000000,512.000000) scale(0.100000,-0.100000)" fill="#464646" stroke="none">
    <path d="M765 5109 c-100 -14 -248 -67 -337 -122 -108 -65 -237 -196 -300
-302 -56 -94 -102 -229 -117 -338 -15 -109 -15 -3465 0 -3574 27 -196 111
-365 254 -508 143 -143 312 -227 508 -254 109 -15 3465 -15 3574 0 196 27 365
111 508 254 143 143 227 312 254 508 15 109 15 3465 0 3574 -27 196 -111 365
-254 508 -143 143 -312 227 -508 254 -95 13 -3489 13 -3582 0z m3588 -384
c177 -46 303 -165 364 -344 l22 -66 1 -1745 c0 -1913 4 -1794 -59 -1918 -59
-116 -162 -202 -300 -249 l-66 -22 -1745 -1 c-1913 0 -1794 -4 -1918 59 -116
59 -202 162 -249 300 l-22 66 -1 1745 c0 1913 -4 1794 59 1918 59 116 162 202
300 249 l66 22 1745 1 c1514 0 1753 -2 1803 -15z" />
    <path d="M2480 4263 c-105 -42 -171 -97 -210 -178 -19 -41 -24 -65 -23 -130 1
-44 3 -88 5 -98 3 -16 -44 -52 -112 -84 -17 -8 -206 -118 -230 -133 -8 -6 -22
-13 -30 -17 -8 -4 -43 -24 -78 -45 -34 -21 -64 -38 -66 -38 -3 0 -39 -20 -80
-45 l-77 -45 -49 34 c-156 108 -371 50 -462 -124 -19 -38 -23 -60 -23 -140 0
-108 17 -154 83 -224 37 -38 122 -86 155 -86 16 0 17 -24 17 -365 l0 -365 -22
0 c-11 0 -50 -16 -84 -35 -103 -58 -154 -150 -154 -279 0 -90 30 -158 99 -225
62 -61 118 -81 224 -81 65 0 88 5 131 26 28 14 63 37 78 51 l27 26 66 -42 c36
-22 68 -41 70 -41 4 0 121 -68 155 -90 8 -6 22 -13 30 -17 8 -4 58 -32 110
-63 52 -31 102 -59 110 -63 68 -32 115 -68 112 -84 -2 -10 -4 -54 -5 -98 -1
-69 2 -87 27 -135 32 -63 92 -122 156 -153 64 -31 196 -31 261 0 62 30 129 97
159 158 19 41 24 65 23 130 -1 44 -3 88 -5 98 -3 16 44 52 112 84 17 8 206
118 230 133 8 6 22 13 30 17 8 4 43 24 78 45 34 21 64 38 67 38 3 0 28 15 57
33 71 45 84 49 100 30 41 -50 132 -84 223 -84 93 0 153 22 214 81 71 68 101
135 101 226 0 128 -48 216 -151 276 -35 21 -74 38 -86 38 l-23 0 0 365 c0 341
1 365 18 365 32 0 117 48 154 86 66 70 83 116 83 224 0 80 -4 102 -23 140 -91
174 -306 232 -463 123 l-50 -34 -75 46 c-41 25 -77 45 -79 45 -3 0 -33 17 -67
38 -35 21 -70 41 -78 45 -8 4 -33 18 -55 32 -22 14 -47 28 -55 32 -8 4 -42 23
-75 43 -33 20 -67 39 -75 43 -65 31 -115 68 -112 84 2 10 4 54 5 98 1 69 -2
87 -27 135 -32 64 -92 122 -156 153 -45 21 -176 34 -210 20z m180 -128 c40
-21 87 -79 99 -122 22 -78 7 -141 -48 -198 -48 -51 -87 -69 -151 -69 -64 0
-103 18 -151 69 -58 61 -72 127 -44 206 16 45 54 92 90 112 54 29 151 30 205
2z m-312 -420 c26 -25 78 -53 135 -74 l27 -11 0 -139 0 -140 -57 -6 c-186 -21
-389 -134 -507 -282 l-49 -61 -118 56 -119 57 8 40 c9 55 6 114 -11 162 l-14
40 51 31 c28 16 78 45 111 62 33 18 67 39 76 46 8 8 19 14 22 14 4 0 36 18 72
40 36 22 67 40 69 40 6 0 231 131 241 141 15 15 35 10 63 -16z m597 -50 c69
-41 128 -75 131 -75 2 0 33 -18 69 -40 36 -22 68 -40 72 -40 3 0 14 -6 22 -14
9 -7 43 -28 76 -46 134 -72 164 -93 155 -109 -17 -34 -30 -127 -21 -162 l8
-36 -105 -62 c-59 -34 -113 -63 -122 -64 -9 -1 -36 23 -61 53 -117 143 -297
243 -485 271 l-75 12 3 139 3 140 60 24 c33 13 74 37 90 54 17 16 35 29 41 29
7 1 69 -33 139 -74z m-1532 -246 c48 -13 113 -71 133 -117 8 -19 14 -56 14
-82 0 -64 -21 -109 -69 -153 -47 -43 -105 -61 -166 -51 -121 18 -203 141 -169
255 35 117 143 180 257 148z m2448 -14 c44 -23 95 -90 106 -141 44 -194 -190
-330 -338 -197 -48 44 -69 89 -69 153 0 123 104 218 224 205 27 -4 61 -12 77
-20z m-1193 -171 c154 -31 266 -87 366 -182 62 -60 136 -172 163 -248 25 -68
53 -199 53 -244 0 -45 -28 -176 -53 -244 -27 -76 -101 -188 -163 -248 -100
-95 -212 -151 -366 -182 -96 -20 -120 -20 -216 0 -158 32 -286 99 -383 201
-97 102 -153 213 -183 365 -20 96 -20 120 0 216 33 162 101 290 205 387 102
95 196 143 344 176 101 22 137 23 233 3z m881 -244 c30 -29 74 -57 104 -68
l52 -20 3 -361 c2 -358 2 -361 -18 -361 -31 0 -100 -37 -140 -75 l-35 -33
-117 69 c-65 38 -118 74 -118 79 0 4 9 29 20 54 59 139 66 381 15 526 -15 41
-29 82 -31 91 -6 17 28 42 131 99 33 18 64 36 70 41 5 5 9 9 10 9 0 0 25 -22
54 -50z m-1826 -26 c61 -31 114 -58 116 -60 2 -2 -6 -27 -18 -55 -60 -146 -68
-382 -16 -529 15 -41 29 -82 32 -91 5 -16 -37 -47 -132 -99 -22 -12 -54 -30
-71 -41 l-31 -19 -29 31 c-33 35 -113 79 -144 79 -20 0 -20 3 -18 361 l3 361
50 19 c28 10 70 37 95 58 25 22 46 40 48 41 1 0 53 -25 115 -56z m229 -914
c114 -141 297 -244 484 -271 l75 -12 -3 -139 -3 -139 -62 -27 c-34 -15 -76
-39 -93 -54 -16 -16 -33 -28 -36 -28 -4 0 -57 29 -118 64 -62 35 -130 74 -151
86 -22 12 -88 51 -146 86 -59 35 -109 64 -112 64 -3 0 -33 16 -66 36 -64 38
-67 43 -51 111 6 27 6 60 0 94 -11 56 -8 61 50 91 14 7 52 29 85 49 63 37 86
48 96 46 3 -1 26 -27 51 -57z m1347 20 c26 -16 71 -42 101 -59 44 -24 55 -35
53 -53 -7 -80 -6 -118 1 -159 l8 -46 -44 -26 c-24 -14 -70 -40 -103 -58 -33
-18 -100 -57 -148 -86 -48 -29 -89 -53 -91 -53 -6 0 -231 -132 -241 -141 -15
-15 -35 -10 -63 16 -26 25 -78 53 -134 74 l-28 11 0 139 0 140 58 6 c183 21
388 134 502 278 50 63 53 63 129 17z m-1872 -1 c37 -13 100 -75 120 -117 11
-22 14 -52 11 -96 -7 -109 -70 -174 -178 -183 -83 -8 -132 10 -179 63 -66 75
-72 170 -15 256 46 70 161 107 241 77z m2433 -14 c121 -61 148 -211 58 -319
-122 -145 -358 -55 -358 137 0 30 7 69 17 88 18 37 71 88 112 106 46 20 117
15 171 -12z m-1211 -700 c40 -20 94 -79 108 -118 35 -96 -13 -210 -107 -255
-44 -21 -144 -21 -185 0 -90 48 -136 163 -102 254 45 116 182 173 286 119z" />
    <path d="M2474 3001 c-125 -42 -194 -132 -202 -261 -5 -82 13 -139 66 -208 26
-35 26 -39 3 -177 -5 -27 -14 -88 -21 -134 -18 -124 -24 -121 240 -121 264 0
258 -3 240 121 -7 46 -16 107 -21 134 -24 142 -24 138 14 193 49 72 60 112 55
196 -9 129 -85 222 -214 261 -62 19 -96 18 -160 -4z m172 -120 c113 -69 125
-225 23 -300 -19 -14 -29 -31 -29 -47 0 -21 15 -120 45 -286 l5 -28 -130 0
-129 0 4 28 c29 164 45 264 45 284 0 14 -17 40 -45 66 -29 28 -46 55 -51 78
-23 121 58 224 176 224 37 0 66 -6 86 -19z" />
  </g>
</svg>