<?xml version="1.0" standalone="no"?>
<!DOCTYPE svg PUBLIC "-//W3C//DTD SVG 20010904//EN" "http://www.w3.org/TR/2001/REC-SVG-20010904/DTD/svg10.dtd">
<svg version="1.0" xmlns="http://www.w3.org/2000/svg" width="512.000000pt" height="512.000000pt"
  viewBox="0 0 512.000000 512.000000" preserveAspectRatio="xMidYMid meet">

  <g transform="translate(0.000000,512.000000) scale(0.100000,-0.100000)" fill="#464646" stroke="none">
    <path d="M2355 4939 c-97 -24 -276 -109 -368 -176 -100 -74 -204 -170 -284
-265 -270 -317 -471 -781 -499 -1151 l-7 -87 89 41 c775 359 1595 384 2379 72
77 -30 167 -69 199 -85 l59 -30 -7 88 c-34 443 -310 1003 -643 1302 -163 146
-351 253 -513 292 -114 27 -293 26 -405 -1z" />
    <path d="M2310 3434 c-131 -16 -260 -38 -351 -60 -125 -30 -119 -20 -119 -175
0 -207 65 -365 210 -509 145 -145 302 -210 510 -210 208 0 365 65 510 210 145
144 210 302 210 509 0 155 6 145 -119 175 -200 48 -292 58 -561 61 -140 2
-271 1 -290 -1z" />
    <path d="M1655 3287 c-149 -47 -455 -183 -455 -202 0 -40 35 -199 61 -282 67
-210 197 -436 346 -606 l32 -37 922 0 921 0 19 23 c224 259 380 584 414 863
l6 50 -102 48 c-117 54 -223 98 -321 132 l-68 23 0 -107 c0 -139 -26 -247 -89
-377 -87 -178 -218 -309 -396 -396 -133 -65 -238 -89 -385 -89 -147 0 -252 24
-385 89 -171 84 -303 213 -389 381 -65 125 -87 211 -95 366 l-6 131 -30 -10z" />
    <path d="M1010 2604 c-144 -48 -194 -73 -280 -140 -94 -73 -178 -188 -221
-303 -11 -31 -95 -396 -186 -811 -152 -700 -164 -761 -161 -840 3 -66 9 -98
30 -142 34 -73 103 -142 176 -176 l57 -27 313 -3 c250 -2 312 0 312 10 0 7
-31 369 -69 803 -75 864 -75 852 -21 961 73 149 215 222 432 224 l57 0 -50 68
c-68 90 -138 207 -195 325 -26 53 -49 97 -53 97 -3 0 -67 -21 -141 -46z" />
    <path d="M3916 2553 c-57 -118 -127 -235 -195 -325 l-50 -68 57 0 c217 -2 359
-75 432 -224 54 -109 54 -97 -21 -961 -38 -434 -69 -796 -69 -803 0 -10 62
-12 313 -10 l312 3 57 27 c73 34 142 103 176 176 21 45 27 76 30 142 3 79 -9
140 -158 825 -88 407 -168 763 -177 790 -39 123 -124 248 -224 332 -79 64
-140 97 -269 141 -183 62 -160 67 -214 -45z" />
    <path d="M1210 1984 c-67 -29 -124 -99 -141 -174 -5 -22 16 -314 61 -830 39
-437 70 -801 70 -807 0 -10 279 -13 1360 -13 1081 0 1360 3 1360 13 0 6 31
368 69 802 44 504 66 805 62 830 -10 53 -32 93 -73 132 -70 67 29 63 -1420 63
-1150 -1 -1317 -3 -1348 -16z m1469 -490 c104 -33 192 -112 239 -212 24 -50
27 -69 27 -162 0 -93 -3 -111 -27 -163 -35 -74 -121 -160 -195 -195 -52 -24
-70 -27 -163 -27 -99 0 -110 2 -171 32 -80 39 -150 111 -187 191 -24 50 -27
69 -27 162 0 93 3 112 27 162 84 180 290 272 477 212z" />
    <path d="M2455 1341 c-87 -40 -135 -120 -135 -223 1 -142 97 -238 240 -238
144 0 240 96 240 240 0 104 -53 187 -142 224 -52 22 -153 20 -203 -3z" />
  </g>
</svg>