<?xml version="1.0" standalone="no"?>
<!DOCTYPE svg PUBLIC "-//W3C//DTD SVG 20010904//EN" "http://www.w3.org/TR/2001/REC-SVG-20010904/DTD/svg10.dtd">
<svg version="1.0" xmlns="http://www.w3.org/2000/svg" width="512.000000pt" height="512.000000pt"
  viewBox="0 0 512.000000 512.000000" preserveAspectRatio="xMidYMid meet">

  <g transform="translate(0.000000,512.000000) scale(0.100000,-0.100000)" fill="#464646" stroke="none">
    <path d="M2400 4854 c-570 -50 -1078 -282 -1465 -669 -350 -351 -574 -799
-652 -1305 -24 -158 -24 -482 0 -640 118 -767 578 -1403 1261 -1740 219 -108
449 -178 731 -221 122 -19 466 -17 605 5 766 116 1406 580 1740 1261 164 336
234 636 234 1015 0 381 -71 687 -239 1027 -332 669 -979 1137 -1725 1248 -103
15 -402 27 -490 19z m455 -349 c306 -47 619 -177 870 -362 116 -85 333 -302
418 -418 190 -257 324 -588 368 -905 19 -135 17 -410 -4 -545 -93 -600 -452
-1123 -978 -1425 -674 -386 -1519 -332 -2148 138 -95 71 -264 234 -343 329
-222 271 -370 606 -425 958 -23 148 -23 422 0 570 50 325 176 626 368 885 76
102 237 270 336 352 278 227 648 388 983 427 52 6 109 13 125 15 58 8 331 -4
430 -19z" />
    <path d="M2506 3570 c-16 -5 -40 -19 -53 -32 -55 -51 -53 -32 -53 -661 l0
-584 23 -33 c38 -57 71 -75 137 -75 66 0 99 18 138 75 l22 33 0 587 0 587 -22
33 c-13 18 -34 41 -48 52 -30 21 -104 31 -144 18z" />
    <path d="M2464 1901 c-138 -63 -163 -274 -42 -364 170 -126 397 19 348 221
-23 98 -106 162 -210 162 -32 0 -72 -8 -96 -19z" />
  </g>
</svg>