<?xml version="1.0" standalone="no"?>
<!DOCTYPE svg PUBLIC "-//W3C//DTD SVG 20010904//EN" "http://www.w3.org/TR/2001/REC-SVG-20010904/DTD/svg10.dtd">
<svg version="1.0" xmlns="http://www.w3.org/2000/svg" width="512.000000pt" height="512.000000pt"
  viewBox="0 0 512.000000 512.000000" preserveAspectRatio="xMidYMid meet">

  <g transform="translate(0.000000,512.000000) scale(0.100000,-0.100000)" fill="#464646" stroke="none">
    <path d="M1047 4862 c-38 -41 -32 -62 127 -507 l154 -430 432 0 432 0 154 430
c195 545 196 525 -16 525 l-127 0 -65 -134 c-37 -73 -77 -143 -89 -155 -25
-23 -65 -27 -90 -8 -9 7 -49 76 -88 155 l-71 142 -369 0 c-343 0 -369 -1 -384
-18z" />
    <path d="M1220 3740 c-18 -18 -20 -33 -20 -160 l0 -140 560 0 560 0 0 140 c0
127 -2 142 -20 160 -19 19 -33 20 -540 20 -507 0 -521 -1 -540 -20z" />
    <path d="M990 3266 c-143 -41 -262 -131 -337 -256 -41 -68 -333 -751 -358
-838 -46 -156 -58 -267 -52 -467 4 -143 10 -201 30 -285 70 -293 198 -523 411
-735 180 -180 371 -298 601 -373 176 -58 241 -67 475 -67 237 0 329 14 509 77
86 30 275 123 320 157 l23 18 -133 85 c-139 89 -158 110 -145 161 5 21 44 49
194 138 103 62 188 113 188 113 1 1 -14 82 -34 181 -22 113 -33 190 -29 208 6
23 29 38 157 102 l150 75 0 215 c0 245 6 275 60 294 18 6 77 11 130 11 l98 0
-17 68 c-10 37 -27 92 -38 122 -35 92 -303 703 -326 740 -63 105 -175 199
-292 242 l-60 23 -740 2 c-575 1 -750 -1 -785 -11z m1035 -511 c310 -90 555
-334 651 -650 26 -84 28 -102 28 -265 0 -163 -2 -181 -28 -265 -174 -570 -800
-848 -1331 -590 -269 130 -460 378 -520 674 -24 114 -16 324 15 430 44 153
119 286 225 400 245 262 617 365 960 266z" />
    <path d="M1680 2476 l0 -84 -29 -7 c-41 -9 -116 -65 -151 -112 -42 -57 -60
-115 -60 -194 0 -90 28 -165 84 -223 58 -59 110 -84 203 -97 43 -6 91 -18 108
-28 133 -77 78 -281 -75 -281 -74 0 -150 64 -150 128 0 21 -4 22 -85 22 l-85
0 0 -34 c0 -46 24 -110 60 -159 35 -47 110 -103 151 -112 l29 -7 0 -84 0 -84
80 0 80 0 0 84 0 84 29 7 c41 9 116 65 151 112 42 57 60 115 60 194 0 90 -28
165 -84 223 -58 59 -110 84 -203 97 -43 6 -91 18 -108 28 -133 77 -78 281 75
281 74 0 150 -64 150 -127 0 -22 4 -23 85 -23 l85 0 0 34 c0 46 -24 110 -60
159 -35 47 -110 103 -151 112 l-29 7 0 84 0 84 -80 0 -80 0 0 -84z" />
    <path d="M3735 2221 c-87 -40 -135 -120 -135 -223 1 -142 97 -238 240 -238
144 0 240 96 240 240 0 104 -53 187 -142 224 -52 22 -153 20 -203 -3z" />
    <path d="M3120 1615 c0 -135 -4 -140 -169 -224 -96 -49 -141 -77 -141 -88 0
-10 14 -89 32 -178 19 -97 29 -171 25 -187 -5 -20 -25 -38 -72 -65 -35 -21
-63 -42 -62 -48 6 -17 80 -27 179 -22 85 3 105 8 173 40 252 120 348 415 218
671 -26 51 -120 153 -161 175 l-22 12 0 -86z" />
    <path d="M4353 1586 c-101 -33 -190 -113 -241 -216 -25 -50 -27 -65 -27 -170
0 -107 2 -119 29 -175 38 -77 114 -153 191 -191 56 -27 68 -29 175 -29 107 0
119 2 175 29 77 38 153 114 191 191 27 56 29 68 29 175 0 107 -2 119 -29 175
-38 77 -114 153 -191 190 -52 26 -72 30 -160 32 -64 2 -115 -2 -142 -11z" />
    <path d="M3655 621 c-87 -40 -135 -120 -135 -223 1 -142 97 -238 240 -238 144
0 240 96 240 240 0 104 -53 187 -142 224 -52 22 -153 20 -203 -3z" />
  </g>
</svg>