<?xml version="1.0" standalone="no"?>
<!DOCTYPE svg PUBLIC "-//W3C//DTD SVG 20010904//EN" "http://www.w3.org/TR/2001/REC-SVG-20010904/DTD/svg10.dtd">
<svg version="1.0" xmlns="http://www.w3.org/2000/svg" width="512.000000pt" height="512.000000pt"
  viewBox="0 0 512.000000 512.000000" preserveAspectRatio="xMidYMid meet">

  <g transform="translate(0.000000,512.000000) scale(0.100000,-0.100000)" fill="#464646" stroke="none">
    <path d="M2445 5095 c-49 -13 -117 -33 -150 -45 -33 -12 -130 -46 -215 -75
-85 -29 -281 -97 -435 -150 -154 -53 -311 -107 -350 -120 -38 -13 -182 -62
-320 -110 -137 -48 -290 -100 -340 -117 -103 -34 -140 -65 -130 -107 4 -14 11
-31 17 -38 14 -17 278 -207 300 -215 11 -5 127 30 325 98 514 176 1173 403
1268 437 140 50 197 46 405 -27 91 -32 190 -66 220 -76 30 -10 179 -61 330
-113 432 -149 913 -314 936 -321 23 -7 76 25 252 155 85 63 92 72 92 103 0 53
-25 71 -155 114 -66 22 -185 63 -265 90 -570 197 -743 257 -1035 357 -181 62
-350 121 -375 130 -72 26 -201 55 -245 54 -22 0 -80 -11 -130 -24z" />
    <path d="M1965 4174 c-873 -304 -857 -297 -913 -355 -18 -18 -38 -51 -45 -74
-9 -30 -12 -235 -12 -840 0 -750 1 -803 18 -828 13 -21 25 -27 52 -27 44 0
302 103 321 127 11 15 13 133 14 651 0 674 0 673 48 716 12 10 92 43 179 73
87 30 208 72 268 93 61 21 202 71 315 110 112 39 212 78 222 87 16 14 18 35
18 190 0 160 -2 175 -20 193 -11 11 -32 20 -47 20 -16 -1 -203 -62 -418 -136z" />
    <path d="M2725 4290 c-18 -20 -20 -37 -20 -191 0 -155 2 -170 20 -188 12 -12
216 -88 495 -185 340 -119 481 -172 498 -190 13 -13 28 -43 33 -67 4 -24 8
-322 9 -662 0 -598 1 -618 19 -634 32 -27 271 -123 307 -123 48 0 71 28 79 92
3 29 5 395 3 813 -3 856 1 810 -80 880 -40 34 -160 87 -293 130 -66 22 -188
64 -740 258 -262 91 -301 99 -330 67z" />
    <path d="M304 4112 c-33 -22 -34 -43 -34 -1094 0 -1133 0 -1132 56 -1310 100
-317 364 -642 776 -956 248 -190 639 -424 1141 -686 136 -70 155 -74 190 -34
15 18 17 43 17 195 0 96 -4 183 -10 193 -5 10 -72 51 -147 91 -303 159 -502
274 -703 407 -474 313 -761 611 -864 899 l-31 88 -5 991 c-4 792 -8 994 -18
1007 -7 8 -76 61 -153 116 -109 79 -147 101 -172 101 -17 0 -37 -4 -43 -8z" />
    <path d="M4695 4057 c-133 -91 -205 -148 -215 -168 -6 -11 -10 -389 -10 -976
0 -1080 4 -1015 -79 -1188 -124 -259 -389 -521 -811 -801 -181 -121 -313 -198
-615 -359 -115 -62 -220 -122 -232 -133 -22 -21 -23 -27 -23 -205 0 -163 2
-186 18 -199 40 -36 57 -32 199 43 648 340 1018 575 1329 842 325 280 536 593
607 901 20 89 21 117 24 1172 l4 1080 -21 27 c-35 44 -71 37 -175 -36z" />
    <path d="M2465 3582 c-58 -15 -374 -123 -478 -164 -15 -6 -35 -24 -43 -40 -21
-41 -3 -72 71 -125 193 -139 230 -163 253 -163 14 0 73 16 131 37 144 49 215
49 360 -1 58 -20 117 -36 132 -36 38 0 317 202 325 236 10 38 -4 72 -34 87
-15 8 -135 51 -267 96 -276 93 -334 102 -450 73z" />
    <path d="M1730 3070 c-19 -19 -20 -33 -20 -383 0 -390 2 -413 55 -518 51 -99
147 -195 365 -360 191 -144 256 -173 299 -130 20 20 21 31 21 199 0 203 7 187
-100 252 -67 42 -173 141 -209 195 l-26 40 -3 252 -3 252 -42 33 c-23 18 -90
68 -151 111 -117 83 -150 93 -186 57z" />
    <path d="M3293 3048 c-144 -100 -224 -161 -238 -181 -12 -18 -15 -63 -15 -262
l0 -241 -28 -45 c-37 -57 -128 -140 -217 -197 -38 -25 -73 -50 -77 -56 -4 -6
-8 -91 -8 -189 0 -164 1 -178 20 -197 11 -11 32 -20 47 -20 50 0 174 82 399
266 120 98 170 153 212 231 58 110 62 144 62 535 0 343 -1 355 -20 376 -31 33
-68 27 -137 -20z" />
    <path d="M1420 1908 c-25 -11 -87 -38 -139 -59 -99 -41 -120 -58 -121 -100 0
-30 16 -52 114 -163 207 -232 596 -506 1016 -716 168 -84 197 -93 290 -93 93
0 121 9 290 93 368 184 726 427 941 640 175 173 213 234 177 283 -14 17 -295
137 -323 137 -9 0 -55 -39 -103 -87 -147 -148 -335 -291 -559 -427 -194 -117
-376 -206 -423 -206 -91 0 -553 267 -785 454 -33 27 -110 97 -171 157 -122
120 -128 122 -204 87z" />
  </g>
</svg>