<?xml version="1.0" standalone="no"?>
<!DOCTYPE svg PUBLIC "-//W3C//DTD SVG 20010904//EN" "http://www.w3.org/TR/2001/REC-SVG-20010904/DTD/svg10.dtd">
<svg version="1.0" xmlns="http://www.w3.org/2000/svg" width="512.000000pt" height="512.000000pt"
  viewBox="0 0 512.000000 512.000000" preserveAspectRatio="xMidYMid meet">

  <g transform="translate(0.000000,512.000000) scale(0.100000,-0.100000)" fill="#464646" stroke="none">
    <path d="M977 5104 c-475 -86 -859 -464 -956 -941 -21 -99 -21 -127 -21 -1603
0 -1476 0 -1504 21 -1603 86 -422 389 -763 800 -901 168 -56 161 -56 1297 -56
l1045 0 43 25 c124 73 128 271 7 347 l-38 23 -1035 5 c-1174 6 -1101 1 -1285
90 -172 84 -281 193 -365 365 -91 188 -85 64 -85 1705 0 1641 -6 1517 85 1705
84 172 193 281 365 365 188 91 63 85 1710 85 l1450 0 89 -23 c48 -12 127 -42
175 -67 163 -84 271 -195 351 -360 89 -184 84 -109 90 -1297 l5 -1046 31 -39
c87 -109 241 -109 328 0 l31 39 3 1069 c2 1048 2 1072 -18 1172 -98 480 -484
858 -964 942 -77 13 -281 15 -1585 14 -1244 -1 -1509 -3 -1574 -15z" />
    <path d="M1132 4104 c-93 -47 -137 -128 -130 -244 5 -87 42 -151 112 -195 45
-27 57 -30 136 -30 79 0 91 3 136 30 30 19 60 49 79 79 27 45 30 57 30 136 0
79 -3 91 -30 136 -46 74 -109 108 -204 112 -66 3 -83 0 -129 -24z" />
    <path d="M1983 4034 c-62 -37 -93 -95 -93 -174 0 -80 31 -138 94 -175 l43 -25
978 0 978 0 43 25 c63 37 94 95 94 175 0 80 -31 138 -94 175 l-43 25 -979 0
-979 0 -42 -26z" />
    <path d="M1093 3234 c-62 -37 -93 -95 -93 -174 0 -80 31 -138 94 -175 l43 -25
1423 0 1423 0 43 25 c63 37 94 95 94 175 0 80 -31 138 -94 175 l-43 25 -1424
0 -1424 0 -42 -26z" />
    <path d="M1093 2434 c-62 -37 -93 -95 -93 -174 0 -80 31 -138 94 -175 l43 -25
423 0 423 0 43 25 c63 37 94 95 94 175 0 80 -31 138 -94 175 l-43 25 -424 0
-424 0 -42 -26z" />
    <path d="M2753 2434 c-59 -35 -93 -95 -93 -165 0 -82 126 -694 167 -812 52
-150 123 -283 221 -412 61 -80 787 -812 880 -886 136 -109 280 -159 462 -159
178 0 322 48 457 154 176 138 273 342 273 576 0 182 -50 326 -159 462 -95 119
-835 845 -926 909 -110 78 -251 151 -371 192 -120 42 -732 167 -814 167 -41 0
-66 -7 -97 -26z m560 -474 c227 -47 343 -95 487 -201 96 -71 853 -834 881
-889 20 -38 24 -60 24 -140 0 -80 -4 -102 -23 -138 -63 -118 -166 -182 -292
-182 -137 0 -138 1 -601 466 -223 225 -422 432 -441 459 -96 137 -143 255
-188 472 -16 82 -32 158 -35 171 -5 19 -2 22 17 17 13 -3 89 -19 171 -35z" />
  </g>
</svg>