<?xml version="1.0" standalone="no"?>
<!DOCTYPE svg PUBLIC "-//W3C//DTD SVG 20010904//EN" "http://www.w3.org/TR/2001/REC-SVG-20010904/DTD/svg10.dtd">
<svg version="1.0" xmlns="http://www.w3.org/2000/svg" width="512.000000pt" height="512.000000pt"
  viewBox="0 0 512.000000 512.000000" preserveAspectRatio="xMidYMid meet">

  <g transform="translate(0.000000,512.000000) scale(0.100000,-0.100000)" fill="#464646" stroke="none">
    <path d="M1145 5109 c-320 -34 -483 -65 -665 -126 -245 -82 -395 -186 -456
-317 l-24 -51 0 -1235 0 -1235 24 -52 c92 -196 421 -351 904 -423 l82 -12 -77
-46 c-97 -57 -176 -135 -211 -209 l-27 -58 0 -415 0 -415 28 -57 c73 -148 301
-285 603 -362 508 -128 1238 -130 1743 -5 382 94 611 246 650 430 6 27 11 130
11 229 l0 178 98 6 c691 44 1152 211 1268 459 l24 52 0 1121 0 1121 -31 62
c-104 208 -482 360 -1054 423 -165 18 -741 16 -892 -4 l-111 -14 -4 235 c-4
256 -6 264 -67 348 -125 172 -505 310 -1003 363 -197 21 -652 26 -813 9z m682
-239 c171 -14 403 -53 538 -92 199 -56 370 -142 408 -207 16 -28 17 -33 2 -61
-62 -120 -442 -250 -861 -295 -180 -20 -575 -22 -754 -5 -154 14 -324 43 -453
76 -140 35 -179 49 -293 104 -106 51 -174 110 -174 152 0 57 148 149 345 213
171 56 364 91 655 118 86 9 471 6 587 -3z m-1510 -705 c93 -47 283 -108 433
-139 665 -136 1493 -79 1949 135 46 21 85 39 87 39 2 0 4 -22 4 -49 l0 -49
-52 -12 c-104 -24 -245 -73 -333 -115 -215 -102 -315 -224 -315 -380 l0 -52
-82 -11 c-268 -37 -740 -41 -968 -8 -386 56 -675 154 -769 262 l-31 35 0 189
c0 105 2 190 4 190 3 0 35 -16 73 -35z m3738 -239 c384 -51 668 -143 786 -256
50 -48 51 -75 2 -122 -152 -147 -545 -252 -1038 -279 -541 -29 -1098 63 -1360
224 -61 37 -115 93 -115 118 0 19 75 91 125 119 163 93 460 172 750 200 61 5
128 12 150 14 91 9 596 -4 700 -18z m-3755 -451 c167 -85 422 -153 705 -190
328 -42 779 -38 1058 10 l27 5 0 -285 0 -285 -22 -5 c-13 -2 -86 -12 -163 -22
-171 -21 -602 -23 -775 -4 -402 44 -738 150 -856 268 l-34 34 0 249 c0 138 2
250 5 250 3 0 28 -11 55 -25z m2108 -239 c201 -101 544 -178 917 -206 557 -41
1175 48 1507 216 l48 24 0 -189 0 -190 -31 -36 c-95 -107 -378 -205 -764 -262
-158 -23 -673 -29 -860 -9 -381 40 -675 126 -833 245 -58 43 -62 61 -62 261 0
99 2 180 5 180 3 0 36 -15 73 -34z m-1958 -639 c161 -60 381 -107 650 -139
159 -19 671 -16 838 5 74 9 138 17 143 17 5 0 9 -121 9 -284 l0 -283 -87 -11
c-291 -37 -717 -41 -958 -8 -380 52 -687 157 -779 267 l-26 31 0 249 0 249 58
-29 c31 -16 100 -44 152 -64z m1971 -66 c290 -134 693 -204 1184 -204 496 -1
932 76 1197 209 37 19 70 34 73 34 3 0 5 -85 5 -189 l0 -189 -26 -31 c-95
-114 -429 -224 -824 -273 -141 -17 -699 -17 -840 0 -348 43 -632 127 -784 231
-72 50 -76 63 -76 271 0 99 2 180 4 180 2 0 41 -18 87 -39z m-55 -678 c-6 -6
-36 9 -36 18 0 5 9 4 20 -3 10 -7 18 -14 16 -15z m2514 -175 l0 -191 -38 -36
c-142 -135 -577 -250 -1033 -274 l-76 -4 -5 92 c-4 80 -9 100 -39 154 -35 67
-106 136 -184 182 l-45 26 191 1 c215 1 374 14 564 43 229 36 467 104 595 170
30 15 58 28 63 29 4 0 7 -86 7 -192z m-2200 -81 c309 -45 537 -109 682 -194
120 -70 146 -124 87 -182 -113 -113 -423 -214 -809 -263 -141 -18 -717 -18
-860 0 -154 19 -381 66 -490 102 -201 66 -350 159 -350 220 0 61 149 154 350
220 114 37 347 85 485 99 55 6 116 13 135 15 89 10 670 -3 770 -17z m-1670
-687 c476 -240 1480 -287 2140 -99 58 17 152 50 210 75 58 24 111 44 118 44
10 0 13 -39 10 -184 l-3 -185 -35 -36 c-113 -117 -432 -220 -825 -267 -149
-18 -684 -17 -830 0 -396 49 -726 156 -824 268 l-31 35 0 189 c0 105 2 190 5
190 3 0 32 -13 65 -30z" />
  </g>
</svg>