<?xml version="1.0" standalone="no"?>
<!DOCTYPE svg PUBLIC "-//W3C//DTD SVG 20010904//EN" "http://www.w3.org/TR/2001/REC-SVG-20010904/DTD/svg10.dtd">
<svg version="1.0" xmlns="http://www.w3.org/2000/svg" width="512.000000pt" height="512.000000pt"
  viewBox="0 0 512.000000 512.000000" preserveAspectRatio="xMidYMid meet">

  <g transform="translate(0.000000,512.000000) scale(0.100000,-0.100000)" fill="#464646" stroke="none">
    <path d="M4409 4600 c-237 -38 -434 -218 -494 -455 -40 -159 -1 -361 98 -501
l31 -44 -26 -27 c-25 -28 -389 -435 -394 -442 -2 -2 -21 8 -43 22 -290 192
-705 78 -860 -237 -31 -64 -61 -163 -61 -203 l0 -23 -202 2 -202 3 -12 40
c-32 109 -102 217 -185 288 -50 44 -157 100 -226 120 -279 82 -588 -54 -711
-313 -22 -47 -45 -109 -51 -138 -14 -68 -14 -196 0 -264 16 -77 69 -185 122
-251 l47 -57 -171 -234 -171 -234 -53 24 c-314 144 -697 -22 -817 -353 -29
-82 -36 -264 -13 -352 50 -195 205 -364 388 -425 233 -78 495 -10 655 170 197
221 203 556 14 790 l-49 60 168 230 c93 126 174 228 181 227 7 -1 47 -15 88
-30 68 -25 88 -28 205 -27 110 0 140 3 195 23 221 78 383 275 407 494 l6 57
197 0 197 0 13 -47 c54 -202 217 -374 415 -435 104 -32 252 -30 360 5 195 64
348 227 399 424 41 159 6 365 -85 495 -11 14 -19 31 -19 37 0 7 95 117 210
245 l211 234 67 -35 c87 -44 166 -62 274 -63 115 0 175 13 277 62 157 75 284
237 322 410 20 93 8 238 -28 330 -91 233 -301 388 -542 402 -42 3 -101 1 -132
-4z m206 -154 c203 -54 345 -234 345 -436 0 -121 -47 -236 -132 -322 -182
-185 -461 -186 -643 -3 -180 179 -180 460 0 640 114 113 282 161 430 121z
m-1234 -1360 c233 -71 373 -295 325 -522 -18 -90 -51 -155 -111 -222 -180
-200 -483 -201 -669 -2 -266 284 -61 756 329 759 44 1 101 -5 126 -13z m-1586
-86 c80 -28 134 -61 189 -116 170 -173 175 -440 12 -621 -218 -241 -603 -188
-743 103 -65 135 -65 263 1 398 76 159 227 254 402 255 56 1 99 -5 139 -19z
m-1131 -1420 c92 -15 179 -61 249 -132 141 -143 174 -332 89 -511 -179 -378
-723 -332 -848 72 -20 64 -19 191 1 252 63 188 234 321 420 328 17 0 56 -3 89
-9z" />
    <path d="M4384 4309 c-143 -54 -232 -216 -204 -366 19 -106 81 -191 175 -241
45 -24 61 -27 150 -27 89 0 106 3 150 27 62 32 130 104 158 166 16 35 21 68
22 127 0 71 -4 88 -33 147 -60 122 -166 189 -300 187 -42 0 -86 -8 -118 -20z
m169 -130 c116 -32 170 -172 104 -271 -68 -100 -194 -114 -278 -29 -96 96 -61
251 68 296 47 17 58 18 106 4z" />
    <path d="M3147 2955 c-60 -23 -125 -75 -162 -130 -112 -169 -48 -397 135 -484
47 -22 69 -26 145 -26 106 0 160 22 231 92 68 69 89 122 89 228 0 76 -4 98
-27 147 -31 66 -91 128 -156 160 -58 29 -195 36 -255 13z m191 -146 c29 -15
54 -37 74 -68 26 -40 29 -53 26 -103 -6 -88 -61 -151 -151 -172 -65 -15 -165
42 -193 111 -28 67 -10 149 43 199 60 57 128 68 201 33z" />
    <path d="M1573 2885 c-233 -65 -322 -352 -166 -534 164 -192 475 -138 564 98
28 75 23 185 -12 256 -70 144 -238 222 -386 180z m189 -171 c78 -55 100 -170
47 -249 -26 -39 -107 -85 -149 -85 -42 0 -123 46 -149 85 -66 97 -15 239 98
276 42 13 112 1 153 -27z" />
    <path d="M499 1446 c-89 -26 -166 -92 -210 -183 -36 -71 -34 -196 2 -274 49
-104 132 -168 245 -188 180 -33 355 90 383 270 11 66 -2 157 -30 211 -67 132
-244 206 -390 164z m188 -163 c111 -72 114 -229 6 -303 -51 -35 -144 -35 -195
-1 -154 106 -88 331 97 331 38 0 61 -7 92 -27z" />
  </g>
</svg>