<?xml version="1.0" standalone="no"?>
<!DOCTYPE svg PUBLIC "-//W3C//DTD SVG 20010904//EN" "http://www.w3.org/TR/2001/REC-SVG-20010904/DTD/svg10.dtd">
<svg version="1.0" xmlns="http://www.w3.org/2000/svg" width="512.000000pt" height="512.000000pt"
  viewBox="0 0 512.000000 512.000000" preserveAspectRatio="xMidYMid meet">

  <g transform="translate(0.000000,512.000000) scale(0.100000,-0.100000)" fill="#ffffff" stroke="none">
    <path d="M1632 4623 c-61 -30 -98 -102 -85 -167 6 -30 227 -583 237 -594 3 -2
54 4 113 14 97 17 165 19 663 19 498 0 566 -2 663 -19 59 -10 109 -17 111 -15
1 2 55 135 119 294 78 192 117 303 117 328 0 99 -94 172 -197 152 -27 -5 -56
-25 -108 -75 -99 -97 -162 -124 -280 -125 -117 0 -175 26 -278 124 -63 59 -81
70 -120 76 -67 10 -103 -7 -183 -84 -110 -107 -235 -143 -370 -106 -70 19
-170 84 -200 130 -38 58 -135 81 -202 48z" />
    <path d="M2020 3573 c-303 -35 -554 -155 -760 -363 -169 -169 -277 -370 -331
-618 -20 -92 -22 -129 -26 -682 -5 -612 0 -741 36 -855 28 -88 48 -132 98
-209 106 -164 273 -283 474 -338 l84 -23 965 0 965 0 80 23 c160 45 279 116
387 230 83 88 137 180 180 302 l33 95 0 685 c0 741 0 739 -56 912 -60 184
-151 331 -298 479 -148 149 -289 239 -472 300 -184 62 -184 62 -779 64 -300 1
-561 1 -580 -2z m92 -865 c50 -15 123 -79 150 -131 28 -57 35 -142 14 -203
-21 -65 -62 -113 -125 -147 -173 -95 -375 15 -389 212 -3 54 0 76 18 119 26
60 100 133 152 149 45 15 133 15 180 1z m948 -220 c27 -14 50 -36 62 -58 20
-39 24 -110 7 -143 -16 -31 -898 -915 -931 -933 -35 -18 -101 -18 -137 1 -70
35 -104 118 -81 192 10 30 108 134 454 482 295 297 454 449 481 462 53 25 92
24 145 -3z m111 -844 c101 -30 189 -148 189 -254 0 -91 -71 -199 -157 -240
-99 -46 -241 -17 -309 63 -128 151 -61 383 125 433 63 17 88 17 152 -2z" />
  </g>
</svg>