<?xml version="1.0" standalone="no"?>
<!DOCTYPE svg PUBLIC "-//W3C//DTD SVG 20010904//EN" "http://www.w3.org/TR/2001/REC-SVG-20010904/DTD/svg10.dtd">
<svg version="1.0" xmlns="http://www.w3.org/2000/svg" width="512.000000pt" height="512.000000pt"
  viewBox="0 0 512.000000 512.000000" preserveAspectRatio="xMidYMid meet">

  <g transform="translate(0.000000,512.000000) scale(0.100000,-0.100000)" fill="#ffffff" stroke="none">
    <path d="M2188 5099 c-57 -29 -78 -79 -78 -183 l0 -86 -62 -31 c-35 -18 -89
-49 -121 -71 l-58 -39 -72 42 c-91 53 -140 60 -196 28 -44 -25 -41 -19 -279
-435 -51 -88 -95 -176 -99 -196 -4 -27 1 -49 16 -82 18 -37 36 -53 99 -90 l77
-45 -1 -141 -1 -142 -76 -45 c-89 -52 -124 -105 -114 -171 6 -32 126 -251 285
-518 88 -149 149 -166 289 -85 l72 42 58 -39 c32 -22 86 -53 121 -71 l62 -31
0 -86 c0 -105 21 -154 80 -184 37 -19 58 -20 370 -20 312 0 333 1 370 20 59
30 80 79 80 184 l0 86 63 31 c34 18 88 49 120 71 l58 39 72 -42 c140 -81 201
-64 289 85 159 267 279 486 285 518 4 27 -1 49 -17 83 -18 38 -35 53 -98 89
l-75 44 0 142 0 143 59 33 c104 59 143 116 130 188 -3 17 -75 151 -159 296
-190 329 -173 304 -220 330 -54 31 -104 23 -194 -29 l-72 -42 -58 39 c-32 22
-86 53 -120 71 l-63 31 0 86 c0 105 -21 154 -80 184 -37 19 -58 20 -372 20
-312 -1 -335 -2 -370 -21z m464 -890 c86 -19 158 -59 223 -124 259 -258 118
-695 -244 -757 -141 -24 -281 22 -386 127 -178 177 -178 454 -1 630 111 111
258 156 408 124z" />
    <path d="M485 3082 c-409 -206 -431 -219 -452 -257 -13 -22 -23 -56 -23 -75 0
-19 10 -53 23 -75 21 -39 54 -56 1255 -657 1009 -506 1240 -618 1272 -618 32
0 263 112 1272 617 1201 602 1234 619 1255 658 29 51 29 99 0 150 -21 38 -43
51 -452 257 -236 119 -435 217 -440 218 -6 0 -24 -26 -39 -57 -16 -32 -98
-179 -184 -328 -170 -296 -213 -350 -319 -404 -99 -49 -200 -61 -319 -36 -30
7 -32 6 -48 -46 -49 -150 -179 -265 -334 -298 -72 -15 -713 -15 -784 0 -154
33 -285 150 -334 300 -16 49 -18 51 -48 44 -167 -35 -335 12 -438 124 -40 42
-318 508 -384 644 -15 31 -33 57 -39 57 -5 -1 -203 -99 -440 -218z" />
    <path d="M115 2196 c-68 -37 -105 -89 -105 -146 0 -19 10 -53 23 -75 21 -39
54 -56 1255 -657 1009 -506 1240 -618 1272 -618 32 0 263 112 1272 617 1201
602 1234 619 1255 658 48 86 17 167 -86 223 l-64 35 -1116 -557 c-1244 -620
-1180 -593 -1333 -568 -66 10 -181 65 -1186 567 -612 305 -1116 555 -1120 555
-4 0 -34 -15 -67 -34z" />
    <path d="M115 1496 c-68 -37 -105 -89 -105 -146 0 -19 10 -53 23 -75 21 -39
54 -56 1255 -658 1009 -505 1240 -617 1272 -617 32 0 263 112 1272 617 1201
602 1234 619 1255 658 48 86 17 167 -86 223 l-64 35 -1116 -557 c-1244 -620
-1180 -593 -1333 -568 -66 10 -181 65 -1186 567 -612 305 -1116 555 -1120 555
-4 0 -34 -15 -67 -34z" />
  </g>
</svg>