<?xml version="1.0" standalone="no"?>
<!DOCTYPE svg PUBLIC "-//W3C//DTD SVG 20010904//EN" "http://www.w3.org/TR/2001/REC-SVG-20010904/DTD/svg10.dtd">
<svg version="1.0" xmlns="http://www.w3.org/2000/svg" width="512.000000pt" height="512.000000pt"
  viewBox="0 0 512.000000 512.000000" preserveAspectRatio="xMidYMid meet">

  <g transform="translate(0.000000,512.000000) scale(0.100000,-0.100000)" fill="#464646" stroke="none">
    <path d="M2653 4863 c-10 -4 -13 -124 -13 -554 l0 -549 35 0 c19 0 35 -4 35
-10 0 -6 28 -10 63 -10 40 0 70 -5 83 -15 10 -8 34 -15 52 -15 17 0 32 -4 32
-10 0 -5 10 -10 23 -10 12 0 31 -7 41 -15 11 -8 30 -15 43 -15 13 0 23 -4 23
-9 0 -5 11 -12 25 -15 14 -4 25 -11 25 -16 0 -6 9 -10 20 -10 12 0 31 -11 44
-25 13 -14 28 -25 35 -25 6 0 11 -4 11 -10 0 -5 10 -12 23 -15 13 -4 31 -17
41 -31 22 -28 86 -35 86 -9 0 8 5 15 11 15 14 0 39 25 39 39 0 6 5 11 11 11
14 0 39 25 39 39 0 6 5 11 11 11 14 0 39 25 39 39 0 6 7 11 15 11 8 0 15 5 15
11 0 14 25 39 39 39 6 0 11 5 11 11 0 14 25 39 39 39 6 0 11 7 11 15 0 8 7 15
15 15 8 0 15 5 15 11 0 14 25 39 39 39 6 0 11 5 11 11 0 14 25 39 39 39 6 0
11 5 11 11 0 14 25 39 39 39 6 0 11 5 11 11 0 14 25 39 39 39 6 0 11 7 11 15
0 8 5 15 11 15 14 0 39 25 39 39 0 6 7 11 15 11 8 0 15 5 15 11 0 14 25 39 39
39 6 0 11 7 11 15 0 8 5 15 11 15 14 0 39 25 39 39 0 6 5 11 11 11 13 0 39 25
39 38 0 6 6 13 13 16 10 5 10 7 0 12 -7 3 -13 12 -13 20 0 8 -5 14 -11 14 -6
0 -17 6 -24 13 -33 29 -45 37 -55 37 -5 0 -10 7 -10 15 0 8 -7 15 -15 15 -8 0
-15 5 -15 10 0 6 -7 10 -15 10 -8 0 -25 11 -39 25 -14 14 -30 25 -36 25 -5 0
-10 7 -10 15 0 9 -9 15 -25 15 -16 0 -25 6 -25 15 0 8 -7 15 -15 15 -8 0 -15
5 -15 10 0 6 -6 10 -14 10 -18 0 -73 29 -100 53 -11 10 -31 20 -43 23 -13 4
-23 10 -23 15 0 5 -9 9 -20 9 -11 0 -23 7 -26 15 -4 8 -17 15 -30 15 -13 0
-24 4 -24 10 0 5 -16 12 -35 16 -19 3 -35 10 -35 15 0 5 -12 9 -26 9 -14 0
-32 7 -40 15 -9 8 -26 15 -40 15 -13 0 -24 5 -24 10 0 6 -11 10 -24 10 -13 0
-37 7 -52 15 -16 8 -41 15 -56 15 -16 0 -28 5 -28 10 0 6 -22 10 -49 10 -31 0
-55 6 -65 15 -9 9 -33 15 -64 15 -28 0 -52 4 -54 9 -3 9 -266 23 -285 14z" />
    <path d="M2100 4590 c0 -5 -18 -10 -40 -10 -22 0 -40 -4 -40 -9 0 -5 -22 -12
-50 -16 -27 -4 -50 -11 -50 -16 0 -5 -16 -9 -35 -9 -19 0 -35 -4 -35 -9 0 -5
-13 -12 -30 -16 -16 -4 -30 -11 -30 -16 0 -5 -15 -9 -34 -9 -21 0 -36 -6 -40
-15 -3 -8 -17 -15 -31 -15 -14 0 -25 -4 -25 -10 0 -5 -9 -10 -20 -10 -11 0
-23 -7 -26 -15 -4 -8 -17 -15 -30 -15 -13 0 -24 -4 -24 -9 0 -5 -11 -12 -25
-15 -14 -4 -25 -11 -25 -16 0 -6 -7 -10 -15 -10 -8 0 -15 -4 -15 -10 0 -5 -11
-12 -25 -16 -14 -3 -25 -10 -25 -15 0 -5 -7 -9 -15 -9 -9 0 -26 -11 -39 -25
-13 -14 -28 -25 -35 -25 -6 0 -11 -4 -11 -9 0 -5 -10 -13 -22 -17 -12 -3 -36
-22 -54 -40 -17 -19 -36 -34 -43 -34 -6 0 -11 -7 -11 -15 0 -8 -5 -15 -11 -15
-6 0 -17 -6 -24 -12 -33 -30 -45 -38 -55 -38 -5 0 -10 -5 -10 -11 0 -14 -25
-39 -39 -39 -6 0 -11 -5 -11 -11 0 -6 -6 -17 -12 -24 -30 -33 -38 -45 -38 -55
0 -5 -7 -10 -15 -10 -8 0 -15 -5 -15 -11 0 -7 -15 -26 -34 -43 -18 -18 -37
-42 -40 -54 -4 -12 -12 -22 -17 -22 -5 0 -9 -5 -9 -11 0 -7 -11 -22 -25 -35
-14 -13 -25 -30 -25 -39 0 -8 -4 -15 -9 -15 -5 0 -12 -11 -15 -25 -4 -14 -11
-25 -16 -25 -6 0 -10 -7 -10 -15 0 -8 -4 -15 -10 -15 -5 0 -12 -11 -16 -25 -3
-14 -10 -25 -15 -25 -5 0 -9 -11 -9 -25 0 -16 -6 -25 -15 -25 -9 0 -15 -9 -15
-25 0 -14 -4 -25 -10 -25 -5 0 -10 -11 -10 -25 0 -14 -7 -28 -15 -31 -9 -4
-15 -19 -15 -40 0 -19 -4 -34 -9 -34 -5 0 -12 -13 -16 -30 -4 -16 -11 -30 -16
-30 -5 0 -9 -16 -9 -35 0 -19 -4 -35 -9 -35 -5 0 -12 -22 -16 -50 -4 -27 -11
-50 -16 -50 -5 0 -9 -18 -9 -39 0 -22 -5 -41 -11 -43 -6 -2 -13 -41 -16 -91
-3 -48 -10 -87 -14 -87 -5 0 -9 -126 -9 -280 0 -154 4 -280 9 -280 4 0 11 -39
14 -87 3 -50 10 -89 16 -91 6 -2 11 -21 11 -43 0 -21 4 -39 9 -39 5 0 12 -22
16 -50 4 -27 11 -50 16 -50 5 0 9 -16 9 -35 0 -19 4 -35 9 -35 5 0 12 -14 16
-30 4 -17 11 -30 16 -30 5 0 9 -15 9 -34 0 -21 6 -36 15 -40 8 -3 15 -17 15
-31 0 -14 5 -25 10 -25 6 0 10 -9 10 -20 0 -11 7 -23 15 -26 8 -4 15 -17 15
-30 0 -13 4 -24 9 -24 5 0 12 -11 15 -25 4 -14 11 -25 16 -25 6 0 10 -5 10
-11 0 -6 6 -17 13 -24 29 -34 37 -45 37 -55 0 -6 6 -18 13 -25 29 -33 37 -45
37 -55 0 -5 7 -10 15 -10 9 0 15 -9 15 -21 0 -22 22 -49 39 -49 6 0 11 -5 11
-10 0 -12 83 -100 94 -100 3 0 6 5 6 11 0 14 25 39 39 39 6 0 11 7 11 15 0 8
7 15 15 15 8 0 15 5 15 11 0 14 25 39 39 39 6 0 11 5 11 11 0 14 25 39 39 39
6 0 11 5 11 11 0 14 25 39 39 39 6 0 11 5 11 11 0 14 25 39 39 39 6 0 11 7 11
15 0 8 5 15 11 15 14 0 39 25 39 39 0 6 7 11 15 11 8 0 15 5 15 11 0 14 25 39
39 39 6 0 11 7 11 15 0 8 5 15 11 15 14 0 39 25 39 39 0 6 5 11 11 11 14 0 39
25 39 39 0 6 5 11 11 11 14 0 39 25 39 39 0 6 7 11 15 11 27 0 19 64 -10 86
-14 10 -25 24 -25 31 0 7 -4 13 -9 13 -5 0 -13 10 -17 22 -3 12 -13 28 -20 36
-8 7 -14 20 -14 28 0 8 -4 14 -10 14 -5 0 -10 7 -10 15 0 8 -4 15 -10 15 -5 0
-12 11 -16 25 -3 14 -10 25 -15 25 -5 0 -9 10 -9 23 0 13 -7 32 -15 43 -8 10
-15 29 -15 42 0 12 -4 22 -10 22 -5 0 -10 15 -10 33 0 17 -7 41 -15 51 -10 13
-15 43 -15 83 0 35 -4 63 -10 63 -6 0 -10 57 -10 150 0 93 4 150 10 150 6 0
10 28 10 63 0 40 5 70 15 83 8 10 15 34 15 52 0 17 5 32 10 32 6 0 10 10 10
23 0 12 7 31 15 41 8 11 15 30 15 43 0 13 4 23 9 23 5 0 12 11 15 25 4 14 11
25 16 25 6 0 10 9 10 20 0 12 11 31 25 44 14 13 25 33 25 45 0 12 6 21 15 21
8 0 15 7 15 15 0 8 5 15 10 15 6 0 10 7 10 15 0 8 5 15 10 15 6 0 14 8 17 17
4 9 22 31 40 49 18 18 33 37 33 43 0 6 9 11 20 11 11 0 20 4 20 9 0 13 62 71
77 71 7 0 13 5 13 10 0 6 7 10 15 10 8 0 15 7 15 15 0 9 9 15 21 15 12 0 32
11 45 25 13 14 32 25 44 25 11 0 20 4 20 10 0 5 11 12 25 16 14 3 25 10 25 15
0 5 10 9 23 9 13 0 32 7 43 15 10 8 29 15 42 15 12 0 22 4 22 9 0 5 9 13 20
16 15 5 20 15 20 41 0 19 -4 34 -10 34 -6 0 -10 40 -10 99 0 55 -4 101 -10
103 -5 2 -12 65 -16 141 -4 75 -11 137 -16 137 -4 0 -8 47 -8 105 0 63 -4 105
-10 105 -5 0 -10 13 -10 29 0 43 -11 91 -21 91 -5 0 -9 -4 -9 -10z" />
    <path d="M4265 3635 c-11 -14 -26 -25 -32 -25 -7 0 -13 -5 -13 -11 0 -17 -27
-39 -49 -39 -12 0 -21 -5 -21 -11 0 -6 -6 -17 -14 -25 -8 -8 -19 -14 -25 -14
-6 0 -11 -7 -11 -15 0 -8 -7 -15 -15 -15 -8 0 -15 -7 -15 -15 0 -8 -7 -15 -15
-15 -8 0 -15 -4 -15 -10 0 -5 -6 -10 -13 -10 -8 0 -20 -11 -27 -25 -7 -14 -21
-25 -30 -25 -10 0 -26 -11 -36 -25 -10 -14 -24 -25 -31 -25 -7 0 -13 -7 -13
-15 0 -8 -5 -15 -10 -15 -10 0 -22 -8 -55 -37 -7 -7 -18 -13 -24 -13 -6 0 -11
-5 -11 -11 0 -11 -24 -39 -34 -39 -3 0 -30 -24 -61 -53 -52 -51 -67 -77 -45
-77 6 0 10 -10 10 -23 0 -13 7 -32 15 -43 8 -10 15 -29 15 -41 0 -13 5 -23 10
-23 6 0 10 -14 10 -30 0 -17 7 -47 15 -67 8 -19 15 -57 15 -84 0 -27 5 -49 10
-49 6 0 10 -57 10 -150 0 -93 -4 -150 -10 -150 -5 0 -10 -22 -10 -49 0 -27 -7
-65 -15 -84 -8 -20 -15 -50 -15 -67 0 -16 -4 -30 -10 -30 -5 0 -10 -10 -10
-22 0 -13 -7 -32 -15 -42 -8 -11 -15 -30 -15 -43 0 -13 -4 -23 -9 -23 -5 0
-12 -11 -15 -25 -4 -14 -11 -25 -16 -25 -6 0 -10 -7 -10 -15 0 -8 -4 -15 -9
-15 -5 0 -12 -11 -15 -25 -4 -14 -11 -25 -16 -25 -6 0 -10 -7 -10 -15 0 -8 -4
-15 -10 -15 -5 0 -12 -10 -15 -23 -4 -13 -17 -31 -31 -41 -28 -22 -35 -86 -9
-86 8 0 15 -5 15 -11 0 -14 25 -39 39 -39 6 0 11 -5 11 -11 0 -14 25 -39 39
-39 6 0 11 -5 11 -11 0 -14 25 -39 39 -39 6 0 11 -7 11 -15 0 -8 5 -15 11 -15
14 0 39 -25 39 -39 0 -6 5 -11 11 -11 14 0 39 -25 39 -39 0 -6 7 -11 15 -11 8
0 15 -5 15 -11 0 -14 25 -39 39 -39 6 0 11 -5 11 -11 0 -14 25 -39 39 -39 6 0
11 -7 11 -15 0 -8 5 -15 11 -15 14 0 39 -25 39 -39 0 -6 5 -11 11 -11 14 0 39
-25 39 -39 0 -6 7 -11 15 -11 8 0 15 -5 15 -11 0 -14 25 -39 39 -39 6 0 11 -7
11 -15 0 -8 3 -15 6 -15 11 0 94 88 94 100 0 5 5 10 11 10 17 0 39 27 39 49 0
12 6 21 15 21 8 0 15 5 15 11 0 6 6 17 13 24 29 34 37 45 37 55 0 10 8 21 38
55 6 7 12 18 12 24 0 6 4 11 9 11 5 0 12 11 15 25 4 14 11 25 16 25 6 0 10 11
10 25 0 16 6 25 15 25 9 0 15 9 15 25 0 14 5 25 10 25 6 0 10 11 10 25 0 14 7
28 15 31 9 4 15 19 15 40 0 19 5 34 10 34 6 0 10 11 10 24 0 14 7 31 15 40 8
8 15 26 15 40 0 14 4 26 9 26 5 0 12 23 16 50 4 28 10 50 15 50 4 0 10 28 14
63 3 34 11 64 16 65 6 2 10 33 10 68 0 36 4 64 10 64 6 0 10 100 10 280 0 180
-4 280 -10 280 -6 0 -10 28 -10 64 0 35 -4 66 -10 68 -5 2 -13 31 -16 66 -4
34 -10 62 -14 62 -5 0 -11 23 -15 50 -4 28 -11 50 -16 50 -5 0 -9 12 -9 26 0
14 -7 32 -15 40 -8 9 -15 26 -15 40 0 13 -4 24 -10 24 -5 0 -10 15 -10 34 0
21 -6 36 -15 40 -8 3 -15 15 -15 26 0 11 -4 20 -10 20 -5 0 -10 11 -10 25 0
14 -7 28 -15 31 -8 4 -15 17 -15 30 0 13 -4 24 -9 24 -5 0 -12 11 -15 25 -4
14 -11 25 -16 25 -6 0 -10 5 -10 11 0 17 -27 39 -47 39 -10 -1 -27 -12 -38
-25z" />
    <path d="M2410 3260 c0 -5 -22 -10 -50 -10 -27 0 -50 -4 -50 -9 0 -5 -13 -12
-30 -16 -16 -4 -30 -11 -30 -16 0 -5 -11 -9 -25 -9 -14 0 -25 -4 -25 -9 0 -5
-10 -13 -22 -17 -12 -3 -36 -22 -54 -40 -17 -19 -36 -34 -43 -34 -6 0 -11 -5
-11 -11 0 -14 -25 -39 -39 -39 -6 0 -11 -5 -11 -11 0 -7 -15 -26 -34 -43 -18
-18 -37 -42 -40 -54 -4 -12 -12 -22 -17 -22 -5 0 -9 -11 -9 -25 0 -14 -4 -25
-9 -25 -5 0 -12 -13 -16 -30 -4 -16 -11 -30 -16 -30 -5 0 -9 -20 -9 -44 0 -25
-4 -48 -10 -51 -6 -4 -10 -67 -10 -156 0 -93 4 -149 10 -149 6 0 10 -22 10
-50 0 -27 4 -50 9 -50 5 0 12 -13 16 -30 4 -16 11 -30 16 -30 5 0 9 -11 9 -25
0 -14 4 -25 9 -25 5 0 13 -10 17 -22 3 -12 22 -36 40 -54 19 -17 34 -36 34
-43 0 -6 5 -11 11 -11 14 0 39 -25 39 -39 0 -6 5 -11 11 -11 7 0 26 -16 45
-35 18 -19 42 -35 53 -35 12 0 21 -7 21 -15 0 -9 9 -15 25 -15 14 0 25 -4 25
-9 0 -5 18 -11 40 -15 22 -3 40 -11 40 -16 0 -6 15 -10 34 -10 19 0 38 -4 41
-10 4 -6 67 -10 156 -10 93 0 149 4 149 10 0 6 18 10 40 10 22 0 40 4 40 10 0
5 18 13 40 16 22 4 40 10 40 15 0 5 11 9 25 9 16 0 25 6 25 15 0 8 7 15 15 15
8 0 15 5 15 10 0 6 7 10 15 10 8 0 38 23 65 50 27 28 54 50 60 50 5 0 10 5 10
11 0 7 16 26 35 45 19 18 35 42 35 53 0 12 7 21 15 21 9 0 15 9 15 25 0 14 4
25 9 25 5 0 11 18 15 40 3 22 11 40 16 40 6 0 10 15 10 34 0 19 5 38 10 41 6
4 10 67 10 156 0 93 -4 149 -10 149 -5 0 -10 18 -10 40 0 22 -4 40 -10 40 -5
0 -13 18 -16 40 -4 22 -10 40 -15 40 -5 0 -9 11 -9 25 0 16 -6 25 -15 25 -8 0
-15 7 -15 15 0 8 -4 15 -10 15 -5 0 -10 7 -10 15 0 9 -11 26 -25 39 -14 13
-25 28 -25 35 0 6 -5 11 -11 11 -14 0 -39 25 -39 39 0 6 -5 11 -11 11 -7 0
-26 15 -43 34 -18 18 -42 37 -54 40 -12 4 -22 12 -22 17 0 5 -11 9 -25 9 -14
0 -25 4 -25 9 0 5 -13 12 -30 16 -16 4 -30 11 -30 16 0 5 -20 9 -44 9 -25 0
-48 5 -51 10 -4 6 -67 10 -156 10 -93 0 -149 -4 -149 -10z m200 -200 c0 -5 16
-10 35 -10 22 0 38 -6 41 -15 4 -10 20 -15 45 -15 21 0 39 -4 39 -9 0 -5 16
-12 35 -15 19 -4 35 -11 35 -16 0 -6 16 -10 35 -10 19 0 35 -4 35 -9 0 -5 17
-12 37 -16 21 -4 41 -12 45 -18 12 -19 9 -37 -6 -37 -8 0 -16 -6 -18 -12 -5
-15 -101 -13 -106 2 -2 5 -17 10 -34 10 -16 0 -36 7 -44 15 -9 8 -29 15 -45
15 -16 0 -29 5 -29 10 0 6 -16 10 -35 10 -22 0 -38 6 -41 15 -5 11 -23 15 -74
15 -51 0 -69 -4 -74 -15 -3 -8 -17 -15 -31 -15 -14 0 -25 -4 -25 -10 0 -5 -16
-10 -36 -10 -19 0 -42 -7 -50 -15 -9 -8 -26 -15 -40 -15 -13 0 -24 -4 -24 -10
0 -16 -99 -12 -116 4 -23 23 -17 53 11 60 14 4 25 11 25 16 0 6 23 10 50 10
28 0 50 4 50 9 0 5 14 12 30 16 17 4 30 11 30 16 0 5 15 9 33 9 17 0 41 7 51
15 11 8 30 15 43 15 13 0 23 5 23 10 0 6 23 10 50 10 28 0 50 -4 50 -10z m-50
-180 c0 -29 -4 -40 -15 -40 -8 0 -15 -4 -15 -10 0 -5 -16 -12 -35 -16 -19 -3
-35 -10 -35 -15 0 -5 -18 -9 -40 -9 -22 0 -40 -4 -40 -10 0 -5 -15 -12 -34
-16 l-35 -6 -3 -143 c-2 -79 -5 -145 -8 -148 -3 -2 -20 -7 -37 -10 l-33 -6 0
180 c0 192 4 209 50 209 12 0 28 7 36 15 9 8 33 15 55 15 21 0 39 5 39 10 0 6
11 10 25 10 13 0 30 7 37 15 7 8 30 14 51 15 37 0 37 0 37 -40z m82 29 c2 -6
25 -13 51 -16 26 -3 47 -10 47 -14 0 -5 10 -9 23 -9 13 0 32 -7 43 -15 10 -8
33 -15 50 -15 42 0 44 -9 44 -212 l0 -168 -30 0 c-20 0 -30 -5 -30 -15 0 -8 7
-15 15 -15 10 0 15 -11 15 -35 0 -24 -5 -35 -15 -35 -8 0 -15 -7 -15 -15 0 -8
-5 -15 -10 -15 -10 0 -22 -8 -55 -37 -7 -7 -18 -13 -24 -13 -6 0 -11 -7 -11
-15 0 -9 -9 -15 -25 -15 -14 0 -25 -4 -25 -9 0 -5 -11 -12 -25 -15 -14 -4 -25
-11 -25 -16 0 -6 -13 -10 -30 -10 -16 0 -30 -4 -30 -10 0 -5 -11 -10 -25 -10
-14 0 -25 5 -25 10 0 6 -11 10 -25 10 -16 0 -25 6 -25 15 0 9 -9 15 -25 15
-14 0 -25 4 -25 9 0 5 -11 12 -25 15 -14 4 -25 11 -25 16 0 6 -5 10 -11 10
-14 0 -39 25 -39 39 0 6 -5 11 -11 11 -14 0 -39 25 -39 39 0 6 -7 11 -15 11
-26 0 -18 47 9 54 13 3 31 9 40 12 12 4 16 0 16 -15 0 -16 6 -21 25 -21 16 0
25 -6 25 -15 0 -8 5 -15 11 -15 14 0 39 -25 39 -39 0 -6 11 -11 25 -11 14 0
25 -4 25 -9 0 -5 11 -12 25 -15 14 -4 25 -11 25 -16 0 -6 14 -10 30 -10 17 0
30 5 30 10 0 6 9 10 20 10 11 0 23 7 26 15 4 8 15 15 26 15 11 0 37 18 59 40
22 22 46 40 54 40 8 0 15 9 15 20 0 11 6 20 13 20 16 0 10 301 -7 312 -6 4
-21 8 -33 8 -13 0 -23 5 -23 10 0 6 -16 10 -35 10 -19 0 -35 4 -35 10 0 5 -17
12 -37 16 -45 8 -53 17 -53 67 0 34 2 37 29 37 16 0 31 -5 33 -11z m-522 -29
c0 -5 4 -10 10 -10 5 0 19 -8 30 -17 19 -16 20 -29 20 -205 0 -119 4 -188 10
-188 6 0 10 -18 10 -40 0 -29 4 -40 15 -40 8 0 15 -5 15 -11 0 -14 25 -39 39
-39 6 0 11 -5 11 -11 0 -14 25 -39 39 -39 6 0 11 -4 11 -10 0 -5 11 -12 25
-16 14 -3 25 -10 25 -15 0 -5 7 -9 15 -9 8 0 15 -7 15 -15 0 -9 9 -15 25 -15
14 0 25 -4 25 -10 0 -5 11 -10 25 -10 16 0 25 -6 25 -15 0 -9 9 -15 25 -15 23
0 25 -3 25 -50 0 -47 -2 -50 -25 -50 -14 0 -25 5 -25 10 0 6 -11 10 -25 10
-16 0 -25 6 -25 15 0 9 -9 15 -25 15 -14 0 -25 4 -25 9 0 5 -11 12 -25 15 -14
4 -25 11 -25 16 0 6 -7 10 -15 10 -8 0 -15 4 -15 9 0 5 -11 12 -25 15 -14 4
-25 11 -25 16 0 6 -7 10 -15 10 -8 0 -15 5 -15 11 0 14 -25 39 -39 39 -6 0
-11 5 -11 11 0 14 -25 39 -39 39 -6 0 -11 7 -11 15 0 8 -4 15 -10 15 -5 0 -12
11 -16 25 -3 14 -10 25 -15 25 -5 0 -9 112 -9 255 0 163 4 255 10 255 6 0 10
-4 10 -10z m900 -255 c0 -157 -4 -245 -10 -245 -5 0 -10 -11 -10 -25 0 -16 -6
-25 -15 -25 -8 0 -15 -5 -15 -11 0 -14 -25 -39 -39 -39 -6 0 -11 -7 -11 -15 0
-8 -5 -15 -11 -15 -14 0 -39 -25 -39 -39 0 -6 -7 -11 -15 -11 -8 0 -15 -4 -15
-10 0 -5 -11 -12 -25 -16 -14 -3 -25 -10 -25 -15 0 -5 -7 -9 -15 -9 -8 0 -15
-4 -15 -10 0 -5 -11 -12 -25 -16 -14 -3 -25 -10 -25 -15 0 -5 -9 -9 -20 -9
-11 0 -23 -7 -26 -15 -4 -8 -17 -15 -30 -15 -13 0 -24 -4 -24 -10 0 -5 -7 -10
-15 -10 -11 0 -15 12 -15 50 0 42 3 50 19 50 10 0 21 7 25 15 3 8 15 15 26 15
11 0 20 5 20 10 0 6 9 10 19 10 10 0 21 7 25 15 3 8 15 15 26 15 11 0 20 5 20
10 0 6 7 10 15 10 8 0 15 7 15 15 0 8 5 15 10 15 10 0 22 8 55 38 7 6 18 12
24 12 6 0 11 11 11 25 0 16 6 25 15 25 9 0 15 9 15 25 0 14 5 25 10 25 6 0 10
75 10 205 0 176 2 205 15 205 8 0 15 7 15 15 0 9 9 15 25 15 l25 0 0 -245z
m-430 155 c0 -5 16 -10 35 -10 22 0 38 -6 41 -15 4 -9 19 -15 40 -15 27 0 34
-4 34 -20 0 -51 -75 -77 -130 -45 -33 19 -75 19 -94 0 -8 -8 -31 -15 -50 -15
-25 0 -36 4 -36 15 0 8 -7 15 -15 15 -9 0 -15 9 -15 25 0 20 5 25 26 25 14 0
32 7 40 15 9 8 26 15 40 15 13 0 24 5 24 10 0 6 14 10 30 10 17 0 30 -4 30
-10z m-175 -116 c21 -23 25 -37 25 -90 0 -36 4 -64 10 -64 6 0 10 -5 10 -11 0
-15 22 -35 48 -43 12 -4 22 -12 22 -17 0 -5 7 -9 15 -9 11 0 15 -12 15 -50 0
-44 -2 -50 -21 -50 -12 0 -32 11 -45 25 -13 14 -32 25 -44 25 -11 0 -20 5 -20
11 0 14 -25 39 -39 39 -6 0 -11 11 -11 24 0 13 -6 26 -12 28 -14 5 -25 165
-14 193 8 23 34 18 61 -11z m350 -99 c0 -70 -4 -100 -12 -103 -7 -2 -13 -8
-13 -14 0 -13 -56 -68 -69 -68 -6 0 -11 -4 -11 -10 0 -5 -11 -12 -25 -16 -14
-3 -25 -10 -25 -15 0 -5 -7 -9 -15 -9 -25 0 -20 91 5 113 11 9 23 17 26 17 20
0 38 39 42 90 4 58 27 99 62 113 31 11 35 -1 35 -98z" />
    <path d="M2013 1465 c-10 -11 -13 -142 -13 -585 l0 -570 24 0 c14 0 31 -7 40
-15 8 -8 31 -15 50 -15 l36 0 0 573 0 573 -29 17 c-16 9 -39 17 -50 17 -12 0
-21 5 -21 10 0 15 -23 12 -37 -5z" />
    <path d="M3070 1470 c0 -5 -9 -10 -21 -10 -11 0 -34 -8 -50 -17 l-29 -17 0
-573 0 -573 33 0 c17 0 41 7 51 15 11 8 30 15 43 15 l23 0 0 585 0 585 -25 0
c-14 0 -25 -4 -25 -10z" />
    <path d="M2330 821 l0 -559 23 -6 c29 -8 91 -8 111 0 14 6 16 64 16 555 l0
549 -25 0 c-14 0 -25 5 -25 10 0 6 -22 10 -50 10 l-50 0 0 -559z" />
    <path d="M2653 1365 c-10 -11 -13 -137 -13 -559 0 -604 -6 -556 68 -556 20 0
47 3 60 6 l22 6 0 559 0 559 -62 0 c-42 -1 -67 -6 -75 -15z" />
    <path d="M3280 790 l0 -430 25 0 c14 0 25 4 25 9 0 5 16 12 35 15 19 4 35 11
35 16 0 6 7 10 15 10 13 0 15 42 15 320 0 278 -2 320 -15 320 -8 0 -15 7 -15
15 0 8 -4 15 -10 15 -5 0 -10 7 -10 15 0 9 -11 26 -25 39 -14 13 -25 28 -25
33 0 11 -34 53 -44 53 -3 0 -6 -193 -6 -430z" />
    <path d="M1820 1195 c0 -8 -7 -15 -15 -15 -8 0 -15 -7 -15 -15 0 -8 -4 -15
-10 -15 -5 0 -10 -7 -10 -15 0 -8 -11 -25 -25 -39 -14 -14 -25 -30 -25 -36 0
-5 -7 -10 -15 -10 -13 0 -15 -42 -15 -320 0 -278 2 -320 15 -320 8 0 15 -4 15
-9 0 -5 16 -12 35 -15 19 -4 35 -11 35 -16 0 -6 11 -10 25 -10 l25 0 0 425 c0
277 -3 425 -10 425 -5 0 -10 -7 -10 -15z" />
    <path d="M1485 740 c-3 -11 -11 -20 -16 -20 -5 0 -9 -7 -9 -15 0 -8 -4 -15 -9
-15 -5 0 -13 -10 -17 -22 -3 -12 -23 -37 -43 -56 -23 -22 -31 -36 -23 -39 7
-3 19 -11 26 -19 8 -8 22 -14 30 -14 9 0 16 -4 16 -10 0 -5 11 -12 25 -16 14
-3 25 -10 25 -15 0 -5 5 -9 10 -9 6 0 10 52 10 135 0 125 -9 166 -25 115z" />
    <path d="M3610 625 c0 -83 4 -135 10 -135 6 0 10 4 10 9 0 5 11 12 25 15 14 4
25 11 25 16 0 6 7 10 16 10 8 0 22 6 30 14 7 8 19 16 26 19 8 3 0 17 -23 39
-20 19 -40 44 -43 56 -4 12 -12 22 -17 22 -5 0 -9 7 -9 15 0 8 -4 15 -9 15 -5
0 -13 9 -16 20 -16 51 -25 10 -25 -115z" />
  </g>
</svg>