<?xml version="1.0" standalone="no"?>
<!DOCTYPE svg PUBLIC "-//W3C//DTD SVG 20010904//EN" "http://www.w3.org/TR/2001/REC-SVG-20010904/DTD/svg10.dtd">
<svg version="1.0" xmlns="http://www.w3.org/2000/svg" width="512.000000pt" height="512.000000pt"
  viewBox="0 0 512.000000 512.000000" preserveAspectRatio="xMidYMid meet">

  <g transform="translate(0.000000,512.000000) scale(0.100000,-0.100000)" fill="#464646" stroke="none">
    <path d="M2240 5106 c-148 -20 -262 -44 -388 -81 -586 -169 -1088 -537 -1429
-1047 -203 -306 -340 -658 -400 -1030 -26 -160 -26 -614 0 -773 86 -535 320
-1007 687 -1389 400 -415 884 -667 1465 -763 158 -26 612 -26 770 0 550 91
1011 320 1398 697 411 398 658 876 754 1455 26 158 26 612 0 770 -96 581 -345
1061 -758 1460 -386 373 -847 603 -1386 691 -133 22 -581 28 -713 10z m1110
-1222 c93 -21 216 -84 283 -145 l58 -52 57 13 c81 18 216 67 295 107 67 33 68
33 62 11 -27 -90 -129 -222 -229 -295 -54 -40 -56 -43 -30 -43 42 1 187 35
273 64 41 14 76 26 78 26 3 0 -17 -28 -44 -61 -57 -74 -191 -208 -239 -241
-34 -23 -34 -24 -34 -99 0 -374 -127 -790 -335 -1103 -321 -482 -794 -770
-1375 -837 -163 -18 -444 -6 -600 26 -206 43 -409 120 -587 221 l-51 30 136 0
c162 1 285 21 432 70 115 38 275 118 359 179 46 33 51 40 35 46 -11 4 -33 8
-49 8 -51 1 -146 30 -220 67 -136 66 -240 171 -310 311 l-35 68 140 5 c77 3
144 10 150 16 7 7 -8 16 -47 28 -258 80 -452 315 -479 579 l-7 67 56 -25 c82
-38 248 -70 246 -47 0 4 -22 24 -49 45 -28 20 -70 63 -95 95 -158 198 -192
466 -90 698 l24 54 123 -124 c232 -233 472 -383 778 -485 117 -39 305 -78 423
-87 l88 -7 -8 29 c-14 53 -7 226 11 293 67 246 248 428 490 491 88 23 227 25
316 4z" />
  </g>
</svg>