<?xml version="1.0" standalone="no"?>
<!DOCTYPE svg PUBLIC "-//W3C//DTD SVG 20010904//EN"
 "http://www.w3.org/TR/2001/REC-SVG-20010904/DTD/svg10.dtd">
<svg version="1.0" xmlns="http://www.w3.org/2000/svg"
 width="512.000000pt" height="512.000000pt" viewBox="0 0 512.000000 512.000000"
 preserveAspectRatio="xMidYMid meet">

<g transform="translate(0.000000,512.000000) scale(0.100000,-0.100000)"
fill="#000000" stroke="none">
<path d="M2310 5114 c-608 -72 -1108 -303 -1523 -703 -409 -394 -656 -861
-758 -1436 -21 -115 -24 -161 -24 -410 0 -224 4 -302 18 -390 89 -542 319
-1007 686 -1388 394 -409 861 -656 1436 -758 115 -21 161 -24 410 -24 224 0
302 4 390 18 542 89 1007 319 1388 686 409 394 656 861 758 1436 21 115 24
161 24 410 0 224 -4 302 -18 390 -89 542 -319 1007 -686 1388 -394 409 -862
656 -1436 758 -98 18 -167 22 -375 24 -140 2 -271 1 -290 -1z m581 -325 c391
-55 774 -224 1094 -482 113 -92 288 -274 377 -393 301 -405 451 -857 450
-1359 -1 -617 -238 -1177 -683 -1611 -427 -415 -975 -637 -1574 -636 -617 1
-1177 238 -1611 683 -415 427 -637 975 -636 1574 1 617 238 1177 683 1611 507
493 1188 713 1900 613z"/>
<path d="M2275 3980 c-126 -43 -336 -115 -465 -160 -129 -45 -275 -94 -324
-110 -174 -57 -178 -80 -36 -182 52 -38 102 -67 110 -64 8 2 67 22 130 44 229
80 677 234 763 263 48 16 103 29 121 29 18 0 72 -14 122 -31 49 -17 179 -61
289 -99 110 -38 292 -100 405 -139 l204 -71 41 27 c22 14 66 46 98 70 64 49
74 81 35 107 -20 13 -601 216 -1005 352 -189 63 -202 62 -488 -36z"/>
<path d="M2360 3565 c-74 -26 -432 -151 -530 -185 -94 -33 -160 -70 -176 -102
-11 -22 -14 -112 -14 -512 0 -585 -12 -545 142 -481 46 19 89 43 96 52 9 13
12 107 12 389 0 205 3 380 6 389 4 9 18 21 33 27 37 14 349 124 456 159 49 17
95 35 102 41 17 14 18 219 1 236 -17 17 -54 13 -128 -13z"/>
<path d="M2652 3578 c-8 -8 -12 -49 -12 -120 0 -97 2 -108 20 -118 11 -6 142
-53 292 -106 150 -52 280 -101 288 -110 13 -12 16 -76 20 -406 l5 -392 93 -39
c113 -48 137 -44 147 25 3 24 5 246 3 495 -3 440 -4 452 -24 479 -30 41 -83
64 -376 165 -145 50 -294 102 -332 115 -78 27 -106 30 -124 12z"/>
<path d="M1220 3460 c-8 -14 -10 -217 -8 -663 4 -712 1 -683 73 -835 104 -220
331 -434 695 -652 171 -103 450 -250 474 -250 12 0 27 5 34 12 17 17 17 232 0
245 -7 6 -89 52 -183 103 -449 245 -699 456 -804 679 l-26 56 -5 590 c-3 367
-9 596 -15 606 -5 8 -46 41 -90 72 -86 62 -126 72 -145 37z"/>
<path d="M3786 3430 c-38 -27 -77 -57 -87 -66 -17 -15 -18 -50 -21 -598 l-3
-581 -24 -60 c-78 -196 -259 -372 -594 -579 -107 -66 -135 -82 -292 -166 -138
-74 -125 -54 -125 -183 0 -121 6 -137 48 -137 34 0 274 128 512 273 428 261
675 542 720 819 14 86 14 1283 0 1309 -18 32 -59 22 -134 -31z"/>
<path d="M2405 3134 c-55 -20 -122 -44 -149 -53 -97 -34 -88 -73 34 -160 47
-34 90 -61 97 -61 7 0 35 9 62 20 88 34 137 35 225 5 42 -15 83 -24 90 -22 7
3 52 33 100 67 73 52 86 66 86 90 0 15 -6 33 -14 39 -7 6 -79 34 -160 61 -185
63 -228 64 -371 14z"/>
<path d="M2078 2869 c-16 -9 -18 -32 -18 -247 l0 -237 27 -53 c49 -96 300
-302 368 -302 21 0 35 6 39 16 12 31 7 223 -6 234 -7 5 -40 30 -74 54 -104 75
-108 85 -112 264 l-3 152 -91 65 c-95 68 -102 71 -130 54z"/>
<path d="M3020 2872 c-9 -4 -53 -34 -98 -66 l-82 -60 0 -146 c0 -136 -2 -150
-22 -180 -21 -31 -83 -85 -152 -133 -25 -17 -26 -21 -26 -125 0 -116 6 -132
50 -132 33 0 90 36 206 131 103 84 131 114 165 179 23 43 24 55 27 275 1 127
-1 235 -5 241 -11 15 -45 24 -63 16z"/>
<path d="M1900 2186 c-160 -61 -178 -74 -164 -119 10 -33 198 -214 289 -279
106 -75 237 -154 365 -219 99 -52 107 -54 181 -54 73 0 82 3 182 53 233 118
441 265 577 409 80 84 96 118 68 141 -23 18 -162 74 -185 74 -15 0 -53 -29
-111 -83 -149 -142 -452 -329 -532 -329 -75 0 -386 193 -538 334 -50 47 -93
86 -95 86 -1 -1 -18 -7 -37 -14z"/>
</g>
</svg>
