<?xml version="1.0" standalone="no"?>
<!DOCTYPE svg PUBLIC "-//W3C//DTD SVG 20010904//EN" "http://www.w3.org/TR/2001/REC-SVG-20010904/DTD/svg10.dtd">
<svg version="1.0" xmlns="http://www.w3.org/2000/svg" width="512.000000pt" height="512.000000pt"
  viewBox="0 0 512.000000 512.000000" preserveAspectRatio="xMidYMid meet">

  <g transform="translate(0.000000,512.000000) scale(0.100000,-0.100000)" fill="#464646" stroke="none">
    <path d="M273 5105 c-100 -31 -190 -112 -241 -215 -25 -50 -27 -65 -27 -170 0
-107 2 -119 29 -175 38 -77 114 -153 191 -191 l60 -29 1730 -3 1730 -2 -1841
-1843 c-2098 -2099 -1899 -1881 -1899 -2077 0 -107 2 -119 29 -175 38 -77 114
-153 191 -191 56 -27 68 -29 175 -29 196 0 -22 -199 2077 1899 l1843 1841 2
-1730 3 -1730 29 -60 c38 -77 114 -153 191 -191 56 -27 68 -29 175 -29 107 0
119 2 175 29 77 38 153 114 191 191 l29 60 0 2275 0 2275 -29 60 c-38 77 -114
153 -191 191 l-60 29 -2260 2 c-1857 1 -2268 -1 -2302 -12z" />
  </g>
</svg>