<?xml version="1.0" standalone="no"?>
<!DOCTYPE svg PUBLIC "-//W3C//DTD SVG 20010904//EN" "http://www.w3.org/TR/2001/REC-SVG-20010904/DTD/svg10.dtd">
<svg version="1.0" xmlns="http://www.w3.org/2000/svg" width="512.000000pt" height="512.000000pt"
  viewBox="0 0 512.000000 512.000000" preserveAspectRatio="xMidYMid meet">

  <g transform="translate(0.000000,512.000000) scale(0.100000,-0.100000)" fill="#464646" stroke="none">
    <path d="M961 4784 c-179 -48 -339 -209 -386 -389 -13 -52 -15 -273 -15 -1833
0 -1960 -4 -1829 63 -1957 41 -77 145 -181 223 -222 126 -67 20 -63 1714 -63
1694 0 1588 -4 1714 63 78 41 182 145 223 222 67 127 63 38 63 1569 0 1156 -2
1392 -14 1420 -15 36 -1247 1172 -1294 1193 -21 9 -291 12 -1132 12 -933 0
-1113 -3 -1159 -15z m2051 -636 c4 -282 7 -341 22 -388 62 -193 211 -337 401
-385 48 -12 131 -15 427 -15 l368 0 0 -1270 c0 -1043 -2 -1276 -13 -1303 -22
-50 -63 -93 -115 -119 l-47 -23 -1490 0 c-1241 0 -1497 2 -1529 14 -52 18
-122 89 -136 138 -8 27 -10 524 -8 1784 l3 1745 28 42 c34 52 90 90 148 101
24 5 470 9 991 10 l946 1 4 -332z m662 -188 l289 -265 -218 -3 c-211 -2 -219
-2 -270 22 -30 13 -64 39 -79 59 -47 61 -56 112 -56 310 l0 180 22 -19 c12
-10 152 -138 312 -284z" />
    <path d="M1642 3543 c-51 -25 -76 -68 -80 -138 -3 -50 0 -66 20 -94 13 -19 39
-44 58 -55 34 -20 49 -21 500 -21 451 0 466 1 500 21 55 32 80 77 80 143 0 66
-23 111 -72 141 -32 19 -51 20 -503 20 -413 0 -474 -2 -503 -17z" />
    <path d="M1629 2697 c-43 -29 -69 -80 -69 -137 0 -57 26 -108 69 -137 33 -22
41 -23 265 -23 213 0 234 2 264 20 48 30 72 75 72 140 0 65 -24 110 -72 140
-30 18 -51 20 -264 20 -224 0 -232 -1 -265 -23z" />
    <path d="M2642 2700 c-48 -30 -72 -75 -72 -140 0 -65 24 -110 72 -140 31 -19
51 -20 424 -20 390 0 391 0 425 23 94 63 93 219 -3 277 -31 19 -51 20 -423 20
-372 0 -392 -1 -423 -20z" />
    <path d="M1667 1876 c-78 -28 -111 -81 -105 -166 5 -66 31 -110 82 -134 31
-14 123 -16 916 -16 793 0 885 2 916 16 52 25 78 68 82 139 3 50 0 66 -20 94
-13 19 -39 44 -58 55 -35 21 -47 21 -905 23 -716 2 -877 0 -908 -11z" />
  </g>
</svg>