<?xml version="1.0" standalone="no"?>
<!DOCTYPE svg PUBLIC "-//W3C//DTD SVG 20010904//EN" "http://www.w3.org/TR/2001/REC-SVG-20010904/DTD/svg10.dtd">
<svg version="1.0" xmlns="http://www.w3.org/2000/svg" width="512.000000pt" height="512.000000pt"
  viewBox="0 0 512.000000 512.000000" preserveAspectRatio="xMidYMid meet">

  <g transform="translate(0.000000,512.000000) scale(0.100000,-0.100000)" fill="#464646" stroke="none">
    <path d="M788 5110 c-2 -6 -36 -13 -76 -17 -39 -3 -72 -10 -72 -14 0 -5 -10
-9 -23 -9 -13 0 -32 -7 -43 -15 -10 -8 -29 -15 -41 -15 -13 0 -23 -4 -23 -9 0
-5 -11 -12 -25 -15 -14 -4 -25 -11 -25 -16 0 -6 -11 -10 -25 -10 -16 0 -25 -6
-25 -15 0 -8 -5 -15 -11 -15 -7 0 -19 -8 -28 -19 -9 -10 -26 -21 -38 -25 -13
-4 -23 -12 -23 -17 0 -5 -7 -9 -15 -9 -8 0 -15 -5 -15 -11 0 -14 -25 -39 -39
-39 -6 0 -11 -7 -11 -15 0 -8 -4 -15 -9 -15 -5 0 -13 -10 -17 -22 -4 -13 -15
-30 -24 -38 -9 -8 -20 -25 -24 -37 -4 -13 -12 -23 -17 -23 -5 0 -9 -7 -9 -15
0 -8 -4 -15 -10 -15 -5 0 -12 -11 -16 -25 -3 -14 -10 -25 -15 -25 -5 0 -9 -10
-9 -23 0 -13 -7 -32 -15 -43 -8 -10 -15 -34 -15 -51 0 -18 -4 -33 -9 -33 -5 0
-12 -25 -16 -55 -3 -30 -11 -55 -16 -55 -13 0 -12 -3557 1 -3562 6 -2 13 -36
17 -76 3 -39 10 -72 14 -72 5 0 9 -10 9 -23 0 -13 7 -32 15 -43 8 -10 15 -29
15 -41 0 -13 4 -23 9 -23 5 0 12 -11 15 -25 4 -14 11 -25 16 -25 6 0 10 -11
10 -25 0 -16 6 -25 15 -25 8 0 15 -5 15 -11 0 -7 8 -19 19 -28 10 -9 21 -26
25 -38 4 -13 12 -23 17 -23 5 0 9 -7 9 -15 0 -8 5 -15 11 -15 14 0 39 -25 39
-39 0 -6 7 -11 15 -11 8 0 15 -4 15 -9 0 -5 10 -13 23 -17 12 -4 29 -15 37
-24 8 -9 25 -20 37 -24 13 -4 23 -12 23 -17 0 -5 7 -9 15 -9 8 0 15 -4 15 -10
0 -5 11 -12 25 -16 14 -3 25 -10 25 -15 0 -5 10 -9 23 -9 13 0 32 -7 43 -15
10 -8 34 -15 52 -15 17 0 32 -4 32 -9 0 -5 23 -11 52 -13 29 -3 54 -11 56 -17
5 -15 3559 -16 3564 -1 2 6 36 13 76 17 39 3 72 10 72 14 0 5 10 9 23 9 13 0
32 7 43 15 10 8 29 15 42 15 12 0 22 4 22 9 0 5 11 12 25 15 14 4 25 11 25 16
0 6 11 10 25 10 16 0 25 6 25 15 0 8 5 15 11 15 7 0 19 8 28 19 9 10 26 21 39
25 12 4 22 12 22 17 0 5 7 9 15 9 8 0 15 5 15 11 0 14 25 39 39 39 6 0 11 7
11 15 0 8 5 15 10 15 6 0 10 7 10 15 0 8 11 25 24 38 13 13 27 33 30 45 4 12
12 22 17 22 5 0 9 7 9 15 0 8 4 15 10 15 5 0 12 11 16 25 3 14 10 25 15 25 5
0 9 10 9 23 0 13 7 32 15 43 8 10 15 34 15 52 0 17 4 32 9 32 5 0 11 23 13 52
3 29 11 54 17 56 15 5 16 3559 1 3564 -6 2 -13 36 -17 76 -3 39 -10 72 -14 72
-5 0 -9 10 -9 23 0 13 -7 32 -15 43 -8 10 -15 29 -15 42 0 12 -4 22 -9 22 -5
0 -12 11 -15 25 -4 14 -11 25 -16 25 -6 0 -10 11 -10 25 0 16 -6 25 -15 25 -8
0 -15 5 -15 11 0 7 -8 19 -19 28 -10 9 -21 26 -25 39 -4 12 -12 22 -17 22 -5
0 -9 7 -9 15 0 8 -5 15 -11 15 -14 0 -39 25 -39 39 0 6 -7 11 -15 11 -8 0 -15
5 -15 10 0 6 -7 10 -15 10 -8 0 -25 11 -38 24 -13 13 -33 27 -45 30 -12 4 -22
12 -22 17 0 5 -7 9 -15 9 -8 0 -15 4 -15 10 0 5 -11 12 -25 16 -14 3 -25 10
-25 15 0 5 -10 9 -23 9 -13 0 -32 7 -43 15 -10 8 -34 15 -51 15 -18 0 -33 4
-33 9 0 5 -25 12 -55 16 -30 3 -55 11 -55 16 0 13 -3557 12 -3562 -1z m3568
-385 c4 -9 19 -15 40 -15 19 0 34 -4 34 -10 0 -5 11 -10 25 -10 16 0 25 -6 25
-15 0 -9 9 -15 25 -15 16 0 25 -6 25 -15 0 -8 5 -15 10 -15 6 0 28 -18 50 -40
22 -22 40 -44 40 -50 0 -5 7 -10 15 -10 9 0 15 -9 15 -25 0 -14 4 -25 10 -25
5 0 12 -11 16 -25 3 -14 10 -25 15 -25 5 0 9 -16 9 -36 0 -19 7 -42 15 -50 13
-14 15 -226 15 -1795 0 -1575 -2 -1779 -15 -1779 -11 0 -15 -11 -15 -40 0 -22
-4 -40 -10 -40 -5 0 -10 -11 -10 -25 0 -16 -6 -25 -15 -25 -9 0 -15 -9 -15
-25 0 -16 -6 -25 -15 -25 -8 0 -15 -4 -15 -10 0 -13 -77 -90 -90 -90 -5 0 -10
-7 -10 -15 0 -9 -9 -15 -25 -15 -14 0 -25 -4 -25 -10 0 -5 -11 -12 -25 -16
-14 -3 -25 -10 -25 -15 0 -5 -16 -9 -36 -9 -19 0 -42 -7 -50 -15 -14 -13 -226
-15 -1795 -15 -1575 0 -1779 2 -1779 15 0 11 -11 15 -40 15 -22 0 -40 5 -40
10 0 6 -11 10 -25 10 -16 0 -25 6 -25 15 0 9 -9 15 -25 15 -16 0 -25 6 -25 15
0 8 -4 15 -10 15 -5 0 -28 18 -50 40 -22 22 -40 45 -40 50 0 6 -7 10 -15 10
-9 0 -15 9 -15 25 0 14 -4 25 -10 25 -5 0 -12 11 -16 25 -3 14 -10 25 -15 25
-5 0 -9 16 -9 36 0 19 -7 42 -15 50 -13 14 -15 226 -15 1795 0 1573 2 1780 15
1785 9 4 15 19 15 40 0 19 5 34 10 34 6 0 10 11 10 25 0 16 6 25 15 25 9 0 15
9 15 25 0 16 6 25 15 25 8 0 15 5 15 10 0 6 18 28 40 50 22 22 45 40 50 40 6
0 10 7 10 15 0 9 9 15 25 15 14 0 25 4 25 10 0 5 11 12 25 16 14 3 25 10 25
15 0 5 16 9 36 9 19 0 42 7 50 15 14 13 226 15 1795 15 1573 0 1780 -2 1785
-15z" />
    <path d="M2460 3930 c0 -5 -11 -10 -25 -10 -14 0 -28 -7 -31 -15 -4 -8 -14
-15 -24 -15 -11 0 -20 -10 -24 -25 -4 -14 -11 -25 -16 -25 -6 0 -10 -11 -10
-25 0 -14 -4 -25 -10 -25 -7 0 -10 -417 -10 -1230 0 -813 3 -1230 10 -1230 6
0 10 -11 10 -25 0 -14 4 -25 10 -25 5 0 12 -11 16 -25 4 -16 13 -25 25 -25 10
0 19 -4 19 -9 0 -5 14 -12 30 -16 17 -4 30 -11 30 -16 0 -5 45 -9 100 -9 60 0
100 4 100 10 0 6 11 10 25 10 14 0 28 7 31 15 4 8 14 15 24 15 11 0 20 10 24
25 4 14 11 25 16 25 6 0 10 11 10 25 0 14 5 25 10 25 7 0 10 417 10 1230 0
813 -3 1230 -10 1230 -5 0 -10 11 -10 25 0 14 -4 25 -10 25 -5 0 -12 11 -16
25 -4 16 -13 25 -25 25 -10 0 -19 4 -19 9 0 5 -13 12 -30 16 -16 4 -30 11 -30
16 0 5 -45 9 -100 9 -60 0 -100 -4 -100 -10z" />
    <path d="M1430 3210 c0 -5 -11 -10 -25 -10 -14 0 -25 -4 -25 -10 0 -5 -11 -12
-25 -16 -16 -4 -25 -13 -25 -25 0 -10 -4 -19 -9 -19 -5 0 -12 -13 -16 -30 -4
-16 -11 -30 -16 -30 -5 0 -9 -347 -9 -870 0 -562 3 -870 10 -870 5 0 12 -11
16 -25 3 -14 10 -25 15 -25 5 0 9 -11 9 -25 0 -20 5 -25 25 -25 14 0 25 -4 25
-10 0 -5 11 -12 25 -16 14 -3 25 -10 25 -15 0 -5 47 -9 105 -9 63 0 105 4 105
10 0 6 11 10 25 10 16 0 25 6 25 15 0 9 9 15 25 15 20 0 25 5 25 25 0 14 4 25
10 25 5 0 12 11 16 25 3 14 10 25 15 25 5 0 9 367 9 870 0 573 -3 870 -10 870
-5 0 -10 11 -10 25 0 14 -7 28 -15 31 -8 4 -15 14 -15 24 0 11 -10 20 -25 24
-14 4 -25 11 -25 16 0 6 -11 10 -25 10 -14 0 -25 5 -25 10 0 6 -42 10 -105 10
-63 0 -105 -4 -105 -10z" />
    <path d="M3498 2453 c-10 -2 -18 -9 -18 -14 0 -5 -11 -9 -25 -9 -14 0 -25 -4
-25 -10 0 -5 -11 -12 -25 -16 -16 -4 -25 -13 -25 -25 0 -10 -4 -19 -9 -19 -5
0 -12 -11 -15 -25 -4 -14 -11 -25 -16 -25 -6 0 -10 -176 -10 -490 0 -320 3
-490 10 -490 6 0 10 -11 10 -25 0 -16 6 -25 15 -25 9 0 15 -9 15 -25 0 -20 5
-25 25 -25 14 0 25 -4 25 -10 0 -5 11 -12 25 -16 14 -3 25 -10 25 -15 0 -5 47
-9 105 -9 63 0 105 4 105 10 0 6 9 10 20 10 11 0 23 7 26 15 4 8 17 15 30 15
19 0 24 5 24 25 0 14 4 25 9 25 5 0 12 11 15 25 4 14 11 25 16 25 6 0 10 175
10 485 0 289 -4 485 -9 485 -5 0 -12 14 -16 30 -4 17 -11 30 -16 30 -5 0 -9 9
-9 20 0 11 -6 20 -14 20 -8 0 -21 6 -28 13 -38 37 -176 60 -250 40z" />
  </g>
</svg>