<?xml version="1.0" standalone="no"?>
<!DOCTYPE svg PUBLIC "-//W3C//DTD SVG 20010904//EN" "http://www.w3.org/TR/2001/REC-SVG-20010904/DTD/svg10.dtd">
<svg version="1.0" xmlns="http://www.w3.org/2000/svg" width="512.000000pt" height="512.000000pt"
  viewBox="0 0 512.000000 512.000000" preserveAspectRatio="xMidYMid meet">

  <g transform="translate(0.000000,512.000000) scale(0.100000,-0.100000)" fill="#464646" stroke="none">
    <path d="M2347 5110 c-788 -71 -1482 -482 -1917 -1137 -225 -339 -352 -681
-411 -1113 -22 -154 -16 -496 10 -669 111 -730 508 -1355 1118 -1761 339 -225
681 -352 1113 -411 154 -22 496 -16 669 10 730 111 1355 508 1761 1118 225
339 352 681 411 1113 22 154 16 496 -10 669 -111 730 -508 1355 -1118 1761
-330 219 -669 347 -1073 405 -131 19 -423 27 -553 15z m593 -320 c458 -81 856
-283 1188 -604 354 -343 576 -761 663 -1251 20 -113 24 -163 24 -375 0 -212
-4 -262 -24 -375 -83 -466 -283 -860 -605 -1193 -343 -354 -761 -576 -1251
-663 -113 -20 -163 -24 -375 -24 -212 0 -262 4 -375 24 -466 83 -860 283
-1193 605 -354 343 -576 761 -663 1251 -20 113 -24 163 -24 375 0 212 4 262
24 375 82 460 281 856 596 1184 374 390 845 624 1385 690 134 17 489 6 630
-19z" />
    <path d="M3040 4045 c-172 -49 -251 -114 -393 -323 -37 -53 -107 -155 -156
-227 -236 -342 -241 -351 -248 -402 -13 -110 65 -196 176 -196 77 0 118 25
176 111 25 37 93 135 150 217 57 83 130 188 161 235 133 197 179 239 262 240
50 0 84 -18 267 -143 203 -139 238 -171 255 -231 23 -84 19 -92 -275 -516
-225 -323 -226 -326 -228 -385 -3 -116 86 -197 198 -182 77 11 99 30 192 164
48 71 99 144 113 164 115 165 261 379 287 422 58 92 78 168 77 287 -1 226 -81
349 -339 525 -71 48 -163 111 -204 138 -115 79 -197 107 -316 113 -71 3 -116
0 -155 -11z" />
    <path d="M2959 3077 c-36 -19 -76 -66 -226 -266 -177 -235 -186 -246 -285
-319 -57 -42 -105 -79 -108 -82 -3 -3 -30 -23 -60 -45 -212 -152 -260 -205
-260 -288 0 -124 130 -211 245 -162 52 21 541 392 567 428 12 18 25 34 28 37
24 22 334 447 345 474 65 154 -98 301 -246 223z" />
    <path d="M1995 2873 c-17 -5 -202 -128 -415 -277 -41 -29 -124 -86 -185 -126
-246 -167 -330 -298 -330 -520 0 -172 4 -181 286 -594 99 -146 190 -221 324
-267 58 -20 88 -24 175 -23 165 3 195 17 555 265 343 237 430 301 449 331 30
46 29 140 -1 188 -36 58 -101 86 -185 82 -24 -2 -135 -72 -348 -221 -424 -295
-429 -298 -504 -287 -61 10 -107 46 -159 123 -25 37 -65 95 -88 128 -114 162
-130 188 -141 230 -10 36 -9 55 1 93 14 54 41 86 120 140 219 150 297 204 373
257 47 33 125 87 173 120 111 77 144 136 124 226 -23 102 -119 158 -224 132z" />
    <path d="M3735 2050 c-60 -5 -168 -14 -239 -21 -143 -14 -141 -9 -21 -59 28
-12 59 -25 70 -30 11 -5 49 -21 85 -35 36 -14 74 -30 85 -35 40 -18 141 -58
177 -69 32 -11 43 -10 82 8 98 43 115 157 34 226 -27 23 -104 28 -273 15z" />
    <path d="M3092 1637 c-6 -62 -17 -191 -23 -289 -11 -165 -10 -179 7 -214 25
-50 75 -77 134 -71 36 4 51 12 77 42 42 49 49 84 27 143 -10 26 -21 52 -24 57
-4 6 -11 21 -15 35 -7 24 -28 74 -61 147 -8 17 -14 34 -14 38 0 4 -6 21 -14
38 -8 18 -24 55 -36 82 -49 115 -45 116 -58 -8z" />
  </g>
</svg>