<?xml version="1.0" standalone="no"?>
<!DOCTYPE svg PUBLIC "-//W3C//DTD SVG 20010904//EN" "http://www.w3.org/TR/2001/REC-SVG-20010904/DTD/svg10.dtd">
<svg version="1.0" xmlns="http://www.w3.org/2000/svg" width="512.000000pt" height="512.000000pt"
  viewBox="0 0 512.000000 512.000000" preserveAspectRatio="xMidYMid meet">

  <g transform="translate(0.000000,512.000000) scale(0.100000,-0.100000)" fill="#464646" stroke="none">
    <path d="M2235 5105 c-462 -60 -885 -237 -1255 -523 -117 -91 -316 -287 -413
-407 -276 -342 -459 -746 -537 -1186 -28 -156 -39 -531 -21 -702 43 -399 182
-790 398 -1122 98 -150 184 -257 318 -394 419 -430 948 -690 1550 -760 134
-16 460 -13 605 4 748 93 1416 512 1833 1150 210 321 344 690 392 1075 20 162
20 477 0 640 -92 742 -510 1412 -1140 1826 -329 216 -695 350 -1085 399 -152
18 -501 18 -645 0z m1135 -2200 l-685 -685 -125 0 -125 0 -685 685 -685 685
1495 0 1495 0 -685 -685z m-1963 -852 l-467 -468 0 935 0 935 467 -468 468
-467 -468 -467z m2773 465 l0 -933 -467 467 -468 468 465 465 c256 256 466
465 467 465 2 0 3 -420 3 -932z m-1620 -478 l204 0 176 175 175 175 430 -430
430 -430 -1415 0 -1415 0 430 430 430 430 175 -175 176 -175 204 0z" />
  </g>
</svg>