<?xml version="1.0" standalone="no"?>
<!DOCTYPE svg PUBLIC "-//W3C//DTD SVG 20010904//EN" "http://www.w3.org/TR/2001/REC-SVG-20010904/DTD/svg10.dtd">
<svg version="1.0" xmlns="http://www.w3.org/2000/svg" width="512.000000pt" height="512.000000pt"
  viewBox="0 0 512.000000 512.000000" preserveAspectRatio="xMidYMid meet">

  <g transform="translate(0.000000,512.000000) scale(0.100000,-0.100000)" fill="#464646" stroke="none">
    <path d="M2343 4591 c-18 -11 -39 -33 -47 -49 -8 -16 -38 -121 -66 -232 -28
-112 -55 -211 -60 -220 -8 -15 -68 -40 -256 -107 l-42 -15 -172 127 c-95 70
-184 134 -199 141 -33 18 -83 18 -124 0 -36 -15 -246 -192 -271 -228 -36 -51
-23 -101 80 -313 53 -109 97 -209 97 -221 0 -13 -18 -51 -40 -86 -22 -35 -52
-86 -66 -114 -14 -27 -33 -57 -43 -64 -12 -11 -83 -20 -246 -32 -263 -20 -285
-27 -312 -101 -20 -54 -56 -269 -56 -336 0 -81 28 -103 262 -206 109 -48 203
-94 209 -101 7 -8 20 -63 30 -122 10 -59 22 -125 25 -146 l7 -39 -171 -166
c-229 -223 -228 -218 -104 -439 79 -140 112 -177 167 -188 32 -6 246 48 433
109 62 20 63 20 86 1 13 -10 65 -52 115 -93 107 -86 101 -56 71 -351 -22 -212
-19 -249 24 -289 35 -33 306 -131 361 -131 77 0 89 12 226 216 70 105 135 194
145 198 9 4 56 4 103 1 l86 -6 123 217 c67 119 121 219 119 221 -2 2 -46 -4
-98 -13 -137 -24 -340 -15 -474 21 -204 54 -407 174 -553 329 -423 447 -423
1135 0 1582 517 547 1399 465 1809 -169 130 -201 201 -465 183 -682 l-6 -81
40 -26 c22 -15 52 -42 65 -60 14 -18 129 -213 256 -433 127 -220 236 -400 242
-400 6 0 33 39 61 87 42 73 50 96 50 136 0 27 -4 58 -10 68 -6 10 -85 93 -177
183 -189 187 -171 146 -140 316 8 44 14 92 15 107 0 38 36 59 250 154 96 42
183 84 194 93 53 46 57 96 22 296 -39 221 -38 220 -341 243 -127 10 -236 21
-243 26 -7 4 -24 31 -39 59 -14 29 -48 86 -74 128 -27 42 -49 83 -49 92 0 9
45 107 100 217 59 118 100 214 100 231 0 60 -26 95 -152 203 -140 120 -177
138 -243 114 -22 -8 -117 -71 -212 -141 -95 -70 -181 -127 -191 -127 -11 0
-52 14 -93 30 -41 17 -98 38 -127 46 -31 9 -58 24 -66 37 -7 12 -37 119 -66
237 -45 186 -56 219 -81 245 l-29 30 -193 3 c-177 2 -195 1 -224 -17z" />
    <path d="M3497 2279 c-37 -36 -888 -1508 -916 -1585 -13 -35 -13 -48 -2 -85
15 -51 58 -94 102 -103 17 -3 433 -6 923 -6 828 0 893 1 926 18 50 24 80 75
80 131 0 43 -33 104 -450 826 -248 429 -462 791 -475 805 -20 19 -37 25 -89
28 -61 4 -65 3 -99 -29z m161 -404 c16 -14 32 -36 34 -50 3 -14 -5 -175 -19
-358 -26 -362 -29 -377 -83 -377 -50 0 -57 31 -80 361 -27 391 -27 384 9 420
39 38 96 40 139 4z m-17 -971 c95 -49 55 -194 -53 -194 -45 0 -92 38 -104 84
-9 37 13 85 50 107 38 23 67 24 107 3z" />
  </g>
</svg>