<?xml version="1.0" standalone="no"?>
<!DOCTYPE svg PUBLIC "-//W3C//DTD SVG 20010904//EN" "http://www.w3.org/TR/2001/REC-SVG-20010904/DTD/svg10.dtd">
<svg version="1.0" xmlns="http://www.w3.org/2000/svg" width="512.000000pt" height="512.000000pt"
  viewBox="0 0 512.000000 512.000000" preserveAspectRatio="xMidYMid meet">

  <g transform="translate(0.000000,512.000000) scale(0.100000,-0.100000)" fill="#464646" stroke="none">
    <path d="M1585 4273 c-98 -43 -156 -98 -195 -185 -43 -97 -267 -856 -320
-1084 -26 -109 -25 -118 8 -154 25 -28 43 -34 252 -79 265 -58 384 -77 580
-90 405 -28 1245 -20 1534 14 71 8 228 33 349 55 308 56 305 52 232 305 -58
205 -114 432 -160 660 -66 328 -108 422 -222 502 -75 52 -137 73 -221 73 -87
0 -175 -25 -393 -111 -249 -97 -279 -104 -489 -103 -163 0 -183 3 -290 31 -63
17 -160 51 -215 75 -225 101 -362 129 -450 91z" />
    <path d="M825 3119 c-308 -101 -466 -230 -441 -362 33 -177 436 -346 1036
-436 332 -50 583 -70 990 -78 649 -12 1242 44 1713 162 387 98 618 240 617
381 -1 85 -88 177 -237 250 -90 44 -339 131 -348 122 -3 -2 11 -60 31 -129 28
-97 35 -135 30 -173 -10 -87 -71 -164 -158 -201 -46 -19 -442 -91 -608 -110
-194 -23 -727 -38 -1090 -31 -520 11 -672 26 -1044 107 -255 55 -277 63 -330
109 -84 74 -99 149 -61 308 15 62 25 115 24 117 -2 2 -58 -14 -124 -36z" />
    <path d="M983 2010 c-73 -44 -108 -135 -100 -264 8 -143 66 -297 168 -447 191
-282 581 -469 984 -473 127 -1 132 0 195 31 47 23 82 51 127 101 74 83 127
112 203 112 76 0 129 -29 203 -112 45 -50 80 -78 127 -101 64 -32 67 -32 200
-31 259 3 526 86 735 227 231 157 415 477 415 722 0 151 -72 255 -177 255 -21
0 -112 -11 -203 -24 -368 -55 -735 -76 -1300 -76 -565 0 -912 20 -1297 75
-207 30 -239 31 -280 5z m997 -295 c150 -27 262 -86 307 -162 22 -38 25 -52
20 -102 -6 -74 -33 -125 -94 -182 -127 -119 -271 -154 -447 -109 -109 28 -190
74 -271 155 -138 137 -156 260 -51 340 97 74 320 99 536 60z m1575 4 c191 -34
277 -145 213 -278 -33 -70 -169 -200 -250 -239 -208 -101 -416 -75 -567 69
-63 60 -92 121 -93 193 -1 62 18 101 68 146 116 101 395 150 629 109z" />
    <path d="M1602 1565 c-30 -7 -61 -19 -69 -28 -14 -14 -14 -19 6 -50 29 -47
109 -121 159 -146 55 -28 146 -51 202 -51 86 0 150 26 208 86 45 47 53 60 50
87 -3 28 -10 36 -58 60 -30 15 -86 34 -125 42 -86 18 -299 18 -373 0z" />
    <path d="M3188 1566 c-127 -29 -197 -72 -184 -114 14 -42 65 -98 115 -126 150
-81 379 -16 491 140 17 24 30 52 28 61 -2 9 -21 23 -43 31 -55 21 -328 26
-407 8z" />
  </g>
</svg>