<?xml version="1.0" standalone="no"?>
<!DOCTYPE svg PUBLIC "-//W3C//DTD SVG 20010904//EN"
 "http://www.w3.org/TR/2001/REC-SVG-20010904/DTD/svg10.dtd">
<svg version="1.0" xmlns="http://www.w3.org/2000/svg"
 width="512.000000pt" height="512.000000pt" viewBox="0 0 512.000000 512.000000"
 preserveAspectRatio="xMidYMid meet">

<g transform="translate(0.000000,512.000000) scale(0.100000,-0.100000)"
fill="#000000" stroke="none">
<path d="M2347 5110 c-788 -71 -1482 -482 -1917 -1137 -225 -339 -352 -681
-411 -1113 -22 -154 -16 -496 10 -669 111 -730 508 -1355 1118 -1761 339 -225
681 -352 1113 -411 154 -22 496 -16 669 10 730 111 1355 508 1761 1118 225
339 352 681 411 1113 22 154 16 496 -10 669 -111 730 -508 1355 -1118 1761
-330 219 -669 347 -1073 405 -131 19 -423 27 -553 15z m593 -320 c458 -81 856
-283 1188 -604 354 -343 576 -761 663 -1251 20 -113 24 -163 24 -375 0 -212
-4 -262 -24 -375 -83 -466 -283 -860 -605 -1193 -343 -354 -761 -576 -1251
-663 -113 -20 -163 -24 -375 -24 -212 0 -262 4 -375 24 -466 83 -860 283
-1193 605 -354 343 -576 761 -663 1251 -20 113 -24 163 -24 375 0 212 4 262
24 375 82 460 281 856 596 1184 374 390 845 624 1385 690 134 17 489 6 630
-19z"/>
<path d="M2465 4041 c-102 -42 -161 -107 -189 -212 -16 -62 -16 -69 0 -135 10
-38 29 -85 43 -104 29 -41 91 -90 139 -109 l32 -13 0 -228 c0 -247 1 -242 -58
-255 -17 -3 -53 -18 -79 -31 l-47 -25 -188 188 c-103 103 -188 192 -188 198 0
5 7 23 15 39 10 18 15 57 15 107 0 69 -4 86 -31 136 -31 57 -82 112 -106 113
-7 0 -13 4 -13 8 0 4 -25 16 -55 25 -61 19 -155 23 -155 7 0 -5 -7 -10 -16
-10 -22 0 -104 -41 -104 -52 0 -4 -6 -8 -13 -8 -18 0 -74 -90 -82 -133 -4 -21
-11 -40 -16 -43 -25 -15 10 -155 55 -221 26 -38 113 -103 138 -103 9 0 20 -4
23 -10 11 -17 126 -11 180 9 l50 19 28 -23 c15 -13 27 -29 27 -35 0 -5 4 -10
9 -10 12 0 81 -69 81 -81 0 -5 4 -9 10 -9 12 0 80 -68 80 -80 0 -6 5 -10 10
-10 13 0 50 -37 50 -50 0 -5 6 -10 13 -11 6 0 25 -16 40 -35 l29 -34 -22 -46
c-12 -25 -28 -66 -34 -92 l-12 -47 -231 -3 -230 -2 -33 62 c-45 88 -75 114
-174 153 -144 57 -331 -43 -375 -201 -64 -232 159 -449 379 -367 88 33 132 72
175 156 l28 57 231 -2 230 -3 8 -35 c5 -19 21 -61 36 -94 l27 -58 -28 -24
c-15 -12 -27 -27 -28 -31 0 -4 -20 -24 -44 -43 -24 -19 -44 -38 -44 -42 -1
-10 -72 -78 -82 -78 -5 0 -9 -4 -9 -9 0 -12 -69 -81 -81 -81 -5 0 -9 -5 -9
-10 0 -6 -12 -21 -27 -34 -24 -20 -30 -22 -64 -12 -21 6 -41 15 -45 19 -11 11
-134 8 -134 -3 0 -5 -10 -10 -22 -10 -35 -1 -126 -62 -156 -106 -26 -38 -48
-98 -59 -159 -6 -36 28 -143 61 -191 46 -68 155 -124 241 -124 102 0 209 64
262 158 30 51 33 65 33 139 0 57 -5 93 -17 118 l-17 36 190 190 189 189 50
-25 c28 -13 69 -29 93 -35 l42 -11 -2 -236 -3 -236 -30 -11 c-35 -13 -114 -67
-115 -79 0 -4 -10 -19 -23 -33 -14 -15 -30 -54 -41 -98 -16 -69 -16 -76 1
-137 62 -230 324 -303 496 -139 31 30 57 59 57 65 0 5 7 24 16 40 21 41 21
169 0 210 -9 17 -16 35 -16 40 0 32 -127 135 -166 135 -7 0 -15 7 -18 16 -9
22 -7 447 2 460 4 6 25 14 47 18 21 4 59 19 82 32 37 20 47 22 63 12 11 -7 20
-18 20 -25 0 -7 4 -13 9 -13 12 0 81 -69 81 -81 0 -5 4 -9 9 -9 12 0 81 -69
81 -81 0 -5 4 -9 9 -9 17 0 152 -144 147 -157 -3 -6 -8 -29 -12 -50 -4 -21
-11 -44 -16 -50 -19 -24 10 -144 50 -208 48 -77 154 -135 247 -135 70 0 160
37 216 90 25 22 59 83 59 103 0 9 5 17 10 17 6 0 10 35 10 84 0 74 -3 90 -31
142 -33 62 -46 77 -94 110 -81 55 -183 68 -271 35 l-51 -20 -189 190 -189 189
22 42 c12 24 29 67 38 96 l17 52 230 -2 c194 -3 232 -5 238 -18 22 -45 45 -86
56 -97 7 -7 14 -16 16 -20 16 -37 146 -93 214 -93 106 0 216 71 267 172 22 44
27 67 27 128 0 61 -5 84 -27 128 -34 68 -105 132 -170 155 -53 18 -158 23
-167 8 -3 -4 -19 -11 -36 -15 -32 -6 -92 -46 -122 -81 -10 -11 -29 -44 -43
-72 l-26 -53 -228 0 -229 0 -17 53 c-9 28 -26 71 -38 95 l-22 42 189 189 189
190 51 -20 c88 -33 190 -20 271 35 48 33 61 48 94 110 27 51 31 69 31 135 0
64 -5 85 -30 135 -42 83 -75 112 -174 151 -143 56 -349 -54 -373 -202 -3 -18
-10 -36 -14 -39 -11 -6 -12 -78 -2 -88 5 -4 13 -31 20 -59 10 -47 9 -53 -10
-79 -12 -15 -28 -27 -34 -27 -7 -1 -13 -5 -13 -10 0 -12 -69 -81 -81 -81 -5 0
-9 -4 -9 -9 0 -12 -69 -81 -81 -81 -5 0 -9 -6 -9 -12 0 -7 -14 -22 -30 -33
-16 -11 -30 -24 -31 -30 0 -5 -15 -22 -34 -37 l-33 -28 -43 24 c-24 14 -62 28
-84 32 -22 4 -43 12 -47 18 -4 6 -8 110 -8 231 0 121 4 225 8 231 4 6 18 15
32 19 35 10 119 75 126 97 3 10 10 18 15 18 5 0 9 6 9 13 0 6 7 25 16 42 10
19 15 57 16 104 0 64 -4 83 -32 137 -69 132 -235 199 -365 145z m183 -161 c53
-38 62 -57 62 -124 0 -61 -26 -103 -83 -132 -94 -49 -230 50 -213 155 3 20 10
37 16 39 5 2 10 9 10 16 0 31 78 76 131 76 24 0 50 -10 77 -30z m-911 -290
c52 -28 73 -65 73 -129 0 -97 -69 -161 -160 -148 -44 6 -110 49 -110 72 0 7
-5 15 -11 17 -7 2 -11 27 -11 58 0 31 4 56 11 58 6 2 11 9 11 16 0 30 78 76
128 76 17 0 48 -9 69 -20z m1798 -1 c54 -27 75 -63 75 -129 0 -61 -18 -96 -67
-127 -51 -34 -109 -31 -161 7 -23 17 -42 36 -42 44 0 8 -5 16 -12 18 -7 3 -12
25 -12 58 0 33 5 55 12 58 7 2 12 9 12 16 0 29 77 76 124 76 16 0 48 -9 71
-21z m-870 -748 c29 -10 61 -25 70 -33 44 -36 84 -81 91 -101 4 -12 12 -25 18
-29 7 -5 11 -47 11 -118 0 -71 -4 -113 -11 -118 -6 -4 -15 -17 -18 -30 -11
-34 -78 -96 -133 -122 -64 -30 -169 -38 -213 -16 -18 9 -38 16 -44 16 -18 0
-116 90 -116 106 0 8 -4 14 -10 14 -5 0 -13 12 -16 28 -4 15 -11 33 -17 40
-13 16 -13 148 0 164 6 7 13 25 17 41 3 15 11 27 16 27 6 0 10 6 10 14 0 16
98 106 116 106 7 0 25 7 40 15 40 21 124 19 189 -4z m-1221 -150 c46 -30 66
-70 66 -129 0 -62 -18 -98 -64 -130 -48 -33 -112 -30 -164 8 -23 17 -42 37
-42 45 0 8 -4 15 -9 15 -21 0 -22 70 -1 114 39 86 143 124 214 77z m2404 -11
c52 -37 62 -57 62 -120 0 -63 -10 -83 -62 -120 -56 -41 -110 -41 -166 0 -23
17 -42 37 -42 45 0 8 -4 15 -10 15 -6 0 -10 27 -10 60 0 33 4 60 10 60 6 0 10
7 10 15 0 8 19 28 42 45 56 41 110 41 166 0z m-2104 -889 c46 -31 66 -70 66
-130 0 -72 -26 -114 -85 -137 -79 -30 -157 0 -192 73 -18 39 -21 115 -3 121 5
2 10 10 10 18 0 8 19 27 42 44 50 36 116 41 162 11z m1796 -2 c51 -29 70 -65
70 -135 0 -54 -2 -59 -40 -95 -42 -40 -91 -56 -137 -44 -36 8 -93 52 -93 70 0
7 -5 15 -12 17 -7 3 -12 25 -12 58 0 33 5 55 12 58 7 2 12 10 12 18 0 8 19 27
42 44 50 36 103 40 158 9z m-902 -298 c51 -26 72 -66 72 -137 0 -54 -2 -59
-40 -95 -42 -40 -91 -56 -137 -44 -36 8 -93 52 -93 70 0 7 -6 15 -12 18 -8 2
-13 23 -13 54 0 114 121 186 223 134z"/>
</g>
</svg>
