<?xml version="1.0" standalone="no"?>
<!DOCTYPE svg PUBLIC "-//W3C//DTD SVG 20010904//EN"
 "http://www.w3.org/TR/2001/REC-SVG-20010904/DTD/svg10.dtd">
<svg version="1.0" xmlns="http://www.w3.org/2000/svg"
 width="512.000000pt" height="512.000000pt" viewBox="0 0 512.000000 512.000000"
 preserveAspectRatio="xMidYMid meet">

<g transform="translate(0.000000,512.000000) scale(0.100000,-0.100000)"
fill="#000000" stroke="none">
<path d="M2460 5110 c0 -5 -18 -13 -40 -16 -22 -4 -40 -10 -40 -15 0 -5 -11
-9 -25 -9 -14 0 -25 -4 -25 -10 0 -5 -11 -12 -25 -16 -14 -3 -25 -10 -25 -15
0 -5 -7 -9 -15 -9 -8 0 -15 -7 -15 -15 0 -8 -7 -15 -15 -15 -14 0 -33 -17 -75
-67 -5 -7 -10 -17 -10 -23 0 -5 -4 -10 -9 -10 -5 0 -12 -11 -15 -25 -4 -14
-11 -25 -16 -25 -6 0 -10 -10 -10 -23 0 -13 -5 -28 -11 -34 -5 -5 -13 -36 -16
-67 -3 -31 -10 -56 -14 -56 -5 0 -9 -18 -9 -40 0 -22 4 -40 9 -40 4 0 11 -33
14 -72 4 -40 11 -74 17 -76 5 -2 10 -15 10 -28 0 -13 4 -24 10 -24 5 0 12 -11
16 -25 3 -14 10 -25 15 -25 5 0 9 -7 9 -15 0 -8 7 -15 15 -15 9 0 15 -9 15
-25 0 -16 6 -25 15 -25 9 0 26 -11 39 -25 13 -14 28 -25 35 -25 6 0 11 -4 11
-10 0 -5 11 -12 25 -16 14 -3 25 -10 25 -15 0 -5 11 -9 25 -9 16 0 25 -6 25
-15 0 -9 9 -15 24 -15 13 0 27 -7 30 -16 8 -20 8 -752 0 -781 -5 -20 -13 -23
-54 -23 -27 0 -50 -3 -52 -7 -5 -13 -68 -43 -89 -43 -10 0 -19 -4 -19 -10 0
-5 -9 -10 -20 -10 -11 0 -23 -7 -26 -15 -7 -17 -74 -21 -74 -4 0 11 -24 39
-34 39 -10 0 -66 59 -66 70 0 5 -5 10 -10 10 -11 0 -70 56 -70 66 0 10 -28 34
-39 34 -6 0 -11 7 -11 15 0 8 -5 15 -11 15 -14 0 -39 25 -39 39 0 6 -5 11 -11
11 -14 0 -39 25 -39 39 0 6 -5 11 -11 11 -14 0 -39 25 -39 39 0 6 -7 11 -15
11 -8 0 -15 5 -15 11 0 14 -25 39 -39 39 -6 0 -11 7 -11 15 0 8 -5 15 -11 15
-14 0 -39 25 -39 39 0 6 -5 11 -11 11 -14 0 -39 25 -39 39 0 6 -7 11 -15 11
-8 0 -15 5 -15 11 0 6 -7 17 -15 25 -8 9 -15 20 -15 25 0 5 7 12 15 15 9 4 15
19 15 39 0 18 6 35 13 38 9 3 12 42 12 152 0 110 -3 149 -12 153 -7 2 -13 19
-13 37 0 20 -6 35 -15 39 -8 3 -15 12 -15 21 0 8 -4 15 -10 15 -5 0 -10 7 -10
15 0 14 -82 105 -95 105 -10 0 -35 28 -35 39 0 6 -11 11 -25 11 -14 0 -25 5
-25 10 0 6 -6 10 -14 10 -8 0 -21 6 -28 14 -8 7 -32 16 -54 19 -21 3 -59 10
-84 15 -49 11 -180 4 -180 -9 0 -5 -15 -9 -34 -9 -19 0 -36 -3 -38 -7 -5 -12
-67 -43 -85 -43 -17 0 -43 -24 -43 -39 0 -6 -11 -11 -24 -11 -17 0 -26 -7 -30
-25 -4 -14 -11 -25 -16 -25 -6 0 -10 -5 -10 -11 0 -14 -25 -39 -39 -39 -6 0
-11 -10 -11 -22 0 -13 -7 -32 -15 -42 -8 -11 -15 -30 -15 -43 0 -13 -4 -23
-10 -23 -5 0 -10 -18 -10 -40 0 -22 -4 -40 -10 -40 -6 0 -10 -32 -10 -75 0
-43 4 -75 10 -75 6 0 10 -18 10 -40 0 -22 5 -40 10 -40 6 0 10 -11 10 -24 0
-14 7 -31 15 -40 8 -8 15 -24 15 -35 0 -12 5 -21 10 -21 6 0 10 -7 10 -15 0
-8 7 -15 15 -15 9 0 15 -9 15 -25 0 -14 5 -25 11 -25 6 0 17 -6 24 -12 33 -30
45 -38 55 -38 5 0 10 -7 10 -15 0 -9 9 -15 25 -15 14 0 25 -4 25 -10 0 -5 7
-10 15 -10 8 0 15 -7 15 -15 0 -11 11 -15 40 -15 22 0 40 -4 40 -10 0 -6 48
-10 125 -10 77 0 125 4 125 10 0 6 18 10 40 10 22 0 40 4 40 10 0 5 11 12 25
16 14 3 25 10 25 15 0 20 20 7 26 -16 3 -14 13 -25 21 -25 7 0 25 -12 38 -27
39 -44 42 -47 69 -68 14 -11 25 -28 26 -37 0 -10 7 -18 15 -18 18 0 65 -47 65
-65 0 -8 6 -15 13 -15 18 0 137 -117 137 -135 0 -8 7 -15 15 -15 12 0 47 -31
102 -92 6 -7 23 -22 37 -33 14 -11 25 -27 26 -36 0 -9 11 -20 25 -23 22 -6 25
-12 25 -53 0 -36 -5 -51 -25 -69 -16 -15 -25 -34 -25 -54 0 -16 -4 -30 -9 -30
-5 0 -11 -18 -15 -40 -3 -22 -11 -40 -16 -40 -6 0 -10 -16 -10 -35 l0 -35
-396 0 c-429 0 -424 -1 -424 54 0 14 -4 26 -10 26 -5 0 -12 11 -16 25 -3 14
-10 25 -15 25 -5 0 -9 8 -9 19 0 10 -11 27 -25 37 -14 10 -25 24 -25 31 0 7
-5 13 -11 13 -14 0 -39 25 -39 39 0 6 -7 11 -15 11 -8 0 -15 4 -15 9 0 5 -11
12 -25 15 -14 4 -25 11 -25 16 0 6 -11 10 -25 10 -14 0 -25 4 -25 10 0 5 -18
13 -40 16 -22 4 -40 10 -40 15 0 5 -52 9 -115 9 -63 0 -115 -4 -115 -9 0 -5
-18 -11 -40 -15 -22 -3 -40 -11 -40 -16 0 -6 -11 -10 -25 -10 -14 0 -25 -4
-25 -10 0 -5 -11 -12 -25 -16 -14 -3 -25 -10 -25 -15 0 -5 -5 -9 -10 -9 -6 0
-16 -5 -23 -10 -50 -42 -67 -61 -67 -75 0 -8 -7 -15 -15 -15 -8 0 -15 -7 -15
-15 0 -8 -4 -15 -10 -15 -5 0 -10 -11 -10 -25 0 -16 -6 -25 -15 -25 -9 0 -15
-9 -15 -24 0 -13 -6 -26 -12 -29 -18 -5 -18 -349 0 -354 6 -3 12 -16 12 -29 0
-15 6 -24 15 -24 9 0 15 -9 15 -25 0 -14 5 -25 10 -25 6 0 10 -7 10 -15 0 -8
7 -15 15 -15 8 0 15 -5 15 -11 0 -10 6 -18 37 -51 22 -23 42 -38 53 -38 5 0
10 -4 10 -9 0 -5 11 -12 25 -15 14 -4 25 -11 25 -16 0 -6 11 -10 25 -10 14 0
25 -4 25 -10 0 -5 18 -13 40 -16 22 -4 40 -10 40 -15 0 -5 52 -9 115 -9 63 0
115 4 115 9 0 5 18 11 40 15 22 3 40 11 40 16 0 6 11 10 25 10 14 0 25 4 25 9
0 5 10 13 22 17 12 3 36 22 54 40 17 19 36 34 43 34 6 0 11 6 11 13 0 7 11 21
25 31 14 10 25 27 25 37 0 11 5 19 10 19 6 0 10 5 10 11 0 6 7 17 15 25 8 9
15 27 15 40 0 54 -4 54 424 54 l396 0 0 -35 c0 -19 4 -35 10 -35 5 0 13 -18
16 -40 4 -22 10 -40 15 -40 5 0 9 -11 9 -25 0 -14 4 -25 9 -25 5 0 12 -11 15
-25 4 -14 11 -25 16 -25 6 0 10 -22 10 -50 0 -45 -3 -50 -25 -56 -14 -3 -25
-10 -25 -16 0 -18 -69 -88 -86 -88 -7 0 -15 -11 -18 -25 -4 -16 -13 -25 -26
-25 -11 0 -20 -7 -20 -15 0 -8 -7 -15 -15 -15 -8 0 -15 -8 -15 -17 -1 -10 -12
-27 -26 -38 -27 -21 -30 -24 -69 -68 -13 -15 -31 -27 -40 -27 -8 0 -15 -7 -15
-15 0 -18 -47 -65 -65 -65 -8 0 -15 -6 -15 -13 0 -11 -25 -40 -62 -74 -7 -6
-22 -23 -33 -37 -11 -14 -27 -25 -36 -26 -9 0 -20 -11 -23 -25 -6 -23 -26 -36
-26 -16 0 5 -11 12 -25 15 -14 4 -25 11 -25 16 0 6 -18 10 -40 10 -22 0 -40 5
-40 10 0 6 -45 10 -115 10 -70 0 -115 -4 -115 -10 0 -5 -18 -10 -40 -10 -22 0
-40 -4 -40 -10 0 -5 -11 -12 -25 -16 -14 -3 -25 -10 -25 -15 0 -5 -8 -9 -19
-9 -10 0 -26 -11 -37 -24 -10 -14 -28 -27 -41 -31 -13 -3 -23 -10 -23 -15 0
-6 -7 -10 -15 -10 -9 0 -15 -9 -15 -25 0 -16 -6 -25 -15 -25 -8 0 -15 -7 -15
-15 0 -8 -4 -15 -10 -15 -5 0 -10 -9 -10 -20 0 -11 -4 -20 -10 -20 -5 0 -13
-18 -16 -40 -4 -22 -10 -40 -15 -40 -5 0 -9 -18 -9 -40 0 -22 -4 -40 -10 -40
-13 0 -13 -147 0 -155 5 -3 10 -22 10 -41 0 -19 4 -34 9 -34 5 0 11 -18 15
-40 3 -22 11 -40 16 -40 6 0 10 -9 10 -21 0 -22 22 -49 39 -49 6 0 11 -11 11
-25 0 -16 6 -25 15 -25 8 0 15 -7 15 -15 0 -8 9 -15 20 -15 11 0 20 -4 20 -10
0 -5 7 -10 15 -10 8 0 15 -7 15 -15 0 -9 9 -15 25 -15 14 0 25 -4 25 -10 0 -5
11 -12 25 -16 14 -3 25 -10 25 -15 0 -5 17 -9 38 -9 21 0 47 -7 58 -15 26 -19
160 -20 194 0 14 8 42 14 63 15 20 0 37 4 37 10 0 5 11 12 25 16 14 3 25 10
25 15 0 5 11 9 25 9 16 0 25 6 25 15 0 8 5 15 10 15 14 0 90 75 90 89 0 6 7
11 15 11 8 0 15 9 15 20 0 11 5 20 10 20 6 0 10 7 10 15 0 9 7 18 15 21 9 4
15 19 15 39 0 18 6 35 13 38 9 3 12 42 12 152 0 110 -3 149 -12 153 -7 2 -13
19 -13 37 0 20 -6 35 -15 39 -8 3 -15 14 -15 23 0 19 32 53 50 53 6 0 10 5 10
11 0 14 25 39 39 39 6 0 11 5 11 11 0 14 25 39 39 39 6 0 11 5 11 11 0 14 25
39 39 39 6 0 11 7 11 15 0 8 5 15 11 15 14 0 39 25 39 39 0 6 7 11 15 11 8 0
15 5 15 11 0 14 25 39 39 39 6 0 11 5 11 11 0 14 25 39 39 39 6 0 11 7 11 15
0 8 5 15 11 15 11 0 39 24 39 34 0 10 110 116 120 116 5 0 10 5 10 10 0 23 61
70 90 70 17 0 30 -4 30 -10 0 -5 7 -10 15 -10 8 0 15 -7 15 -15 0 -10 10 -15
29 -15 17 0 32 -4 36 -9 3 -5 19 -12 35 -16 17 -4 30 -11 30 -16 0 -5 22 -9
49 -9 42 0 49 -3 55 -22 8 -30 8 -762 0 -782 -3 -9 -17 -16 -30 -16 -13 0 -24
-4 -24 -10 0 -5 -11 -12 -25 -16 -14 -3 -25 -10 -25 -15 0 -5 -11 -9 -25 -9
-16 0 -25 -6 -25 -15 0 -8 -5 -15 -11 -15 -7 0 -22 -11 -35 -25 -13 -14 -30
-25 -39 -25 -9 0 -15 -9 -15 -25 0 -16 -6 -25 -15 -25 -8 0 -15 -7 -15 -15 0
-8 -4 -15 -10 -15 -5 0 -12 -11 -16 -25 -3 -14 -10 -25 -15 -25 -5 0 -9 -11
-9 -24 0 -13 -5 -26 -10 -28 -6 -2 -13 -36 -17 -76 -3 -39 -10 -72 -14 -72 -5
0 -9 -18 -9 -40 0 -22 4 -40 9 -40 4 0 11 -26 14 -57 3 -32 11 -59 17 -61 5
-2 10 -17 10 -33 0 -16 4 -29 10 -29 5 0 12 -11 16 -25 3 -14 10 -25 15 -25 5
0 9 -5 9 -11 0 -13 25 -39 38 -39 5 0 13 -11 16 -25 4 -16 13 -25 26 -25 11 0
20 -7 20 -15 0 -8 7 -15 15 -15 8 0 15 -4 15 -10 0 -5 11 -10 25 -10 16 0 25
-6 25 -15 0 -9 9 -15 25 -15 14 0 25 -4 25 -9 0 -5 18 -11 40 -15 22 -3 40
-11 40 -16 0 -6 43 -10 105 -10 59 0 105 4 105 9 0 6 20 13 45 17 25 3 45 10
45 15 0 5 11 9 25 9 14 0 28 7 31 15 4 8 15 15 26 15 21 0 48 22 48 39 0 6 5
11 11 11 14 0 39 25 39 39 0 6 7 11 15 11 8 0 15 5 15 11 0 14 25 39 39 39 6
0 11 11 11 24 0 14 4 27 9 30 5 3 12 22 15 41 4 19 11 35 16 35 6 0 10 25 10
55 0 30 6 64 12 75 10 16 10 24 0 40 -6 11 -12 47 -12 80 0 33 -4 60 -10 60
-5 0 -12 16 -16 35 -3 19 -10 35 -15 35 -5 0 -9 11 -9 25 0 16 -6 25 -15 25
-8 0 -15 7 -15 15 0 8 -4 15 -10 15 -5 0 -10 5 -10 11 0 14 -25 39 -39 39 -6
0 -11 7 -11 15 0 8 -7 15 -15 15 -8 0 -15 4 -15 8 0 5 -16 17 -35 28 -19 10
-35 22 -35 26 0 5 -9 8 -19 8 -20 0 -76 27 -98 47 -16 15 -19 773 -3 773 6 0
10 7 10 15 0 11 11 15 40 15 22 0 40 4 40 9 0 5 18 11 40 15 22 3 40 11 40 16
0 6 11 10 25 10 14 0 25 4 25 10 0 5 11 12 25 16 14 3 25 10 25 15 0 5 14 9
30 9 21 0 39 -9 55 -27 39 -44 42 -47 69 -68 14 -11 25 -28 26 -37 0 -10 7
-18 15 -18 18 0 65 -47 65 -65 0 -8 7 -15 15 -15 9 0 27 -12 40 -28 39 -43 42
-46 69 -67 14 -11 25 -28 26 -37 0 -10 7 -18 15 -18 18 0 65 -47 65 -65 0 -8
6 -15 13 -15 17 0 137 -117 137 -134 0 -8 11 -17 25 -20 24 -6 37 -46 15 -46
-5 0 -10 -11 -10 -25 0 -14 -7 -28 -15 -31 -11 -4 -15 -21 -15 -55 0 -27 -4
-49 -10 -49 -6 0 -10 -28 -10 -65 0 -37 4 -65 10 -65 6 0 10 -27 10 -60 0 -33
4 -60 9 -60 5 0 12 -14 16 -30 4 -17 11 -30 16 -30 5 0 9 -8 9 -19 0 -10 11
-26 24 -37 14 -10 27 -28 31 -41 3 -13 10 -23 15 -23 6 0 10 -7 10 -15 0 -9 9
-15 21 -15 12 0 32 -11 45 -25 13 -14 30 -25 39 -25 8 0 15 -4 15 -9 0 -5 14
-12 30 -16 17 -4 30 -10 30 -14 0 -5 21 -11 47 -14 26 -3 49 -10 51 -16 6 -17
152 -13 182 4 14 8 42 14 63 15 20 0 37 4 37 9 0 5 11 12 25 15 14 4 25 11 25
16 0 6 9 10 20 10 12 0 31 11 44 25 13 14 26 25 30 25 10 0 36 26 36 36 0 4
10 16 23 28 12 11 30 38 40 59 10 20 22 37 27 37 6 0 10 15 10 34 0 19 6 36
13 38 8 3 13 42 15 137 3 108 1 137 -12 156 -9 13 -16 33 -16 45 0 11 -4 20
-10 20 -5 0 -10 11 -10 25 0 16 -6 25 -15 25 -9 0 -15 9 -15 25 0 16 -6 25
-15 25 -8 0 -15 7 -15 15 0 8 -4 15 -10 15 -5 0 -10 6 -10 13 0 8 -11 20 -25
27 -14 7 -25 17 -25 22 0 4 -7 8 -15 8 -8 0 -15 7 -15 15 0 9 -9 15 -25 15
-14 0 -25 4 -25 9 0 5 -11 12 -25 15 -14 4 -25 11 -25 16 0 6 -18 10 -40 10
-22 0 -40 5 -40 10 0 6 -43 10 -110 10 -67 0 -110 -4 -110 -10 0 -5 -20 -10
-45 -10 -25 0 -45 -4 -45 -10 0 -5 -11 -12 -25 -16 -14 -3 -25 -10 -25 -15 0
-5 -4 -9 -10 -9 -5 0 -10 5 -10 11 0 14 -25 39 -39 39 -6 0 -11 7 -11 15 0 8
-5 15 -11 15 -14 0 -39 25 -39 39 0 6 -5 11 -11 11 -14 0 -39 25 -39 39 0 6
-5 11 -11 11 -14 0 -39 25 -39 39 0 6 -7 11 -15 11 -8 0 -15 5 -15 11 0 14
-25 39 -39 39 -6 0 -11 7 -11 15 0 8 -5 15 -11 15 -14 0 -39 25 -39 39 0 6 -5
11 -11 11 -14 0 -39 25 -39 39 0 6 -7 11 -15 11 -8 0 -15 5 -15 11 0 14 -25
39 -39 39 -6 0 -11 5 -11 11 0 11 -24 39 -34 39 -10 0 -66 59 -66 70 0 5 -5
10 -10 10 -17 0 -70 59 -70 77 0 9 11 26 25 39 14 13 25 32 25 44 0 11 4 20
10 20 5 0 12 16 16 35 3 19 10 35 15 35 5 0 9 16 9 36 0 20 8 49 17 65 l17 29
391 0 391 0 17 -29 c9 -16 17 -39 17 -50 0 -12 4 -21 9 -21 5 0 12 -11 15 -25
4 -14 11 -25 16 -25 6 0 10 -5 10 -11 0 -7 11 -22 25 -35 14 -13 25 -30 25
-37 0 -8 11 -18 25 -21 14 -4 25 -11 25 -16 0 -6 5 -10 11 -10 6 0 17 -6 24
-13 36 -32 46 -37 69 -37 13 0 26 -5 28 -11 2 -6 25 -13 51 -16 26 -3 47 -10
47 -14 0 -5 41 -9 90 -9 50 0 90 4 90 9 0 5 23 11 50 15 28 4 50 11 50 16 0 6
11 10 25 10 14 0 25 4 25 9 0 5 11 12 25 15 14 4 25 11 25 16 0 6 7 10 15 10
8 0 15 7 15 15 0 8 5 15 11 15 14 0 39 25 39 39 0 6 5 11 11 11 17 0 39 27 39
49 0 12 6 21 15 21 9 0 15 9 15 25 0 14 5 25 10 25 6 0 10 11 10 25 0 14 7 28
15 31 12 5 15 32 15 154 0 122 -3 149 -15 154 -8 3 -15 17 -15 31 0 14 -4 25
-10 25 -5 0 -10 11 -10 25 0 14 -4 25 -9 25 -5 0 -13 10 -17 22 -8 26 -28 48
-43 48 -6 0 -11 5 -11 11 0 6 -6 17 -14 25 -8 8 -19 14 -25 14 -6 0 -11 7 -11
15 0 8 -7 15 -15 15 -8 0 -15 4 -15 10 0 5 -11 12 -25 16 -14 3 -25 10 -25 15
0 5 -11 9 -25 9 -14 0 -25 4 -25 10 0 5 -18 13 -40 16 -22 4 -40 10 -40 15 0
5 -49 9 -110 9 -67 0 -110 -4 -110 -10 0 -5 -10 -10 -22 -10 -13 0 -36 -7 -52
-15 -15 -8 -35 -15 -43 -15 -8 0 -21 -6 -28 -12 -33 -30 -45 -38 -55 -38 -5 0
-10 -4 -10 -10 0 -5 -11 -12 -25 -16 -14 -3 -25 -13 -25 -21 0 -7 -11 -24 -25
-37 -14 -13 -25 -28 -25 -35 0 -6 -4 -11 -10 -11 -5 0 -12 -11 -16 -25 -3 -14
-10 -25 -15 -25 -5 0 -9 -11 -9 -24 0 -13 -7 -29 -15 -36 -8 -7 -15 -19 -15
-26 0 -12 -66 -14 -393 -14 -445 0 -411 -7 -424 85 -3 25 -9 45 -13 45 -4 0
-11 16 -14 35 -4 19 -11 35 -16 35 -6 0 -10 9 -10 20 0 12 -11 31 -25 44 -28
26 -34 66 -10 66 8 0 15 5 15 10 0 6 18 28 40 50 22 22 45 40 50 40 6 0 10 5
10 10 0 11 56 70 66 70 10 0 34 28 34 39 0 6 7 11 15 11 8 0 15 5 15 11 0 14
25 39 39 39 6 0 11 5 11 11 0 14 25 39 39 39 6 0 11 5 11 11 0 14 25 39 39 39
6 0 11 7 11 15 0 8 5 15 11 15 14 0 39 25 39 39 0 6 7 11 15 11 8 0 15 5 15
11 0 14 25 39 39 39 6 0 11 5 11 11 0 6 6 17 14 25 8 8 19 14 25 14 6 0 11 7
11 15 0 8 5 15 11 15 14 0 39 25 39 39 0 6 5 11 10 11 6 0 10 -4 10 -9 0 -5
11 -12 25 -15 14 -4 25 -11 25 -16 0 -6 20 -10 45 -10 25 0 45 -4 45 -10 0 -6
43 -10 110 -10 67 0 110 4 110 10 0 6 18 10 40 10 22 0 40 4 40 10 0 5 11 12
25 16 14 3 25 10 25 15 0 5 11 9 25 9 16 0 25 6 25 15 0 8 5 15 11 15 14 0 89
76 89 90 0 5 6 10 14 10 8 0 17 11 20 25 4 14 11 25 16 25 6 0 10 11 10 25 0
14 5 25 10 25 6 0 10 10 10 23 0 12 7 31 15 41 21 28 21 253 0 280 -8 11 -15
35 -15 53 0 18 -4 33 -10 33 -5 0 -10 7 -10 15 0 9 -7 18 -15 21 -8 4 -15 13
-15 21 0 7 -11 24 -25 37 -14 13 -25 26 -25 30 0 10 -26 36 -36 36 -4 0 -17
11 -30 25 -13 14 -32 25 -44 25 -11 0 -20 4 -20 10 0 5 -11 12 -25 16 -14 3
-25 10 -25 15 0 5 -15 9 -33 9 -18 0 -38 5 -45 12 -20 20 -181 23 -226 4 -21
-9 -49 -16 -62 -16 -13 0 -24 -4 -24 -10 0 -5 -11 -12 -25 -16 -14 -3 -25 -10
-25 -15 0 -5 -9 -9 -21 -9 -22 0 -49 -22 -49 -39 0 -6 -11 -11 -25 -11 -16 0
-25 -6 -25 -15 0 -8 -4 -15 -10 -15 -5 0 -12 -10 -15 -23 -4 -13 -17 -31 -31
-41 -13 -11 -24 -27 -24 -37 0 -11 -4 -19 -9 -19 -5 0 -12 -13 -16 -30 -4 -16
-11 -30 -16 -30 -5 0 -9 -22 -9 -50 0 -27 -4 -50 -10 -50 -6 0 -10 -32 -10
-75 0 -43 4 -75 10 -75 6 0 10 -22 10 -49 0 -34 4 -51 15 -55 8 -3 15 -15 15
-26 0 -11 5 -20 10 -20 6 0 10 -11 10 -25 0 -18 -7 -26 -25 -31 -14 -3 -25
-14 -25 -23 -1 -9 -12 -25 -26 -36 -27 -21 -30 -24 -69 -67 -13 -16 -31 -28
-40 -28 -8 0 -15 -7 -15 -15 0 -18 -47 -65 -65 -65 -8 0 -15 -6 -15 -13 0 -11
-25 -40 -62 -74 -7 -6 -22 -23 -33 -37 -11 -14 -28 -25 -37 -26 -10 0 -18 -7
-18 -15 0 -18 -47 -65 -65 -65 -8 0 -15 -5 -15 -10 0 -20 -68 -90 -86 -90 -7
0 -15 -11 -18 -25 -5 -20 -13 -25 -38 -25 -20 0 -39 9 -54 25 -15 16 -34 25
-54 25 -16 0 -30 4 -30 10 0 5 -18 13 -40 16 -22 4 -40 10 -40 15 0 5 -18 9
-40 9 -29 0 -40 4 -40 15 0 8 -4 15 -10 15 -16 0 -13 758 3 773 22 20 78 47
98 47 10 0 19 5 19 10 0 6 7 10 15 10 8 0 25 11 39 25 14 14 30 25 36 25 5 0
10 7 10 15 0 8 5 15 11 15 14 0 39 25 39 39 0 6 5 11 10 11 6 0 10 7 10 15 0
8 7 15 15 15 9 0 15 9 15 25 0 14 4 25 9 25 5 0 12 18 16 40 4 22 11 40 16 40
5 0 9 25 9 55 0 30 6 64 12 75 10 16 10 24 0 40 -6 11 -12 45 -12 75 0 30 -4
55 -10 55 -5 0 -10 9 -10 21 0 27 -30 82 -67 124 -7 7 -13 18 -13 24 0 6 -7
11 -15 11 -8 0 -15 5 -15 11 0 14 -25 39 -39 39 -6 0 -11 5 -11 11 0 17 -27
39 -48 39 -11 0 -22 7 -26 15 -3 8 -15 15 -26 15 -11 0 -20 5 -20 10 0 6 -13
10 -29 10 -16 0 -36 7 -45 15 -11 12 -40 15 -125 15 -67 0 -111 -4 -111 -10z
m178 -262 c2 -4 15 -8 28 -8 13 0 24 -4 24 -9 0 -5 10 -13 22 -17 26 -8 48
-28 48 -43 0 -6 7 -11 15 -11 9 0 15 -9 15 -21 0 -11 7 -27 15 -35 11 -12 15
-39 15 -105 0 -72 -3 -89 -15 -89 -9 0 -15 -9 -15 -25 0 -14 -4 -25 -10 -25
-5 0 -10 -7 -10 -15 0 -8 -7 -15 -15 -15 -8 0 -15 -7 -15 -15 0 -8 -7 -15 -15
-15 -8 0 -15 -4 -15 -10 0 -5 -10 -10 -23 -10 -13 0 -32 -7 -43 -15 -21 -16
-134 -21 -134 -5 0 5 -17 12 -37 16 -26 5 -53 23 -90 60 -44 44 -53 59 -53 88
0 20 -4 36 -10 36 -5 0 -10 23 -10 50 0 28 5 50 10 50 6 0 10 11 10 25 0 14 5
25 10 25 6 0 10 11 10 25 0 16 6 25 15 25 8 0 15 7 15 15 0 8 5 15 11 15 7 0
22 11 35 25 15 16 34 25 54 25 16 0 30 4 30 9 0 20 121 19 128 -1z m-1538
-508 c0 -5 11 -10 24 -10 13 0 29 -7 36 -15 7 -8 19 -15 26 -15 8 0 14 -4 14
-10 0 -5 7 -10 15 -10 8 0 15 -7 15 -15 0 -8 4 -15 9 -15 5 0 12 -11 15 -25 4
-14 11 -25 16 -25 15 0 13 -198 -2 -216 -7 -8 -19 -21 -25 -29 -7 -7 -13 -17
-13 -22 0 -11 -37 -43 -50 -43 -6 0 -10 -4 -10 -9 0 -5 -16 -12 -35 -15 -19
-4 -35 -11 -35 -16 0 -6 -29 -10 -65 -10 -37 0 -65 4 -65 10 0 6 -11 10 -24
10 -14 0 -31 7 -40 15 -8 8 -17 15 -21 15 -15 0 -65 60 -65 78 0 11 -7 22 -15
26 -9 3 -15 19 -15 41 0 19 -4 35 -10 35 -5 0 -10 11 -10 25 0 14 5 25 10 25
6 0 10 18 10 40 0 29 4 40 15 40 9 0 15 9 15 21 0 19 49 79 65 79 4 0 13 7 21
15 9 8 26 15 40 15 13 0 24 5 24 10 0 6 28 10 65 10 37 0 65 -4 65 -10z m3070
0 c0 -5 9 -10 19 -10 22 0 81 -31 81 -42 0 -5 7 -8 15 -8 8 0 15 -7 15 -15 0
-8 4 -15 10 -15 5 0 12 -11 16 -25 3 -14 10 -25 15 -25 5 0 9 -45 9 -100 0
-55 -4 -100 -9 -100 -5 0 -11 -10 -15 -22 -7 -30 -61 -88 -80 -88 -9 0 -16 -4
-16 -10 0 -5 -7 -10 -15 -10 -8 0 -15 -7 -15 -15 0 -12 -17 -15 -90 -15 -49 0
-90 4 -90 9 0 5 -11 12 -25 15 -14 4 -25 11 -25 16 0 6 -5 10 -11 10 -18 0
-69 57 -69 78 0 11 -7 22 -15 26 -9 3 -15 19 -15 41 0 19 -4 35 -10 35 -5 0
-10 11 -10 25 0 14 5 25 10 25 6 0 10 18 10 40 0 29 4 40 15 40 9 0 15 9 15
21 0 19 49 79 65 79 4 0 13 7 21 15 9 8 26 15 40 15 13 0 24 5 24 10 0 6 28
10 65 10 37 0 65 -4 65 -10z m-1500 -1280 c0 -5 15 -10 33 -10 18 0 42 -7 53
-15 10 -8 27 -15 38 -15 10 0 29 -11 42 -25 13 -14 28 -25 34 -25 14 0 120
-105 120 -119 0 -5 6 -16 13 -23 20 -23 47 -78 47 -98 0 -10 5 -20 11 -22 16
-5 16 -291 0 -296 -6 -2 -11 -12 -11 -22 0 -20 -27 -75 -47 -98 -7 -7 -13 -18
-13 -23 0 -11 -104 -119 -115 -119 -6 0 -19 -10 -50 -37 -7 -7 -22 -13 -32
-13 -10 0 -27 -7 -37 -15 -11 -8 -37 -15 -58 -15 -21 0 -38 -4 -38 -10 0 -6
-40 -10 -100 -10 -60 0 -100 4 -100 10 0 6 -16 10 -35 10 -22 0 -38 6 -41 15
-4 8 -17 15 -30 15 -13 0 -24 4 -24 9 0 5 -11 12 -25 15 -14 4 -25 11 -25 16
0 6 -5 10 -11 10 -14 0 -39 25 -39 39 0 6 -7 11 -15 11 -8 0 -15 5 -15 11 0
14 -25 39 -39 39 -6 0 -11 11 -11 25 0 16 -6 25 -15 25 -8 0 -15 7 -15 15 0 8
-4 15 -10 15 -5 0 -10 10 -10 23 0 13 -7 32 -15 43 -9 11 -14 42 -15 77 0 31
-4 57 -10 57 -5 0 -10 14 -10 30 0 17 5 30 10 30 6 0 10 26 10 58 1 34 6 65
15 76 8 11 15 30 15 43 0 13 5 23 10 23 6 0 10 7 10 15 0 8 7 15 15 15 8 0 15
9 15 21 0 21 100 129 119 129 6 0 11 4 11 10 0 5 11 12 25 16 14 3 25 10 25
15 0 5 9 9 21 9 11 0 27 7 35 15 9 8 29 15 45 15 16 0 29 5 29 10 0 6 42 10
105 10 63 0 105 -4 105 -10z m-2062 -258 c2 -7 15 -12 28 -12 13 0 24 -4 24
-10 0 -5 7 -10 15 -10 8 0 15 -7 15 -15 0 -8 7 -15 15 -15 8 0 15 -7 15 -15 0
-8 4 -15 10 -15 5 0 12 -11 16 -25 3 -14 10 -25 15 -25 5 0 9 -45 9 -99 0 -79
-3 -100 -15 -105 -8 -3 -15 -15 -15 -26 0 -11 -4 -20 -10 -20 -5 0 -10 -7 -10
-15 0 -8 -5 -15 -11 -15 -7 0 -22 -11 -35 -25 -13 -14 -32 -25 -43 -25 -10 0
-21 -5 -23 -11 -2 -6 -35 -14 -74 -16 -56 -4 -73 -2 -86 11 -9 9 -24 16 -33
16 -9 0 -26 11 -39 25 -13 14 -28 25 -35 25 -6 0 -11 7 -11 15 0 8 -4 15 -9
15 -5 0 -12 11 -15 25 -4 14 -11 25 -16 25 -6 0 -10 16 -10 35 0 19 -4 35 -10
35 -5 0 -10 14 -10 30 0 17 5 30 10 30 6 0 10 16 10 35 0 19 4 35 9 35 5 0 12
11 15 25 4 14 11 25 16 25 6 0 10 7 10 15 0 8 7 15 15 15 8 0 15 7 15 15 0 8
7 15 15 15 8 0 15 5 15 10 0 6 9 10 21 10 11 0 28 7 36 16 13 13 32 15 87 12
42 -2 71 -9 74 -16z m4078 3 c4 -8 17 -15 30 -15 13 0 24 -4 24 -9 0 -5 10
-13 22 -17 26 -8 48 -28 48 -43 0 -6 7 -11 15 -11 9 0 15 -9 15 -24 0 -13 6
-26 13 -28 8 -3 12 -32 12 -98 0 -66 -4 -95 -12 -97 -7 -3 -13 -16 -13 -29 0
-15 -6 -24 -15 -24 -8 0 -15 -5 -15 -11 0 -15 -22 -35 -48 -43 -12 -4 -22 -12
-22 -17 0 -5 -11 -9 -24 -9 -13 0 -27 -7 -30 -16 -5 -13 -19 -16 -78 -12 -44
2 -73 9 -76 16 -2 7 -13 12 -23 12 -24 0 -109 81 -109 103 0 8 -5 17 -12 19
-17 6 -18 210 0 215 6 3 12 12 12 20 0 22 86 103 110 103 11 0 20 4 20 9 0 13
25 18 93 20 43 1 59 -3 63 -14z m-3566 -1534 c0 -5 11 -12 25 -15 14 -4 25
-11 25 -16 0 -6 5 -10 11 -10 16 0 65 -52 73 -78 4 -12 12 -22 17 -22 5 0 9
-47 9 -105 0 -58 -4 -105 -9 -105 -5 0 -13 -10 -17 -22 -13 -42 -93 -108 -131
-108 -13 0 -23 -4 -23 -10 0 -6 -28 -10 -65 -10 -37 0 -65 4 -65 10 0 6 -11
10 -24 10 -14 0 -31 7 -40 15 -8 8 -17 15 -21 15 -16 0 -65 60 -65 79 0 12 -6
21 -15 21 -11 0 -15 11 -15 40 0 22 -4 40 -10 40 -5 0 -10 11 -10 25 0 14 5
25 10 25 6 0 10 16 10 35 0 22 6 38 15 41 8 4 15 15 15 26 0 21 51 78 69 78 6
0 11 4 11 10 0 5 11 12 25 16 14 3 25 10 25 15 0 5 38 9 85 9 47 0 85 -4 85
-9z m3060 0 c0 -5 15 -12 33 -15 18 -3 39 -15 47 -26 8 -11 20 -20 27 -20 7 0
13 -5 13 -11 0 -6 7 -17 15 -25 8 -9 15 -24 15 -35 0 -10 5 -19 10 -19 6 0 10
-40 10 -100 0 -60 -4 -100 -10 -100 -5 0 -10 -6 -10 -14 0 -31 -102 -116 -140
-116 -11 0 -20 -4 -20 -10 0 -6 -28 -10 -65 -10 -37 0 -65 4 -65 10 0 6 -11
10 -24 10 -14 0 -31 7 -40 15 -8 8 -17 15 -21 15 -16 0 -65 60 -65 79 0 12 -6
21 -15 21 -11 0 -15 11 -15 40 0 22 -4 40 -10 40 -5 0 -10 11 -10 25 0 14 5
25 10 25 6 0 10 16 10 35 0 22 6 38 15 41 8 4 15 15 15 26 0 21 51 78 69 78 6
0 11 4 11 10 0 5 11 12 25 16 14 3 25 10 25 15 0 5 36 9 80 9 44 0 80 -4 80
-9z m-1534 -516 c9 -8 26 -15 40 -15 13 0 24 -4 24 -10 0 -5 7 -10 15 -10 8 0
15 -7 15 -15 0 -8 7 -15 15 -15 8 0 15 -7 15 -15 0 -8 5 -15 10 -15 6 0 10 -9
10 -19 0 -10 7 -21 15 -25 12 -4 15 -26 15 -106 0 -82 -3 -100 -15 -100 -9 0
-15 -9 -15 -25 0 -16 -6 -25 -15 -25 -8 0 -15 -5 -15 -11 0 -15 -22 -35 -48
-43 -12 -4 -22 -12 -22 -17 0 -5 -11 -9 -24 -9 -13 0 -26 -5 -28 -11 -5 -15
-121 -15 -126 0 -2 6 -16 11 -30 11 -15 0 -39 11 -54 25 -15 14 -32 25 -38 25
-5 0 -10 7 -10 15 0 8 -4 15 -10 15 -5 0 -12 11 -16 25 -3 14 -10 25 -15 25
-5 0 -9 11 -9 25 0 14 -4 25 -10 25 -5 0 -10 23 -10 50 0 28 5 50 10 50 6 0
10 16 10 36 0 29 9 44 54 90 30 30 63 54 73 54 11 0 28 7 39 15 26 20 130 20
150 0z"/>
</g>
</svg>
