<?xml version="1.0" standalone="no"?>
<!DOCTYPE svg PUBLIC "-//W3C//DTD SVG 20010904//EN"
 "http://www.w3.org/TR/2001/REC-SVG-20010904/DTD/svg10.dtd">
<svg version="1.0" xmlns="http://www.w3.org/2000/svg"
 width="512.000000pt" height="512.000000pt" viewBox="0 0 512.000000 512.000000"
 preserveAspectRatio="xMidYMid meet">

<g transform="translate(0.000000,512.000000) scale(0.100000,-0.100000)"
fill="#000000" stroke="none">
<path d="M765 5109 c-100 -14 -248 -67 -337 -122 -108 -65 -237 -196 -300
-302 -56 -94 -102 -229 -117 -338 -15 -109 -15 -3465 0 -3574 27 -196 111
-365 254 -508 143 -143 312 -227 508 -254 109 -15 3465 -15 3574 0 196 27 365
111 508 254 143 143 227 312 254 508 15 109 15 3465 0 3574 -27 196 -111 365
-254 508 -143 143 -312 227 -508 254 -95 13 -3489 13 -3582 0z m3588 -384
c177 -46 303 -165 364 -344 l22 -66 1 -1745 c0 -1913 4 -1794 -59 -1918 -59
-116 -162 -202 -300 -249 l-66 -22 -1745 -1 c-1913 0 -1794 -4 -1918 59 -116
59 -202 162 -249 300 l-22 66 -1 1745 c0 1913 -4 1794 59 1918 59 116 162 202
300 249 l66 22 1745 1 c1514 0 1753 -2 1803 -15z"/>
<path d="M2522 4188 c-9 -12 -12 -172 -10 -734 l3 -719 39 -3 40 -3 493 493
c409 409 493 498 493 520 0 57 -206 223 -388 313 -166 82 -357 133 -537 142
-100 5 -122 3 -133 -9z m228 -112 c114 -19 133 -24 220 -53 100 -34 203 -82
276 -128 68 -43 194 -137 194 -145 0 -3 -187 -192 -415 -420 l-415 -415 0 581
c0 319 3 584 7 587 9 10 37 8 133 -7z"/>
<path d="M2180 3974 c-225 -33 -299 -56 -486 -150 -136 -67 -244 -147 -360
-265 -172 -173 -284 -358 -352 -579 -49 -159 -57 -217 -57 -420 0 -188 10
-273 44 -380 5 -14 14 -43 20 -65 30 -98 122 -280 190 -376 75 -105 231 -261
333 -335 155 -111 368 -205 546 -239 93 -18 269 -30 306 -21 l26 6 0 1409 c0
1275 -1 1409 -16 1415 -16 6 -150 6 -194 0z m110 -1414 l0 -1310 -27 0 c-29 0
-176 23 -228 35 -578 136 -1006 679 -1005 1274 1 199 43 383 131 566 61 128
190 311 265 375 145 124 191 157 314 223 141 76 373 142 513 146 l37 1 0
-1310z"/>
<path d="M3222 3087 l-493 -493 3 -40 3 -39 719 -3 c562 -2 722 1 734 10 12
11 14 33 9 133 -9 182 -59 369 -142 537 -89 180 -257 388 -313 388 -23 0 -109
-82 -520 -493z m578 295 c122 -153 219 -355 258 -537 20 -92 35 -204 29 -219
-6 -14 -71 -16 -589 -16 l-583 0 415 415 c228 228 417 415 420 414 3 0 25 -26
50 -57z"/>
<path d="M2572 2378 c-9 -9 -12 -180 -12 -719 0 -655 1 -709 17 -725 15 -15
32 -16 136 -10 270 14 586 136 792 305 67 56 227 225 267 283 174 255 263 523
256 768 l-3 105 -720 3 c-552 2 -724 -1 -733 -10z m1348 -144 c0 -31 -6 -82
-14 -113 -7 -31 -19 -83 -27 -116 -28 -127 -118 -316 -213 -445 -62 -85 -224
-239 -318 -302 -46 -32 -88 -58 -92 -58 -4 0 -20 -8 -34 -18 -42 -29 -218 -96
-307 -117 -48 -11 -198 -35 -222 -35 l-23 0 0 630 0 630 625 0 625 0 0 -56z"/>
</g>
</svg>
