<svg width="34" height="16" viewBox="0 0 34 16" fill="none" xmlns="http://www.w3.org/2000/svg">
<path d="M3.84766 0.78125V15H0.927734V0.78125H3.84766ZM15.9941 11.2793C15.9941 11.0254 15.9551 10.7975 15.877 10.5957C15.8053 10.3874 15.6686 10.1986 15.4668 10.0293C15.265 9.85352 14.9818 9.68099 14.6172 9.51172C14.2526 9.34245 13.7806 9.16667 13.2012 8.98438C12.5566 8.77604 11.9447 8.54167 11.3652 8.28125C10.7923 8.02083 10.2845 7.7181 9.8418 7.37305C9.4056 7.02148 9.06055 6.61458 8.80664 6.15234C8.55924 5.6901 8.43555 5.15299 8.43555 4.54102C8.43555 3.94857 8.56576 3.41146 8.82617 2.92969C9.08659 2.44141 9.45117 2.02474 9.91992 1.67969C10.3887 1.32812 10.9421 1.05794 11.5801 0.869141C12.2246 0.680339 12.931 0.585938 13.6992 0.585938C14.7474 0.585938 15.6621 0.77474 16.4434 1.15234C17.2246 1.52995 17.8301 2.04753 18.2598 2.70508C18.696 3.36263 18.9141 4.11458 18.9141 4.96094H16.0039C16.0039 4.54427 15.916 4.17969 15.7402 3.86719C15.571 3.54818 15.3105 3.29753 14.959 3.11523C14.6139 2.93294 14.1777 2.8418 13.6504 2.8418C13.1426 2.8418 12.7194 2.91992 12.3809 3.07617C12.0423 3.22591 11.7884 3.43099 11.6191 3.69141C11.4499 3.94531 11.3652 4.23177 11.3652 4.55078C11.3652 4.79167 11.4238 5.00977 11.541 5.20508C11.6647 5.40039 11.847 5.58268 12.0879 5.75195C12.3288 5.92122 12.625 6.08073 12.9766 6.23047C13.3281 6.38021 13.735 6.52669 14.1973 6.66992C14.972 6.9043 15.6523 7.16797 16.2383 7.46094C16.8307 7.75391 17.3255 8.08268 17.7227 8.44727C18.1198 8.81185 18.4193 9.22526 18.6211 9.6875C18.8229 10.1497 18.9238 10.6738 18.9238 11.2598C18.9238 11.8783 18.8034 12.4316 18.5625 12.9199C18.3216 13.4082 17.9733 13.8216 17.5176 14.1602C17.0618 14.4987 16.5182 14.7559 15.8867 14.9316C15.2552 15.1074 14.5488 15.1953 13.7676 15.1953C13.0645 15.1953 12.3711 15.1042 11.6875 14.9219C11.0039 14.7331 10.3822 14.4499 9.82227 14.0723C9.26888 13.6947 8.82617 13.2129 8.49414 12.627C8.16211 12.041 7.99609 11.3477 7.99609 10.5469H10.9355C10.9355 10.9896 11.0039 11.3639 11.1406 11.6699C11.2773 11.9759 11.4694 12.2233 11.7168 12.4121C11.9707 12.6009 12.2702 12.7376 12.6152 12.8223C12.9668 12.9069 13.3509 12.9492 13.7676 12.9492C14.2754 12.9492 14.6921 12.8776 15.0176 12.7344C15.3496 12.5911 15.5938 12.3926 15.75 12.1387C15.9128 11.8848 15.9941 11.5983 15.9941 11.2793ZM28.4531 9.93164H24.8301V7.64648H28.4531C29.013 7.64648 29.4688 7.55534 29.8203 7.37305C30.1719 7.18424 30.429 6.92383 30.5918 6.5918C30.7546 6.25977 30.8359 5.88542 30.8359 5.46875C30.8359 5.04557 30.7546 4.65169 30.5918 4.28711C30.429 3.92253 30.1719 3.62956 29.8203 3.4082C29.4688 3.18685 29.013 3.07617 28.4531 3.07617H25.8457V15H22.916V0.78125H28.4531C29.5664 0.78125 30.5202 0.983073 31.3145 1.38672C32.1152 1.78385 32.7272 2.33398 33.1504 3.03711C33.5736 3.74023 33.7852 4.54427 33.7852 5.44922C33.7852 6.36719 33.5736 7.16146 33.1504 7.83203C32.7272 8.5026 32.1152 9.02018 31.3145 9.38477C30.5202 9.74935 29.5664 9.93164 28.4531 9.93164Z" fill="url(#paint0_linear_37_950)"/>
<defs>
<linearGradient id="paint0_linear_37_950" x1="17" y1="-3" x2="17" y2="20" gradientUnits="userSpaceOnUse">
<stop stop-color="#8E9EAB"/>
<stop offset="1" stop-color="#EEF2F3"/>
</linearGradient>
</defs>
</svg>
