<?xml version="1.0" standalone="no"?>
<!DOCTYPE svg PUBLIC "-//W3C//DTD SVG 20010904//EN" "http://www.w3.org/TR/2001/REC-SVG-20010904/DTD/svg10.dtd">
<svg version="1.0" xmlns="http://www.w3.org/2000/svg" width="512.000000pt" height="512.000000pt"
  viewBox="0 0 512.000000 512.000000" preserveAspectRatio="xMidYMid meet">

  <g transform="translate(0.000000,512.000000) scale(0.100000,-0.100000)" fill="#464646" stroke="none">
    <path d="M2235 5105 c-462 -60 -885 -237 -1255 -523 -117 -91 -316 -287 -413
-407 -276 -342 -459 -746 -537 -1186 -28 -156 -39 -531 -21 -702 43 -399 182
-790 398 -1122 98 -150 184 -257 318 -394 419 -430 948 -690 1550 -760 134
-16 460 -13 605 4 748 93 1416 512 1833 1150 210 321 344 690 392 1075 20 162
20 477 0 640 -92 742 -510 1412 -1140 1826 -329 216 -695 350 -1085 399 -152
18 -501 18 -645 0z m-379 -1456 c226 -31 431 -130 598 -289 230 -219 346 -487
346 -800 0 -296 -101 -546 -308 -762 -141 -147 -321 -252 -519 -305 -83 -22
-120 -26 -248 -27 -89 0 -174 5 -210 12 -309 67 -553 233 -717 487 -68 105
-110 202 -146 334 -22 85 -25 116 -25 261 0 145 3 176 25 261 36 132 78 229
146 334 231 358 646 551 1058 494z m1741 -89 c182 -91 322 -343 385 -689 16
-92 21 -157 21 -311 0 -154 -5 -219 -21 -311 -61 -338 -198 -589 -375 -685
-77 -41 -184 -46 -261 -11 -146 67 -260 220 -340 457 -60 176 -79 312 -79 550
0 167 4 227 22 325 38 210 114 400 211 529 123 163 291 219 437 146z m749 -95
c135 -135 198 -894 118 -1435 -30 -205 -80 -354 -130 -387 -23 -15 -26 -14
-50 8 -38 35 -61 86 -89 196 -93 374 -93 1052 1 1426 27 109 44 149 82 190 32
33 37 33 68 2z" />
  </g>
</svg>