<?xml version="1.0" standalone="no"?>
<!DOCTYPE svg PUBLIC "-//W3C//DTD SVG 20010904//EN" "http://www.w3.org/TR/2001/REC-SVG-20010904/DTD/svg10.dtd">
<svg version="1.0" xmlns="http://www.w3.org/2000/svg" width="512.000000pt" height="512.000000pt"
  viewBox="0 0 512.000000 512.000000" preserveAspectRatio="xMidYMid meet">

  <g transform="translate(0.000000,512.000000) scale(0.100000,-0.100000)" fill="#464646" stroke="none">
    <path d="M2255 5108 c-461 -52 -936 -253 -1309 -553 -120 -96 -343 -326 -433
-446 -210 -280 -361 -598 -443 -931 -57 -232 -65 -309 -65 -613 0 -294 6 -357
52 -565 179 -814 771 -1513 1540 -1819 322 -128 605 -181 963 -181 423 0 786
84 1144 264 272 137 481 290 696 512 393 405 636 910 705 1464 20 163 20 477
0 640 -57 457 -246 910 -532 1273 -73 93 -327 347 -420 420 -364 287 -815 475
-1273 532 -137 17 -489 19 -625 3z m595 -414 c517 -69 1017 -344 1352 -744
207 -247 363 -547 441 -845 54 -209 62 -272 62 -545 0 -202 -4 -275 -18 -350
-131 -698 -541 -1255 -1154 -1568 -314 -160 -618 -233 -973 -233 -357 1 -659
73 -973 233 -613 313 -1023 870 -1154 1568 -25 136 -25 564 0 700 131 699 541
1255 1155 1569 393 200 822 273 1262 215z" />
    <path d="M1562 3444 c-93 -47 -137 -128 -130 -244 5 -87 42 -151 112 -195 45
-27 57 -30 136 -30 79 0 91 3 136 30 30 19 60 49 79 79 27 45 30 57 30 136 0
79 -3 91 -30 136 -46 74 -109 108 -204 112 -66 3 -83 0 -129 -24z" />
    <path d="M3312 3444 c-93 -47 -137 -128 -130 -244 5 -87 42 -151 112 -195 45
-27 57 -30 136 -30 79 0 91 3 136 30 30 19 60 49 79 79 27 45 30 57 30 136 0
79 -3 91 -30 136 -46 74 -109 108 -204 112 -66 3 -83 0 -129 -24z" />
    <path d="M1611 2128 c-66 -33 -101 -94 -101 -178 0 -61 4 -72 41 -130 56 -87
224 -256 327 -330 213 -152 425 -222 672 -222 247 0 459 70 672 222 103 74
271 243 327 330 37 58 41 69 41 130 0 56 -5 73 -29 112 -36 57 -96 88 -171 88
-80 0 -128 -28 -188 -108 -127 -171 -308 -299 -493 -347 -84 -23 -234 -23
-318 0 -185 48 -366 176 -493 347 -34 45 -64 74 -92 88 -57 27 -138 27 -195
-2z" />
  </g>
</svg>