<?xml version="1.0" standalone="no"?>
<!DOCTYPE svg PUBLIC "-//W3C//DTD SVG 20010904//EN"
 "http://www.w3.org/TR/2001/REC-SVG-20010904/DTD/svg10.dtd">
<svg version="1.0" xmlns="http://www.w3.org/2000/svg"
 width="512.000000pt" height="512.000000pt" viewBox="0 0 512.000000 512.000000"
 preserveAspectRatio="xMidYMid meet">

<g transform="translate(0.000000,512.000000) scale(0.100000,-0.100000)"
fill="#000000" stroke="none">
<path d="M2510 4900 c0 -5 -12 -10 -26 -10 -14 0 -32 -7 -40 -15 -9 -8 -24
-15 -35 -15 -10 0 -19 -4 -19 -10 0 -5 -9 -10 -20 -10 -11 0 -20 -4 -20 -10 0
-5 -11 -12 -25 -16 -14 -3 -25 -10 -25 -15 0 -5 -11 -9 -24 -9 -14 0 -31 -7
-40 -15 -8 -8 -24 -15 -35 -15 -12 0 -21 -4 -21 -10 0 -5 -7 -10 -15 -10 -8 0
-15 -7 -15 -15 0 -10 -10 -15 -34 -15 -21 0 -36 -6 -40 -15 -3 -8 -15 -15 -26
-15 -11 0 -20 -4 -20 -10 0 -5 -7 -10 -16 -10 -8 0 -22 -7 -30 -15 -9 -8 -26
-15 -40 -15 -13 0 -24 -4 -24 -9 0 -5 -11 -12 -25 -15 -14 -4 -25 -11 -25 -16
0 -6 -7 -10 -15 -10 -8 0 -15 -4 -15 -9 0 -5 -16 -12 -35 -15 -19 -4 -35 -11
-35 -16 0 -6 -11 -10 -25 -10 -14 0 -25 -4 -25 -10 0 -5 -7 -10 -15 -10 -8 0
-15 -7 -15 -15 0 -10 -10 -15 -34 -15 -21 0 -36 -6 -40 -15 -3 -8 -15 -15 -26
-15 -11 0 -20 -4 -20 -10 0 -5 -7 -10 -16 -10 -8 0 -22 -7 -30 -15 -9 -8 -26
-15 -40 -15 -13 0 -24 -4 -24 -9 0 -5 -11 -12 -25 -15 -14 -4 -25 -11 -25 -16
0 -6 -7 -10 -15 -10 -8 0 -15 -4 -15 -10 0 -5 -8 -10 -17 -10 -10 0 -27 -7
-37 -15 -11 -8 -28 -15 -38 -15 -11 0 -29 -11 -42 -25 -13 -14 -33 -25 -45
-25 -12 0 -29 -7 -37 -15 -9 -8 -24 -15 -35 -15 -10 0 -19 -4 -19 -10 0 -5 -9
-10 -20 -10 -11 0 -20 -4 -20 -10 0 -5 -11 -12 -25 -16 -14 -3 -25 -10 -25
-15 0 -5 -11 -9 -24 -9 -14 0 -31 -7 -40 -15 -8 -8 -24 -15 -35 -15 -12 0 -21
-4 -21 -10 0 -5 -7 -10 -15 -10 -8 0 -15 -7 -15 -15 0 -10 -10 -15 -34 -15
-21 0 -36 -6 -40 -15 -3 -8 -15 -15 -26 -15 -11 0 -20 -4 -20 -10 0 -5 -7 -10
-16 -10 -8 0 -22 -7 -30 -15 -9 -8 -26 -15 -40 -15 -13 0 -24 -4 -24 -9 0 -5
-11 -12 -25 -15 -14 -4 -25 -11 -25 -16 0 -6 -7 -10 -15 -10 -8 0 -15 -4 -15
-9 0 -5 -16 -12 -35 -15 -19 -4 -35 -11 -35 -16 0 -6 -11 -10 -25 -10 -14 0
-25 -4 -25 -10 0 -5 -7 -10 -15 -10 -8 0 -15 -7 -15 -15 0 -10 -10 -15 -30
-15 -20 0 -39 -9 -54 -25 -13 -14 -28 -25 -35 -25 -6 0 -11 -5 -11 -11 0 -14
-25 -39 -39 -39 -6 0 -11 -16 -11 -35 0 -19 -4 -35 -10 -35 -5 0 -10 -18 -10
-40 0 -22 5 -40 10 -40 6 0 10 -18 10 -40 0 -29 4 -40 15 -40 8 0 15 -5 15
-11 0 -14 25 -39 39 -39 6 0 11 -7 11 -15 0 -9 9 -15 25 -15 14 0 25 -4 25
-10 0 -5 11 -10 25 -10 16 0 25 -6 25 -15 0 -9 9 -15 25 -15 14 0 25 -4 25 -9
0 -5 13 -12 30 -16 16 -4 30 -11 30 -16 0 -5 6 -9 14 -9 17 0 80 -32 84 -42 2
-5 12 -8 23 -8 11 0 22 -7 25 -15 4 -8 17 -15 30 -15 13 0 24 -4 24 -10 0 -5
9 -10 20 -10 11 0 23 -7 26 -15 4 -8 17 -15 30 -15 13 0 24 -4 24 -10 0 -5 11
-10 25 -10 16 0 25 -6 25 -15 0 -9 9 -15 25 -15 14 0 25 -4 25 -9 0 -5 12 -12
26 -15 51 -13 73 -56 29 -56 -14 0 -25 -4 -25 -9 0 -5 -11 -12 -25 -15 -14 -4
-25 -11 -25 -16 0 -6 -12 -10 -26 -10 -14 0 -32 -6 -39 -12 -37 -33 -46 -38
-70 -38 -16 0 -25 -6 -25 -15 0 -9 -9 -15 -25 -15 -14 0 -25 -4 -25 -10 0 -5
-11 -10 -25 -10 -16 0 -25 -6 -25 -15 0 -9 -9 -15 -25 -15 -14 0 -25 -4 -25
-9 0 -5 -11 -12 -25 -15 -14 -4 -25 -11 -25 -16 0 -6 -11 -10 -25 -10 -14 0
-25 -4 -25 -9 0 -5 -11 -12 -25 -15 -14 -4 -25 -11 -25 -16 0 -6 -13 -10 -30
-10 -16 0 -30 -4 -30 -10 0 -5 -11 -12 -25 -16 -14 -3 -25 -9 -25 -14 0 -4
-16 -15 -35 -26 -20 -11 -35 -26 -35 -37 0 -10 -7 -20 -15 -23 -8 -4 -15 -17
-15 -30 0 -13 -4 -24 -10 -24 -5 0 -10 -22 -10 -50 0 -27 5 -50 10 -50 6 0 10
-11 10 -24 0 -13 7 -26 15 -30 8 -3 15 -13 15 -22 0 -18 38 -53 58 -54 6 0 12
-4 12 -9 0 -5 11 -12 25 -15 14 -4 25 -11 25 -16 0 -6 14 -10 30 -10 17 0 30
-4 30 -10 0 -5 11 -12 25 -16 14 -3 25 -10 25 -15 0 -5 11 -9 25 -9 14 0 25
-4 25 -10 0 -5 11 -12 25 -16 14 -3 25 -10 25 -15 0 -5 11 -9 25 -9 16 0 25
-6 25 -15 0 -9 9 -15 25 -15 14 0 25 -4 25 -10 0 -5 11 -10 25 -10 16 0 25 -6
25 -15 0 -10 10 -15 30 -15 17 0 30 -4 30 -10 0 -5 11 -12 25 -16 14 -3 25
-10 25 -15 0 -5 11 -9 25 -9 14 0 25 -4 25 -10 0 -5 11 -12 25 -16 14 -3 25
-10 25 -15 0 -5 11 -9 25 -9 44 0 22 -43 -29 -56 -14 -3 -26 -10 -26 -15 0 -5
-11 -9 -25 -9 -14 0 -25 -4 -25 -10 0 -5 -11 -12 -25 -16 -14 -3 -25 -10 -25
-15 0 -5 -11 -9 -25 -9 -14 0 -25 -4 -25 -10 0 -5 -11 -12 -25 -16 -14 -3 -25
-10 -25 -15 0 -5 -11 -9 -24 -9 -13 0 -26 -7 -30 -15 -3 -8 -15 -15 -26 -15
-11 0 -20 -4 -20 -10 0 -5 -8 -10 -19 -10 -10 0 -24 -7 -31 -15 -7 -8 -21 -15
-31 -15 -11 0 -19 -4 -19 -9 0 -5 -13 -12 -30 -16 -16 -4 -30 -11 -30 -16 0
-5 -11 -9 -25 -9 -14 0 -25 -4 -25 -10 0 -5 -11 -12 -25 -16 -14 -3 -25 -10
-25 -15 0 -5 -11 -9 -25 -9 -16 0 -25 -6 -25 -15 0 -8 -5 -15 -11 -15 -14 0
-39 -25 -39 -39 0 -6 -7 -11 -15 -11 -11 0 -15 -11 -15 -40 0 -22 -4 -40 -10
-40 -5 0 -10 -16 -10 -35 0 -19 5 -35 10 -35 6 0 10 -18 10 -40 0 -22 5 -40
11 -40 14 0 39 -25 39 -39 0 -6 5 -11 11 -11 7 0 22 -11 35 -25 15 -16 34 -25
54 -25 16 0 30 -4 30 -10 0 -5 11 -12 25 -16 14 -3 25 -10 25 -15 0 -5 7 -9
15 -9 8 0 15 -4 15 -10 0 -5 16 -12 35 -16 19 -3 35 -10 35 -14 0 -4 11 -11
25 -14 14 -4 25 -11 25 -16 0 -6 7 -10 15 -10 8 0 15 -4 15 -10 0 -5 11 -10
24 -10 13 0 29 -7 36 -15 7 -8 23 -15 36 -15 13 0 24 -4 24 -10 0 -5 7 -10 15
-10 9 0 18 -7 21 -15 4 -9 19 -15 40 -15 24 0 34 -5 34 -15 0 -9 9 -15 25 -15
14 0 25 -4 25 -10 0 -5 5 -10 11 -10 6 0 17 -7 25 -15 9 -8 26 -15 40 -15 13
0 24 -4 24 -10 0 -5 5 -10 11 -10 6 0 17 -7 25 -15 9 -8 24 -15 35 -15 10 0
19 -4 19 -10 0 -5 9 -10 20 -10 11 0 23 -7 26 -15 4 -9 19 -15 35 -15 16 0 29
-4 29 -10 0 -5 7 -10 15 -10 9 0 18 -7 21 -15 4 -8 17 -15 30 -15 13 0 24 -4
24 -10 0 -5 16 -12 35 -16 19 -3 35 -10 35 -14 0 -4 11 -11 25 -14 14 -4 25
-11 25 -16 0 -6 7 -10 15 -10 8 0 15 -4 15 -10 0 -5 9 -10 21 -10 11 0 27 -7
35 -15 9 -8 26 -15 40 -15 13 0 24 -4 24 -10 0 -5 7 -10 15 -10 9 0 18 -7 21
-15 4 -9 19 -15 40 -15 19 0 34 -4 34 -10 0 -5 11 -12 25 -16 14 -3 25 -10 25
-15 0 -5 7 -9 15 -9 8 0 15 -4 15 -10 0 -5 16 -12 35 -16 19 -3 35 -10 35 -14
0 -4 11 -11 25 -14 14 -4 25 -11 25 -16 0 -6 7 -10 15 -10 8 0 15 -4 15 -10 0
-5 11 -10 24 -10 13 0 29 -7 36 -15 7 -8 23 -15 36 -15 13 0 24 -4 24 -10 0
-5 7 -10 15 -10 9 0 18 -7 21 -15 4 -9 19 -15 40 -15 24 0 34 -5 34 -15 0 -9
9 -15 25 -15 14 0 25 -4 25 -10 0 -5 5 -10 11 -10 6 0 17 -7 25 -15 9 -8 26
-15 40 -15 13 0 24 -4 24 -10 0 -5 5 -10 11 -10 6 0 17 -7 25 -15 9 -8 24 -15
35 -15 10 0 19 -4 19 -10 0 -5 9 -10 20 -10 11 0 23 -7 26 -15 4 -9 19 -15 40
-15 19 0 34 -4 34 -10 0 -5 23 -10 50 -10 28 0 50 5 50 10 0 6 12 10 26 10 14
0 32 7 40 15 9 8 24 15 35 15 10 0 19 5 19 10 0 6 9 10 20 10 11 0 20 4 20 10
0 5 11 12 25 16 14 3 25 10 25 15 0 5 11 9 24 9 14 0 31 7 40 15 8 8 19 15 25
15 6 0 11 5 11 10 0 6 11 10 25 10 16 0 25 6 25 15 0 10 10 15 34 15 21 0 36
6 40 15 3 8 12 15 21 15 8 0 15 5 15 10 0 6 9 10 21 10 11 0 27 7 35 15 9 8
26 15 40 15 13 0 24 4 24 8 0 5 17 17 38 28 20 10 39 22 42 25 3 4 20 10 38
14 17 3 32 11 32 16 0 5 7 9 15 9 8 0 15 4 15 9 0 5 11 12 25 15 14 4 25 11
25 16 0 6 15 10 34 10 21 0 36 6 40 15 3 8 12 15 21 15 8 0 15 5 15 10 0 6 9
10 21 10 11 0 27 7 35 15 9 8 26 15 40 15 13 0 24 4 24 9 0 5 11 12 25 15 14
4 25 11 25 16 0 6 7 10 15 10 8 0 15 5 15 10 0 6 8 10 18 10 9 0 26 7 36 15
11 8 28 15 38 15 11 0 29 11 42 25 13 14 33 25 45 25 12 0 29 7 37 15 9 8 24
15 35 15 10 0 19 5 19 10 0 6 9 10 20 10 11 0 20 4 20 10 0 5 11 12 25 16 14
3 25 10 25 15 0 5 11 9 24 9 14 0 31 7 40 15 8 8 19 15 25 15 6 0 11 5 11 10
0 6 11 10 25 10 16 0 25 6 25 15 0 10 10 15 34 15 21 0 36 6 40 15 3 8 12 15
21 15 8 0 15 5 15 10 0 6 9 10 21 10 11 0 27 7 35 15 9 8 26 15 40 15 13 0 24
4 24 8 0 5 17 17 38 28 20 10 39 22 42 25 3 4 20 10 38 14 17 3 32 11 32 16 0
5 7 9 15 9 8 0 15 4 15 9 0 5 11 12 25 15 14 4 25 11 25 16 0 6 14 10 30 10
20 0 39 9 54 25 13 14 28 25 35 25 6 0 11 5 11 11 0 14 25 39 39 39 6 0 11 16
11 35 0 19 5 35 10 35 6 0 10 18 10 40 0 22 -4 40 -10 40 -5 0 -10 18 -10 40
0 29 -4 40 -15 40 -8 0 -15 5 -15 11 0 14 -25 39 -39 39 -6 0 -11 7 -11 15 0
9 -9 15 -25 15 -14 0 -25 4 -25 9 0 5 -11 12 -25 15 -14 4 -25 11 -25 16 0 6
-11 10 -25 10 -14 0 -25 4 -25 9 0 5 -13 12 -30 16 -16 4 -30 11 -30 16 0 5
-6 9 -14 9 -17 0 -80 32 -84 43 -2 4 -15 7 -28 7 -13 0 -24 4 -24 10 0 5 -11
12 -25 16 -14 3 -25 10 -25 15 0 5 -9 9 -20 9 -11 0 -23 7 -26 15 -4 8 -17 15
-30 15 -13 0 -24 4 -24 9 0 5 -11 12 -25 15 -14 4 -25 11 -25 16 0 6 -11 10
-25 10 -14 0 -25 4 -25 9 0 5 -13 12 -28 16 -15 3 -33 14 -40 25 -11 17 -9 20
15 27 15 3 34 12 41 20 7 7 20 13 28 13 8 0 14 5 14 10 0 6 9 10 21 10 11 0
27 6 34 13 37 32 46 37 70 37 16 0 25 6 25 15 0 9 9 15 25 15 14 0 25 5 25 10
0 6 11 10 25 10 16 0 25 6 25 15 0 9 9 15 25 15 14 0 25 4 25 9 0 5 11 12 25
15 14 4 25 11 25 16 0 6 11 10 25 10 14 0 25 4 25 9 0 5 11 12 25 15 14 4 25
11 25 16 0 6 14 10 30 10 17 0 30 4 30 10 0 5 11 12 25 16 14 3 25 9 25 14 0
4 16 15 35 26 20 11 35 26 35 37 0 10 7 20 15 23 8 4 15 17 15 30 0 13 5 24
10 24 6 0 10 23 10 50 0 28 -4 50 -10 50 -5 0 -10 11 -10 25 0 14 -4 25 -9 25
-5 0 -13 10 -17 22 -7 25 -42 57 -61 58 -7 0 -13 4 -13 9 0 5 -11 12 -25 15
-14 4 -25 11 -25 16 0 6 -13 10 -30 10 -16 0 -30 4 -30 10 0 5 -11 12 -25 16
-14 3 -25 10 -25 15 0 5 -11 9 -25 9 -14 0 -25 4 -25 10 0 5 -11 12 -25 16
-14 3 -25 10 -25 15 0 5 -11 9 -25 9 -16 0 -25 6 -25 15 0 9 -9 15 -25 15 -14
0 -25 5 -25 10 0 6 -11 10 -25 10 -16 0 -25 6 -25 15 0 9 -10 15 -26 15 -14 0
-32 6 -39 13 -36 31 -46 37 -65 37 -11 0 -20 4 -20 9 0 5 -13 12 -30 16 -16 4
-30 10 -30 15 0 4 -9 10 -19 13 -30 7 -16 44 20 52 16 4 29 11 29 16 0 5 11 9
25 9 16 0 25 6 25 15 0 9 9 15 25 15 14 0 25 5 25 10 0 6 11 10 25 10 16 0 25
6 25 15 0 9 9 15 24 15 13 0 26 3 28 8 4 10 67 42 84 42 8 0 14 5 14 10 0 6 8
10 19 10 10 0 24 7 31 15 7 8 21 15 31 15 11 0 19 4 19 9 0 5 14 12 30 16 17
4 30 11 30 16 0 5 11 9 25 9 16 0 25 6 25 15 0 9 9 15 25 15 14 0 25 5 25 10
0 6 11 10 25 10 16 0 25 6 25 15 0 8 5 15 11 15 14 0 39 25 39 39 0 6 7 11 15
11 11 0 15 11 15 40 0 22 5 40 10 40 6 0 10 16 10 35 0 19 -4 35 -10 35 -5 0
-10 18 -10 40 0 29 -4 40 -15 40 -8 0 -15 5 -15 11 0 12 -25 39 -36 39 -4 0
-17 11 -30 25 -15 16 -34 25 -54 25 -20 0 -30 5 -30 15 0 8 -7 15 -15 15 -8 0
-15 5 -15 10 0 6 -11 10 -25 10 -14 0 -25 4 -25 10 0 5 -16 12 -35 16 -19 3
-35 10 -35 15 0 5 -7 9 -15 9 -8 0 -15 4 -15 10 0 5 -11 12 -25 16 -14 3 -25
10 -25 15 0 5 -9 9 -21 9 -11 0 -27 7 -35 15 -9 8 -24 15 -35 15 -10 0 -19 5
-19 10 0 6 -9 10 -20 10 -11 0 -23 7 -26 15 -4 9 -19 15 -40 15 -24 0 -34 5
-34 15 0 8 -7 15 -15 15 -8 0 -15 5 -15 10 0 6 -9 10 -21 10 -11 0 -27 7 -35
15 -9 8 -26 15 -40 15 -13 0 -24 5 -24 10 0 6 -7 10 -15 10 -8 0 -15 4 -15 10
0 5 -11 12 -25 16 -14 3 -25 10 -25 15 0 5 -11 9 -25 9 -14 0 -28 7 -31 15 -4
9 -19 15 -35 15 -16 0 -29 5 -29 10 0 6 -7 10 -15 10 -9 0 -18 7 -21 15 -4 8
-15 15 -26 15 -11 0 -26 7 -34 15 -9 8 -26 15 -40 15 -13 0 -24 5 -24 10 0 6
-7 10 -15 10 -8 0 -15 4 -15 10 0 5 -11 12 -25 16 -14 3 -25 10 -25 15 0 5
-11 9 -25 9 -14 0 -25 4 -25 10 0 5 -11 12 -25 16 -14 3 -25 10 -25 15 0 5
-11 9 -25 9 -14 0 -28 7 -31 15 -4 9 -19 15 -40 15 -24 0 -34 5 -34 15 0 8 -7
15 -15 15 -8 0 -15 5 -15 10 0 6 -11 10 -25 10 -14 0 -25 4 -25 10 0 5 -16 12
-35 16 -19 3 -35 10 -35 15 0 5 -7 9 -15 9 -8 0 -15 4 -15 10 0 5 -11 12 -25
16 -14 3 -25 10 -25 15 0 5 -9 9 -21 9 -11 0 -27 7 -35 15 -9 8 -24 15 -35 15
-10 0 -19 5 -19 10 0 6 -9 10 -20 10 -11 0 -23 7 -26 15 -4 9 -19 15 -40 15
-24 0 -34 5 -34 15 0 8 -7 15 -15 15 -8 0 -15 5 -15 10 0 6 -9 10 -21 10 -11
0 -27 7 -35 15 -9 8 -26 15 -40 15 -13 0 -24 5 -24 10 0 6 -7 10 -15 10 -8 0
-15 4 -15 10 0 5 -11 12 -25 16 -14 3 -25 10 -25 15 0 5 -11 9 -25 9 -14 0
-28 7 -31 15 -4 9 -19 15 -40 15 -19 0 -34 5 -34 10 0 6 -22 10 -50 10 -27 0
-50 -4 -50 -10z m76 -455 c4 -8 17 -15 30 -15 13 0 24 -4 24 -10 0 -5 11 -12
25 -16 14 -3 25 -10 25 -15 0 -5 11 -9 25 -9 14 0 25 -4 25 -10 0 -5 11 -12
25 -16 14 -3 25 -10 25 -15 0 -5 11 -9 25 -9 16 0 25 -6 25 -15 0 -9 9 -15 25
-15 14 0 25 -4 25 -9 0 -5 11 -12 25 -15 14 -4 25 -11 25 -16 0 -6 14 -10 30
-10 17 0 30 -4 30 -10 0 -5 11 -12 25 -16 14 -3 25 -10 25 -15 0 -5 11 -9 25
-9 14 0 25 -4 25 -10 0 -5 11 -12 25 -16 14 -3 25 -10 25 -15 0 -5 11 -9 25
-9 16 0 25 -6 25 -15 0 -9 9 -15 25 -15 14 0 25 -4 25 -10 0 -5 11 -10 25 -10
16 0 25 -6 25 -15 0 -10 10 -15 30 -15 17 0 30 -4 30 -10 0 -5 11 -12 25 -16
14 -3 25 -10 25 -15 0 -5 11 -9 25 -9 14 0 25 -4 25 -10 0 -5 11 -12 25 -16
14 -3 25 -10 25 -15 0 -5 11 -9 25 -9 14 0 25 -4 25 -10 0 -5 11 -12 25 -16
14 -3 25 -10 25 -15 0 -5 11 -9 25 -9 16 0 25 -6 25 -15 0 -9 9 -15 25 -15 14
0 25 -4 25 -10 0 -5 11 -10 25 -10 16 0 25 -6 25 -15 0 -9 9 -15 25 -15 14 0
25 -4 25 -9 0 -5 11 -12 25 -15 14 -4 25 -11 25 -16 0 -6 9 -10 19 -10 21 0
84 -30 89 -42 2 -5 15 -8 28 -8 15 0 24 -6 24 -15 0 -9 9 -15 25 -15 14 0 25
-4 25 -10 0 -5 11 -10 25 -10 16 0 25 -6 25 -15 0 -9 9 -15 25 -15 14 0 25 -4
25 -10 0 -5 7 -10 15 -10 8 0 15 -7 15 -15 0 -9 -9 -15 -25 -15 -16 0 -25 -6
-25 -15 0 -9 -9 -15 -25 -15 -14 0 -25 -4 -25 -9 0 -5 -11 -12 -25 -15 -14 -4
-25 -11 -25 -16 0 -6 -11 -10 -25 -10 -14 0 -25 -4 -25 -10 0 -5 -9 -10 -19
-10 -11 0 -26 -7 -35 -15 -8 -8 -24 -15 -35 -15 -12 0 -21 -4 -21 -10 0 -5
-11 -12 -25 -16 -14 -3 -25 -10 -25 -15 0 -5 -11 -9 -25 -9 -14 0 -25 -4 -25
-10 0 -5 -11 -12 -25 -16 -14 -3 -25 -10 -25 -15 0 -5 -11 -9 -24 -9 -13 0
-26 -7 -30 -15 -3 -8 -14 -15 -25 -15 -11 0 -21 -3 -23 -7 -4 -11 -67 -43 -84
-43 -8 0 -14 -4 -14 -9 0 -5 -13 -12 -30 -16 -16 -4 -30 -11 -30 -16 0 -5 -11
-9 -25 -9 -14 0 -25 -4 -25 -10 0 -5 -11 -12 -25 -16 -14 -3 -25 -10 -25 -15
0 -5 -11 -9 -25 -9 -14 0 -25 -4 -25 -10 0 -5 -11 -12 -25 -16 -14 -3 -25 -10
-25 -15 0 -5 -11 -9 -24 -9 -13 0 -26 -7 -30 -15 -3 -8 -15 -15 -26 -15 -11 0
-20 -4 -20 -10 0 -5 -8 -10 -19 -10 -10 0 -24 -7 -31 -15 -7 -8 -21 -15 -31
-15 -11 0 -19 -4 -19 -9 0 -5 -13 -12 -30 -16 -16 -4 -30 -11 -30 -16 0 -5
-11 -9 -25 -9 -14 0 -25 -4 -25 -10 0 -5 -11 -12 -25 -16 -14 -3 -25 -10 -25
-15 0 -5 -11 -9 -25 -9 -16 0 -25 -6 -25 -15 0 -9 -9 -15 -25 -15 -14 0 -25
-4 -25 -9 0 -5 -11 -12 -25 -15 -14 -4 -25 -11 -25 -16 0 -6 -11 -10 -25 -10
-14 0 -25 -4 -25 -10 0 -5 -9 -10 -19 -10 -11 0 -26 -7 -35 -15 -8 -8 -22 -15
-31 -15 -9 0 -23 -7 -31 -15 -9 -8 -28 -15 -44 -15 -16 0 -35 7 -44 15 -8 8
-24 15 -35 15 -12 0 -21 4 -21 9 0 5 -13 12 -30 16 -16 4 -30 11 -30 16 0 5
-11 9 -25 9 -14 0 -25 4 -25 10 0 5 -11 12 -25 16 -14 3 -25 10 -25 15 0 5
-11 9 -25 9 -16 0 -25 6 -25 15 0 9 -9 15 -25 15 -14 0 -25 4 -25 9 0 5 -11
12 -25 15 -14 4 -25 11 -25 16 0 6 -11 10 -25 10 -14 0 -25 4 -25 9 0 5 -13
12 -30 16 -16 4 -30 11 -30 16 0 5 -6 9 -14 9 -17 0 -80 32 -84 43 -2 4 -15 7
-28 7 -13 0 -24 4 -24 10 0 5 -11 12 -25 16 -14 3 -25 10 -25 15 0 5 -9 9 -20
9 -11 0 -23 7 -26 15 -4 8 -17 15 -30 15 -13 0 -24 4 -24 9 0 5 -11 12 -25 15
-14 4 -25 11 -25 16 0 6 -11 10 -25 10 -14 0 -25 4 -25 9 0 5 -13 12 -30 16
-16 4 -30 11 -30 16 0 5 -6 9 -14 9 -17 0 -80 32 -84 43 -2 4 -12 7 -23 7 -11
0 -22 7 -25 15 -4 8 -17 15 -30 15 -13 0 -24 4 -24 9 0 5 -11 12 -25 15 -14 4
-25 11 -25 16 0 6 -11 10 -25 10 -14 0 -25 4 -25 9 0 5 -11 12 -25 15 -14 4
-25 11 -25 16 0 6 -11 10 -25 10 -14 0 -25 4 -25 9 0 5 -14 12 -30 16 -16 4
-30 11 -30 16 0 5 -11 9 -25 9 -14 0 -25 4 -25 10 0 5 -11 12 -25 16 -14 3
-25 10 -25 15 0 5 -11 9 -25 9 -16 0 -25 6 -25 15 0 9 -9 15 -25 15 -14 0 -25
3 -25 8 0 14 40 42 60 42 11 0 20 4 20 10 0 5 11 12 25 16 14 3 25 10 25 15 0
5 11 9 24 9 13 0 26 7 30 15 3 8 17 15 31 15 14 0 25 5 25 10 0 6 9 10 20 10
11 0 23 7 26 15 4 8 17 15 30 15 13 0 24 4 24 10 0 5 11 12 25 16 14 3 25 10
25 15 0 5 11 9 25 9 14 0 25 4 25 10 0 5 11 12 25 16 14 3 25 10 25 15 0 5 11
9 25 9 14 0 25 4 25 10 0 5 11 12 25 16 14 3 25 10 25 15 0 5 9 9 21 9 11 0
27 7 35 15 9 8 24 15 35 15 10 0 19 4 19 10 0 5 11 12 25 16 14 3 25 10 25 15
0 5 11 9 25 9 14 0 25 4 25 10 0 5 11 12 25 16 14 3 25 10 25 15 0 5 11 9 25
9 14 0 25 4 25 10 0 5 11 12 25 16 14 3 25 10 25 15 0 5 11 9 25 9 16 0 25 6
25 15 0 9 9 15 25 15 14 0 25 5 25 10 0 6 11 10 24 10 13 0 26 7 30 15 3 8 17
15 31 15 14 0 25 4 25 10 0 5 11 12 25 16 14 3 25 10 25 15 0 5 11 9 25 9 14
0 25 4 25 10 0 5 11 12 25 16 14 3 25 10 25 15 0 5 11 9 25 9 14 0 25 4 25 10
0 5 11 12 25 16 14 3 25 10 25 15 0 5 11 9 24 9 13 0 26 7 30 15 3 8 17 15 31
15 14 0 25 5 25 10 0 6 9 10 20 10 11 0 23 7 26 15 4 8 15 15 26 15 11 0 26 7
34 15 9 8 20 15 25 15 5 0 12 -7 15 -15z m-1046 -1615 c0 -5 11 -10 25 -10 16
0 25 -6 25 -15 0 -9 9 -15 25 -15 14 0 25 -4 25 -10 0 -5 11 -10 25 -10 16 0
25 -6 25 -15 0 -9 9 -15 25 -15 14 0 25 -4 25 -9 0 -5 14 -12 30 -16 17 -4 30
-11 30 -16 0 -5 6 -9 14 -9 17 0 80 -32 84 -42 2 -5 12 -8 23 -8 11 0 22 -7
25 -15 4 -8 17 -15 30 -15 13 0 24 -4 24 -10 0 -5 9 -10 20 -10 11 0 23 -7 26
-15 4 -8 17 -15 30 -15 13 0 24 -4 24 -10 0 -5 11 -10 25 -10 16 0 25 -6 25
-15 0 -9 9 -15 25 -15 14 0 25 -4 25 -9 0 -5 14 -12 30 -16 17 -4 30 -11 30
-16 0 -5 11 -9 25 -9 14 0 25 -4 25 -10 0 -5 11 -12 25 -16 14 -3 25 -10 25
-15 0 -5 9 -9 20 -9 11 0 23 -7 26 -15 4 -8 17 -15 29 -15 13 0 25 -5 27 -12
3 -7 35 -11 98 -11 63 0 95 4 98 11 2 7 14 12 27 12 12 0 25 7 29 15 3 8 15
15 26 15 11 0 20 4 20 9 0 5 11 12 25 15 14 4 25 11 25 16 0 6 11 10 25 10 14
0 25 4 25 9 0 5 14 12 30 16 17 4 30 11 30 16 0 5 11 9 25 9 16 0 25 6 25 15
0 9 9 15 25 15 14 0 25 5 25 10 0 6 11 10 25 10 16 0 25 6 25 15 0 9 9 15 24
15 13 0 26 3 28 8 4 10 67 42 84 42 8 0 14 5 14 10 0 6 8 10 19 10 10 0 24 7
31 15 7 8 21 15 31 15 11 0 19 4 19 9 0 5 14 12 30 16 17 4 30 11 30 16 0 5
11 9 25 9 16 0 25 6 25 15 0 9 9 15 25 15 14 0 25 5 25 10 0 6 11 10 25 10 16
0 25 6 25 15 0 9 9 15 25 15 14 0 25 5 25 10 0 6 20 10 45 10 25 0 45 -4 45
-10 0 -5 9 -10 20 -10 11 0 23 -7 26 -15 4 -9 19 -15 35 -15 16 0 29 -4 29
-10 0 -5 7 -10 15 -10 9 0 18 -7 21 -15 4 -8 17 -15 30 -15 13 0 24 -4 24 -10
0 -5 16 -12 35 -16 19 -3 35 -10 35 -14 0 -4 11 -11 25 -14 14 -4 25 -11 25
-16 0 -6 7 -10 15 -10 8 0 15 -4 15 -10 0 -5 9 -10 21 -10 11 0 27 -7 35 -15
9 -8 26 -15 40 -15 13 0 24 -4 24 -9 0 -5 9 -11 21 -14 29 -8 22 -51 -8 -55
-13 -2 -23 -8 -23 -13 0 -5 -7 -9 -16 -9 -8 0 -22 -7 -30 -15 -9 -8 -26 -15
-40 -15 -13 0 -24 -4 -24 -9 0 -5 -11 -12 -25 -15 -14 -4 -25 -11 -25 -16 0
-6 -7 -10 -15 -10 -8 0 -15 -4 -15 -10 0 -5 -8 -10 -17 -10 -10 0 -27 -7 -37
-15 -11 -8 -28 -15 -38 -15 -11 0 -29 -11 -42 -25 -13 -14 -33 -25 -45 -25
-12 0 -29 -7 -37 -15 -9 -8 -24 -15 -35 -15 -10 0 -19 -4 -19 -10 0 -5 -9 -10
-20 -10 -11 0 -20 -4 -20 -10 0 -5 -11 -12 -25 -16 -14 -3 -25 -10 -25 -15 0
-5 -11 -9 -24 -9 -14 0 -31 -7 -40 -15 -8 -8 -24 -15 -35 -15 -12 0 -21 -4
-21 -10 0 -5 -7 -10 -15 -10 -8 0 -15 -7 -15 -15 0 -10 -10 -15 -34 -15 -21 0
-36 -6 -40 -15 -3 -8 -15 -15 -26 -15 -11 0 -20 -4 -20 -10 0 -5 -7 -10 -16
-10 -8 0 -22 -7 -30 -15 -9 -8 -26 -15 -40 -15 -13 0 -24 -4 -24 -9 0 -5 -11
-12 -25 -15 -14 -4 -25 -11 -25 -16 0 -6 -7 -10 -15 -10 -8 0 -15 -4 -15 -9 0
-5 -16 -12 -35 -15 -19 -4 -35 -11 -35 -16 0 -6 -11 -10 -25 -10 -14 0 -25 -4
-25 -10 0 -5 -7 -10 -15 -10 -8 0 -15 -7 -15 -15 0 -10 -10 -15 -34 -15 -21 0
-36 -6 -40 -15 -3 -8 -15 -15 -26 -15 -11 0 -20 -4 -20 -10 0 -5 -7 -10 -16
-10 -8 0 -22 -7 -30 -15 -9 -8 -26 -15 -40 -15 -13 0 -24 -4 -24 -9 0 -5 -11
-12 -25 -15 -14 -4 -25 -11 -25 -16 0 -6 -7 -10 -15 -10 -8 0 -15 -4 -15 -10
0 -5 -8 -10 -17 -10 -10 0 -27 -7 -37 -15 -25 -19 -63 -19 -82 0 -9 8 -26 15
-40 15 -13 0 -24 5 -24 10 0 6 -7 10 -15 10 -8 0 -15 4 -15 10 0 5 -11 12 -25
16 -14 3 -25 10 -25 15 0 5 -11 9 -25 9 -14 0 -25 4 -25 10 0 5 -11 12 -25 16
-14 3 -25 10 -25 15 0 5 -11 9 -25 9 -14 0 -28 7 -31 15 -4 9 -19 15 -40 15
-24 0 -34 5 -34 15 0 8 -7 15 -15 15 -8 0 -15 5 -15 10 0 6 -11 10 -25 10 -14
0 -25 4 -25 10 0 5 -16 12 -35 16 -19 3 -35 10 -35 15 0 5 -7 9 -15 9 -8 0
-15 4 -15 10 0 5 -11 12 -25 16 -14 3 -25 10 -25 15 0 5 -9 9 -21 9 -11 0 -27
7 -35 15 -9 8 -24 15 -35 15 -10 0 -19 5 -19 10 0 6 -9 10 -20 10 -11 0 -23 7
-26 15 -4 9 -19 15 -40 15 -24 0 -34 5 -34 15 0 8 -7 15 -15 15 -8 0 -15 5
-15 10 0 6 -9 10 -21 10 -11 0 -27 7 -35 15 -9 8 -26 15 -40 15 -13 0 -24 5
-24 10 0 6 -7 10 -15 10 -8 0 -15 4 -15 10 0 5 -11 12 -25 16 -14 3 -25 10
-25 15 0 5 -11 9 -25 9 -14 0 -28 7 -31 15 -4 9 -19 15 -35 15 -16 0 -29 5
-29 10 0 6 -7 10 -15 10 -9 0 -18 7 -21 15 -4 8 -15 15 -26 15 -11 0 -26 7
-34 15 -9 8 -26 15 -40 15 -13 0 -24 5 -24 10 0 6 -7 10 -15 10 -8 0 -15 4
-15 10 0 5 -11 12 -25 16 -14 3 -25 10 -25 15 0 5 -11 9 -25 9 -14 0 -25 4
-25 10 0 5 -11 12 -25 16 -14 3 -25 10 -25 14 0 5 -12 10 -27 12 -36 4 -46 46
-14 55 12 3 21 9 21 14 0 5 9 9 21 9 11 0 27 7 35 15 9 8 26 15 40 15 13 0 24
4 24 9 0 5 11 12 25 15 14 4 25 11 25 16 0 6 7 10 15 10 8 0 15 5 15 10 0 6 8
10 18 10 9 0 26 7 36 15 11 8 28 15 38 15 11 0 29 11 42 25 13 14 33 25 45 25
12 0 29 7 37 15 9 8 24 15 35 15 10 0 19 5 19 10 0 6 20 10 45 10 25 0 45 -4
45 -10z m-30 -1050 c0 -5 11 -10 25 -10 16 0 25 -6 25 -15 0 -9 9 -15 25 -15
14 0 25 -4 25 -9 0 -5 11 -12 25 -15 14 -4 25 -11 25 -16 0 -6 14 -10 30 -10
17 0 30 -4 30 -10 0 -5 11 -12 25 -16 14 -3 25 -10 25 -15 0 -5 11 -9 25 -9
14 0 25 -4 25 -10 0 -5 11 -12 25 -16 14 -3 25 -10 25 -15 0 -5 11 -9 25 -9
16 0 25 -6 25 -15 0 -9 9 -15 25 -15 14 0 25 -4 25 -10 0 -5 11 -10 25 -10 16
0 25 -6 25 -15 0 -10 10 -15 30 -15 17 0 30 -4 30 -10 0 -5 11 -12 25 -16 14
-3 25 -10 25 -15 0 -5 11 -9 25 -9 14 0 25 -4 25 -10 0 -5 11 -12 25 -16 14
-3 25 -10 25 -15 0 -5 11 -9 25 -9 14 0 25 -4 25 -10 0 -5 11 -12 25 -16 14
-3 25 -10 25 -15 0 -5 11 -9 25 -9 16 0 25 -6 25 -15 0 -9 9 -15 25 -15 14 0
25 -4 25 -10 0 -5 11 -10 25 -10 14 0 28 -7 31 -15 9 -22 139 -22 148 0 3 8
17 15 31 15 14 0 25 5 25 10 0 6 11 10 25 10 16 0 25 6 25 15 0 9 9 15 25 15
14 0 25 4 25 9 0 5 11 12 25 15 14 4 25 11 25 16 0 6 11 10 25 10 14 0 25 4
25 9 0 5 11 12 25 15 14 4 25 11 25 16 0 6 11 10 25 10 14 0 25 4 25 9 0 5 11
12 25 15 14 4 25 11 25 16 0 6 14 10 30 10 20 0 30 5 30 15 0 9 9 15 25 15 14
0 25 5 25 10 0 6 11 10 25 10 16 0 25 6 25 15 0 9 9 15 25 15 14 0 25 4 25 9
0 5 11 12 25 15 14 4 25 11 25 16 0 6 11 10 25 10 14 0 25 4 25 9 0 5 14 12
30 16 17 4 30 11 30 16 0 5 11 9 25 9 14 0 25 4 25 10 0 5 11 12 25 16 14 3
25 10 25 15 0 5 11 9 25 9 14 0 25 4 25 9 0 5 10 13 23 17 12 4 26 12 30 18 6
8 10 8 14 -1 2 -7 16 -13 29 -13 14 0 27 -7 30 -15 4 -8 17 -15 30 -15 13 0
24 -4 24 -10 0 -5 9 -10 20 -10 11 0 23 -7 26 -15 4 -8 17 -15 30 -15 13 0 24
-4 24 -9 0 -5 11 -12 25 -15 14 -4 25 -11 25 -16 0 -6 11 -10 25 -10 14 0 25
-4 25 -9 0 -5 14 -12 30 -16 17 -4 30 -11 30 -16 0 -5 11 -9 25 -9 14 0 25 -4
25 -10 0 -5 11 -12 25 -16 14 -3 25 -10 25 -15 0 -5 11 -9 25 -9 16 0 25 -6
25 -15 0 -9 9 -15 25 -15 16 0 25 -6 25 -15 0 -8 -7 -15 -15 -15 -8 0 -15 -4
-15 -10 0 -5 -11 -10 -25 -10 -16 0 -25 -6 -25 -15 0 -9 -9 -15 -25 -15 -14 0
-25 -4 -25 -10 0 -5 -11 -10 -25 -10 -16 0 -25 -6 -25 -15 0 -9 -9 -15 -25
-15 -14 0 -25 -4 -25 -9 0 -5 -11 -12 -25 -15 -14 -4 -25 -11 -25 -16 0 -6
-13 -10 -30 -10 -16 0 -30 -4 -30 -10 0 -5 -11 -12 -25 -16 -14 -3 -25 -10
-25 -15 0 -5 -11 -9 -25 -9 -14 0 -25 -4 -25 -10 0 -5 -11 -12 -25 -16 -14 -3
-25 -10 -25 -15 0 -5 -11 -9 -25 -9 -16 0 -25 -6 -25 -15 0 -9 -9 -15 -25 -15
-14 0 -25 -4 -25 -9 0 -5 -11 -12 -25 -15 -14 -4 -25 -11 -25 -16 0 -6 -11
-10 -25 -10 -14 0 -25 -4 -25 -9 0 -5 -11 -12 -25 -15 -14 -4 -25 -11 -25 -16
0 -6 -11 -10 -25 -10 -24 0 -33 -5 -70 -37 -7 -7 -25 -13 -39 -13 -16 0 -26
-6 -26 -15 0 -9 -9 -15 -25 -15 -14 0 -25 -4 -25 -10 0 -5 -11 -10 -25 -10
-16 0 -25 -6 -25 -15 0 -9 -9 -15 -25 -15 -14 0 -25 -4 -25 -9 0 -5 -11 -12
-25 -15 -14 -4 -25 -11 -25 -16 0 -6 -11 -10 -25 -10 -14 0 -25 -4 -25 -9 0
-5 -11 -12 -25 -15 -14 -4 -25 -11 -25 -16 0 -6 -13 -10 -30 -10 -16 0 -30 -4
-30 -10 0 -5 -11 -12 -25 -16 -14 -3 -25 -10 -25 -15 0 -5 -11 -9 -25 -9 -16
0 -25 -6 -25 -15 0 -9 -9 -15 -25 -15 -14 0 -25 -4 -25 -10 0 -5 -11 -10 -25
-10 -16 0 -25 -6 -25 -15 0 -9 -9 -15 -25 -15 -14 0 -25 -4 -25 -9 0 -5 -11
-12 -25 -15 -14 -4 -25 -11 -25 -16 0 -6 -11 -10 -25 -10 -14 0 -25 -4 -25
-10 0 -5 -7 -10 -15 -10 -8 0 -15 5 -15 10 0 6 -16 10 -35 10 -19 0 -35 4 -35
9 0 5 -13 12 -30 16 -16 4 -30 10 -30 15 0 4 -11 11 -25 14 -14 4 -25 11 -25
16 0 6 -11 10 -25 10 -14 0 -25 4 -25 9 0 5 -11 12 -25 15 -14 4 -25 11 -25
16 0 6 -11 10 -25 10 -14 0 -25 4 -25 9 0 5 -11 12 -25 15 -14 4 -25 11 -25
16 0 6 -11 10 -25 10 -14 0 -25 4 -25 9 0 5 -11 12 -25 15 -14 4 -25 11 -25
16 0 6 -11 10 -24 10 -13 0 -26 7 -30 15 -3 8 -17 15 -31 15 -14 0 -25 5 -25
10 0 6 -11 10 -25 10 -16 0 -25 6 -25 15 0 9 -9 15 -25 15 -14 0 -25 4 -25 9
0 5 -11 12 -25 15 -14 4 -25 11 -25 16 0 6 -11 10 -25 10 -14 0 -25 4 -25 9 0
5 -11 12 -25 15 -14 4 -25 11 -25 16 0 6 -11 10 -25 10 -14 0 -25 4 -25 9 0 5
-13 12 -30 16 -16 4 -30 11 -30 16 0 5 -6 9 -14 9 -7 0 -19 7 -26 15 -7 8 -23
15 -36 15 -13 0 -24 5 -24 10 0 6 -11 10 -25 10 -16 0 -25 6 -25 15 0 9 -9 15
-25 15 -14 0 -25 4 -25 9 0 5 -11 12 -25 15 -14 4 -25 11 -25 16 0 6 -11 10
-25 10 -14 0 -25 5 -25 10 0 6 -7 10 -15 10 -8 0 -15 7 -15 15 0 10 -11 15
-35 15 -19 0 -35 4 -35 9 0 5 -13 12 -30 16 -16 4 -30 10 -30 15 0 4 -11 11
-25 14 -14 4 -25 11 -25 16 0 6 -11 10 -25 10 -14 0 -25 4 -25 9 0 5 -11 12
-25 15 -14 4 -25 11 -25 16 0 6 -9 10 -20 10 -18 0 -60 32 -60 45 0 3 11 5 25
5 16 0 25 6 25 15 0 9 9 15 25 15 14 0 25 4 25 9 0 5 11 12 25 15 14 4 25 11
25 16 0 6 11 10 24 10 13 0 26 3 28 8 4 10 67 42 84 42 8 0 14 4 14 9 0 5 14
12 30 16 17 4 30 11 30 16 0 5 11 9 25 9 14 0 25 4 25 10 0 5 11 12 25 16 14
3 25 10 25 15 0 5 11 9 24 9 13 0 26 7 30 15 3 8 15 15 26 15 11 0 20 5 20 10
0 6 7 10 15 10 8 0 15 -4 15 -10z"/>
</g>
</svg>
