<?xml version="1.0" standalone="no"?>
<!DOCTYPE svg PUBLIC "-//W3C//DTD SVG 20010904//EN" "http://www.w3.org/TR/2001/REC-SVG-20010904/DTD/svg10.dtd">
<svg version="1.0" xmlns="http://www.w3.org/2000/svg" width="512.000000pt" height="512.000000pt"
  viewBox="0 0 512.000000 512.000000" preserveAspectRatio="xMidYMid meet">

  <g transform="translate(0.000000,512.000000) scale(0.100000,-0.100000)" fill="#464646" stroke="none">
    <path d="M3912 4780 c-48 -29 -72 -75 -72 -138 0 -29 5 -63 11 -75 6 -12 169
-181 362 -374 l352 -353 -2230 0 c-2208 0 -2230 0 -2263 -20 -48 -30 -72 -75
-72 -140 0 -65 24 -110 72 -140 33 -20 55 -20 2263 -20 l2230 0 -352 -352
c-193 -194 -356 -363 -362 -375 -6 -12 -11 -46 -11 -75 0 -97 61 -158 158
-158 29 0 63 5 75 11 31 16 1015 998 1033 1031 8 15 14 50 14 78 0 28 -6 63
-14 78 -18 33 -1002 1015 -1033 1031 -36 18 -124 13 -161 -9z" />
    <path d="M1045 2549 c-31 -17 -1015 -1001 -1031 -1031 -18 -35 -18 -121 0
-156 18 -33 1002 -1015 1033 -1031 12 -6 46 -11 75 -11 97 0 158 61 158 158 0
29 -5 63 -11 75 -6 12 -169 181 -362 375 l-352 352 2230 0 c2208 0 2230 0
2263 20 48 30 72 75 72 140 0 65 -24 110 -72 140 -33 20 -55 20 -2263 20
l-2230 0 352 353 c193 193 356 362 362 374 6 12 11 46 11 75 0 98 -61 158
-160 158 -30 0 -64 -5 -75 -11z" />
  </g>
</svg>