<?xml version="1.0" standalone="no"?>
<!DOCTYPE svg PUBLIC "-//W3C//DTD SVG 20010904//EN" "http://www.w3.org/TR/2001/REC-SVG-20010904/DTD/svg10.dtd">
<svg version="1.0" xmlns="http://www.w3.org/2000/svg" width="512.000000pt" height="512.000000pt"
  viewBox="0 0 512.000000 512.000000" preserveAspectRatio="xMidYMid meet">

  <g transform="translate(0.000000,512.000000) scale(0.100000,-0.100000)" fill="#464646" stroke="none">
    <path d="M2265 5109 c-869 -104 -1625 -640 -2009 -1424 -112 -227 -189 -471
-233 -740 -26 -158 -26 -612 0 -770 91 -552 319 -1007 702 -1404 416 -431 969
-698 1573 -762 166 -17 524 -7 677 20 423 73 788 229 1130 483 136 101 394
358 494 492 265 353 425 731 498 1171 26 158 26 612 0 770 -73 440 -233 817
-498 1171 -95 127 -356 388 -483 483 -348 261 -715 419 -1140 492 -96 17 -174
22 -376 24 -140 2 -291 -1 -335 -6z m1415 -1554 c68 -35 73 -99 35 -396 -70
-534 -257 -1629 -296 -1734 -24 -64 -59 -109 -102 -132 -38 -19 -117 -13 -179
15 -36 15 -840 554 -888 594 -40 34 -70 81 -70 112 0 56 53 118 293 342 334
312 587 564 594 593 8 30 -7 55 -36 59 -32 5 -105 -41 -666 -416 -275 -184
-529 -349 -565 -366 -58 -28 -75 -31 -155 -31 -103 1 -182 19 -440 102 -139
45 -175 61 -202 88 -18 18 -33 41 -33 51 0 9 19 36 43 58 46 45 39 42 1052
478 739 319 1153 488 1365 559 126 42 201 49 250 24z" />
  </g>
</svg>