<?xml version="1.0" standalone="no"?>
<!DOCTYPE svg PUBLIC "-//W3C//DTD SVG 20010904//EN" "http://www.w3.org/TR/2001/REC-SVG-20010904/DTD/svg10.dtd">
<svg version="1.0" xmlns="http://www.w3.org/2000/svg" width="512.000000pt" height="512.000000pt"
  viewBox="0 0 512.000000 512.000000" preserveAspectRatio="xMidYMid meet">

  <g transform="translate(0.000000,512.000000) scale(0.100000,-0.100000)" fill="#ffffff" stroke="none">
    <path d="M1243 4785 c-407 -74 -719 -389 -783 -790 -5 -33 -32 -663 -60 -1400
-55 -1456 -55 -1435 -4 -1598 49 -154 123 -276 238 -392 120 -121 274 -210
446 -257 l85 -23 1405 0 c1343 0 1408 1 1474 19 175 47 322 134 447 263 163
168 254 358 274 569 8 82 -91 2732 -105 2821 -55 344 -302 636 -635 750 -158
54 -138 53 -1474 52 -968 -1 -1252 -4 -1308 -14z m2682 -334 c92 -31 128 -49
202 -106 125 -93 211 -247 233 -416 11 -84 100 -2423 100 -2614 0 -118 -18
-200 -64 -298 -66 -142 -171 -252 -303 -317 -125 -62 -72 -60 -1521 -60 -1426
0 -1387 -1 -1509 51 -197 84 -348 277 -382 489 -15 93 82 2713 104 2808 45
193 190 364 374 441 121 51 88 50 1436 48 l1260 -2 70 -24z" />
    <path d="M1522 4140 c-80 -36 -98 -125 -67 -320 78 -480 445 -847 925 -925
225 -36 486 3 682 101 322 161 549 475 603 831 30 196 12 277 -67 313 -54 25
-102 25 -156 0 -56 -25 -78 -74 -86 -195 -23 -343 -249 -622 -583 -717 -103
-30 -313 -32 -413 -4 -342 94 -573 374 -596 721 -8 121 -30 170 -86 195 -54
25 -102 25 -156 0z" />
  </g>
</svg>